<?xml version="1.0" standalone="no"?>
<!DOCTYPE svg PUBLIC "-//W3C//DTD SVG 1.1//EN" "http://www.w3.org/Graphics/SVG/1.1/DTD/svg11.dtd" >
<svg xmlns="http://www.w3.org/2000/svg" xmlns:xlink="http://www.w3.org/1999/xlink" version="1.1">
<metadata>
Created by FontForge 20201107 at Tue Jun  6 09:57:12 2023
 By 
</metadata>
<defs>
<font id="NVNMorningCalm-Regular" horiz-adv-x="515" >
  <font-face 
    font-family="NVN Morning Calm"
    font-weight="400"
    font-stretch="normal"
    units-per-em="1000"
    panose-1="0 0 0 0 0 0 0 0 0 0"
    ascent="750"
    descent="-250"
    x-height="477"
    cap-height="756"
    bbox="-114 -329 892 1144"
    underline-thickness="50"
    underline-position="-100"
    unicode-range="U+000D-2212"
  />
<missing-glyph horiz-adv-x="305" 
 />
    <glyph glyph-name=".notdef" horiz-adv-x="305" 
 />
    <glyph glyph-name=".null" horiz-adv-x="0" 
 />
    <glyph glyph-name=".null" horiz-adv-x="0" 
 />
    <glyph glyph-name="uni000D" unicode="&#xd;" horiz-adv-x="305" 
 />
    <glyph glyph-name="space" unicode=" " horiz-adv-x="255" 
 />
    <glyph glyph-name="exclam" unicode="!" horiz-adv-x="238" 
d="M161 734q8 -2 14 -8.5t6 -15.5l1 -428q0 -47 -30.5 -71.5t-79.5 -24.5q-7 0 -10 3.5t-3 5.5t3 5q11 11 11.5 23.5t0.5 36.5v427q0 5 -1.5 11t-5.5 10q-3 3 -11 5q-8 3 -8 12q0 12 14 14q7 1 18 1t33 -1t48 -5zM126 110q18 0 31 -13t13 -31v-22q0 -18 -13 -31t-31 -13h-22
q-18 0 -31 13t-13 31v22q0 18 13 31t31 13h22z" />
    <glyph glyph-name="quotedbl" unicode="&#x22;" horiz-adv-x="370" 
d="M155 647q9 -1 15 -7.5t6 -15.5l1 -50q0 -47 -30.5 -71.5t-79.5 -24.5q-7 0 -10 3t-3 5q0 3 3 6q11 11 11.5 24t0.5 36v48q0 14 -7 21q-4 4 -11 6q-8 3 -8 11q0 12 14 15h1h2h2h1v0h6v0h2q12 0 35 -1t49 -5zM315 647q9 -1 14.5 -7.5t5.5 -15.5l1 -50q0 -47 -30.5 -71.5
t-79.5 -24.5q-7 0 -10 3.5t-3 5.5t3 5q11 11 11.5 24t0.5 36v48q0 6 -1.5 12t-5.5 9q-2 2 -5 4h-1h-1v1h-1v0h-1v1h-1v0q-9 4 -9 11q0 12 14 15h1h2h2h1v0h6v0h2q12 0 35.5 -1t49.5 -5z" />
    <glyph glyph-name="numbersign" unicode="#" horiz-adv-x="608" 
d="M480 281q24 0 38 -8t22 -22.5t10.5 -35t2.5 -44.5q0 -7 -2.5 -11t-4.5 -4q-3 0 -7 5q-11 10 -22.5 11t-33.5 1h-21v-36q0 -47 -30.5 -71.5t-79.5 -24.5q-7 0 -11 5t-4 6q0 3 6 3q11 0 11 18v100h-105v-58q0 -24 0.5 -42t11.5 -18q2 -4 2 -6q0 -3 -2.5 -5.5t-9.5 -2.5
q-49 0 -79.5 24.5t-30.5 71.5v36h-5q-47 0 -68.5 30.5t-21.5 79.5q0 6 5 10t6 4q3 0 3 -5q0 -11 18 -11h63v96h-5q-47 0 -68.5 30.5t-21.5 79.5q0 7 5 11t6 4q3 0 3 -6q0 -11 18 -11h63v36q0 47 30.5 71.5t79.5 24.5q7 0 11 -5t4 -7t-5 -2q-12 0 -12 -18v-100h105v58
q0 23 -0.5 41.5t-11.5 18.5q-2 4 -2 7q0 7 12 7q49 0 79.5 -24.5t30.5 -71.5v-36h18q24 0 38 -8t22 -22.5t10.5 -35t2.5 -44.5q0 -7 -2.5 -10.5t-4.5 -3.5q-3 0 -7 4q-11 11 -22.5 11.5t-33.5 0.5h-21v-96h18zM354 281v96h-105v-96h105z" />
    <glyph glyph-name="ampersand" unicode="&#x26;" horiz-adv-x="678" 
d="M533 479q31 13 53 13q23 0 37 -13q20 -18 22 -33.5t2 -20.5q0 -20 -11 -38q-16 -26 -36 -37t-38 -11q-4 0 -9 1q-12 2 -25 2q-9 0 -26 -1.5t-44 -6.5q0 -1 0.5 -1t0.5 -1l1 -236q0 -47 -30.5 -71.5t-79.5 -24.5h-160q-49 0 -79.5 24.5t-30.5 71.5v266q0 34 17 56.5
t46 32.5q-29 10 -46 32t-17 57v99q0 47 30.5 71.5t79.5 24.5h160q49 0 79.5 -21.5t30.5 -69.5q0 -47 -30.5 -69t-79.5 -22q-7 0 -11 2.5t-4 4.5q0 4 4 8q11 11 12 23.5t1 35.5v34q0 24 -0.5 42t-12.5 18h-139q-11 0 -11.5 -18t-0.5 -42v-143q0 -24 0.5 -42t11.5 -18
q8 -1 16.5 -2t16.5 -3q5 -1 11 -1t11 2q6 2 10.5 5.5t9.5 7.5q6 5 14 5q1 0 6 -0.5t14 -8.5q6 -5 14.5 -14t13.5 -17q4 -7 4 -13q0 -2 -1 -4q-2 -5 -7 -5v0h-1v0v0v0h-2q-5 3 -11 5.5t-12 4.5q-21 8 -48.5 15.5t-59.5 7.5q-11 -1 -11 -18v-351q0 -24 0.5 -42t11.5 -18h139
q12 0 12.5 18t0.5 42v233q-42 -14 -78 -28t-59 -25q-2 -1 -3 -1q-3 0 -5 3t-2 5q0 3 2 5q29 24 73.5 56t91.5 63.5t90.5 57t70.5 36.5z" />
    <glyph glyph-name="parenleft" unicode="(" horiz-adv-x="227" 
d="M170 735q7 0 11 -5t4 -6q0 -3 -6 -3q-11 0 -11 -18v-629q0 -24 0.5 -42t11.5 -18q2 -4 2 -7q0 -7 -12 -7q-49 0 -79.5 24.5t-30.5 71.5v543q0 47 30.5 71.5t79.5 24.5z" />
    <glyph glyph-name="parenright" unicode=")" horiz-adv-x="232" 
d="M64 0q-7 0 -11 5t-4 6q0 3 6 3q11 0 11 18v629q0 24 -0.5 42t-11.5 18q-2 4 -2 7q0 7 12 7q49 0 79.5 -24.5t30.5 -71.5v-543q0 -47 -30.5 -71.5t-79.5 -24.5z" />
    <glyph glyph-name="plus" unicode="+" horiz-adv-x="503" 
d="M358 378q23 0 37.5 -8t22 -22.5t10 -35t2.5 -44.5q0 -7 -2.5 -10.5t-4.5 -3.5q-3 0 -7 4q-11 11 -22.5 11.5t-32.5 0.5h-48l1 -50q0 -47 -30.5 -71.5t-80.5 -24.5q-6 0 -9.5 3.5t-3.5 5.5t3 5q11 11 11.5 23.5t0.5 36.5v72h-32q-47 0 -68.5 30.5t-21.5 79.5q0 7 5 11t6 4
q3 0 3 -6q0 -11 18 -11h90v86q0 14 -7 21q-5 5 -10 6q-8 2 -8 11q0 13 13 14q7 1 18.5 1t25 -1t28 -2t27.5 -3q9 -1 14.5 -7.5t5.5 -15.5l1 -110h45z" />
    <glyph glyph-name="comma" unicode="," horiz-adv-x="228" 
d="M160 105q8 -1 14 -7.5t6 -15.5l1 -50q0 -47 -30.5 -71.5t-79.5 -24.5q-7 0 -10 3t-3 5q0 3 3 6q11 11 11.5 23.5t0.5 36.5v48q0 14 -7 21q-3 4 -11 6t-8 11q0 12 14 15h2h1h2h1v0h6v0h2q12 0 35.5 -1t49.5 -5z" />
    <glyph glyph-name="hyphen" unicode="-" horiz-adv-x="283" 
d="M170 361q22 0 36 -8t21.5 -22t10 -33.5t2.5 -42.5q0 -7 -2.5 -10.5t-4.5 -3.5q-3 0 -7 4q-10 10 -21.5 11t-31.5 1v0h-1v0h-1v0h-4h-1v0h-1v0h-1v0h-3l-13 -1h-1v0h-1v0v0h-1v0h-2h-1h-1h-1v0h-1v0h-1h-2q-45 0 -65.5 29.5t-20.5 76.5q0 7 4.5 10.5t6.5 3.5t2 -5
q0 -11 18 -11h40z" />
    <glyph glyph-name="period" unicode="." horiz-adv-x="193" 
d="M102 109q18 0 31 -13t13 -31v-22q0 -18 -13 -31t-31 -13h-22q-18 0 -31 13t-13 31v22q0 18 13 31t31 13h22z" />
    <glyph glyph-name="slash" unicode="/" horiz-adv-x="430" 
d="M377 745q8 -4 8 -13q0 -8 -4 -14q-6 -7 -14 -20.5t-10 -23.5l-173 -609q-7 -23 -20.5 -40t-31.5 -27.5t-32.5 -12.5t-20.5 -2q-16 0 -32 5q-10 2 -10 8q0 4 4 9q20 23 32 69l186 649q2 3 2.5 5.5t2.5 4.5q6 12 17 20t25 10q7 0 9 -1q11 -2 29.5 -6.5t32.5 -10.5z" />
    <glyph glyph-name="zero" unicode="0" horiz-adv-x="541" 
d="M191 2q-49 0 -79.5 24.5t-30.5 71.5v543q0 47 30.5 71.5t79.5 24.5h160q49 0 79.5 -24.5t30.5 -71.5v-543q0 -47 -30.5 -71.5t-79.5 -24.5h-160zM200 723q-11 0 -11 -18v-629q0 -24 0.5 -42t11.5 -18h140q11 0 11.5 18t0.5 42v587q0 24 -0.5 42t-11.5 18h-141z" />
    <glyph glyph-name="one" unicode="1" horiz-adv-x="255" 
d="M165 728q9 -1 15 -7.5t6 -15.5l1 -608q0 -48 -30.5 -72.5t-79.5 -24.5q-7 0 -10 3t-3 6t3 6q11 11 11.5 23.5t0.5 35.5v607q0 14 -7 21q-4 4 -11 6q-8 3 -8 11q0 12 14 15h1v0h1h2h1h1v0h7v0h1q12 0 35 -1t49 -5z" />
    <glyph glyph-name="two" unicode="2" horiz-adv-x="528" 
d="M349 752q49 0 79.5 -24.5t30.5 -72.5v-113q0 -47 -30.5 -71.5t-79.5 -24.5h-151q-11 0 -11 -18v-338q0 -23 0.5 -41t11.5 -18h139q12 0 12.5 18t0.5 41v115q0 13 -8 21q-3 3 -10 5q-8 3 -8 12q0 13 14 14h1h1v0h1h1h2v0h8q12 0 35 -1t49 -4q9 -2 15 -8.5t6 -15.5l1 -115
q0 -48 -30.5 -72.5t-79.5 -24.5h-160q-49 0 -79.5 24.5t-30.5 72.5v251q0 47 30.5 71.5t79.5 24.5h149q12 0 12.5 18t0.5 42v157q0 24 -0.5 42t-12.5 18h-140q-11 0 -11 -18v-76q0 -24 -8 -38t-22.5 -22t-35 -10.5t-44.5 -2.5q-7 0 -10.5 2.5t-3.5 4.5q0 3 4 7
q11 11 11.5 22.5t0.5 33.5v21q0 48 30.5 69.5t79.5 21.5h160z" />
    <glyph glyph-name="three" unicode="3" horiz-adv-x="535" 
d="M347 734q49 0 79.5 -24.5t30.5 -71.5v-113q0 -35 -17 -57.5t-46 -32.5q29 -10 46 -32t17 -57v-251q0 -47 -30.5 -71.5t-79.5 -24.5h-160q-49 0 -79.5 24.5t-30.5 71.5v92q0 14 -7 21q-2 2 -5 4h-1h-1v1h-1v0h-1v1h-1v0q-9 2 -9 11q0 12 14 14q8 1 21 1q10 0 31.5 -1
t47.5 -5q9 -1 14.5 -7.5t5.5 -15.5v-138q0 -24 0.5 -42t11.5 -18h140q11 0 11.5 18t0.5 42v295q0 24 -0.5 42t-11.5 18q-8 1 -16.5 2t-16.5 3q-5 1 -11.5 1t-11.5 -2q-11 -5 -19 -13q-6 -5 -14 -5q-1 0 -6 0.5t-15 8.5q-5 6 -13.5 14.5t-13.5 16.5q-4 6 -4 12q0 2 1 5
q1 6 6 6q1 0 3 -1q6 -3 12 -5.5t12 -4.5q21 -8 48.5 -15t59.5 -8q10 1 10.5 18.5t0.5 40.5v158q0 24 -0.5 42t-11.5 18h-138q-12 0 -12 -18v-42l1 -35q0 -23 -8 -37.5t-22.5 -22.5t-35 -10.5t-45.5 -2.5q-6 0 -10 2.5t-4 4.5q0 3 4 7q11 11 12 19.5t1 17.5q0 8 -1 19v22
q0 46 30 67.5t78 22.5h160z" />
    <glyph glyph-name="four" unicode="4" horiz-adv-x="530" 
d="M451 96q0 -48 -30.5 -72.5t-79.5 -24.5q-7 0 -10 3t-3 6t3 6q11 11 11.5 23.5t0.5 35.5v384l-15 -6q-25 -10 -59 -18t-69 -8q-49 0 -79.5 24.5t-30.5 72.5v158q0 6 -1.5 12t-5.5 9q-3 4 -10 6q-8 3 -8 11q0 12 13 15h19q11 0 24.5 -1t28 -2t27.5 -3q9 -1 14.5 -7.5
t5.5 -15.5v-32l1 -173q0 -23 0.5 -41.5t11.5 -18.5q34 0 63 7.5t51 16.5q3 1 5 2l9 4q3 1 5 2v209q0 6 -1.5 12t-5.5 9q-4 4 -11 6q-8 3 -8 11q0 12 14 15h1h1v0h1h1h2v0h6v0h2q12 0 35.5 -1t49.5 -5q8 -1 14 -7.5t6 -15.5z" />
    <glyph glyph-name="five" unicode="5" horiz-adv-x="540" 
d="M191 1q-48 1 -77.5 25.5t-29.5 70.5v92q0 6 -1.5 12t-5.5 9q-3 4 -10 6q-8 3 -8 11q0 14 13 15h19q12 0 25.5 -1t28 -2t27.5 -3q9 -1 14.5 -7.5t5.5 -15.5v-138q0 -24 0.5 -42t11.5 -18h136q12 0 12.5 18t0.5 42v296q0 23 -0.5 41t-12.5 18h-149q-49 0 -79.5 24.5
t-30.5 72.5v113q0 47 30.5 71.5t79.5 24.5h160q49 0 79.5 -21.5t30.5 -69.5q0 -47 -30.5 -69t-79.5 -22q-7 0 -11 2.5t-4 4.5q0 4 4 8q11 11 12 23.5t1 35.5v34q0 24 -0.5 42t-12.5 18h-140q-11 0 -11 -18v-200q0 -23 0.5 -41t11.5 -18h150q49 0 79.5 -24.5t30.5 -72.5v-251
q0 -47 -30.5 -71.5t-79.5 -24.5h-160z" />
    <glyph glyph-name="six" unicode="6" horiz-adv-x="535" 
d="M348 734q48 0 78.5 -22.5t31.5 -68.5q-1 -46 -31.5 -68.5t-78.5 -22.5q-7 0 -11 2t-4 4q0 3 5 8q11 11 11.5 21t0.5 34v39q0 24 -0.5 42t-11.5 18h-141q-11 0 -11 -18v-300q15 9 33 15q24 10 58.5 17.5t69.5 7.5q49 0 79.5 -24t30.5 -72v-251q0 -47 -30.5 -71.5
t-78.5 -24.5h-160q-49 0 -79.5 24.5t-30.5 71.5v543q0 47 30.5 71.5t79.5 24.5h160zM223 405q-18 -7 -37 -18v-314q0 -24 0.5 -42t11.5 -18h139q12 0 12 18v337q0 24 -0.5 42t-12.5 18q-34 0 -62.5 -7t-50.5 -16z" />
    <glyph glyph-name="seven" unicode="7" horiz-adv-x="530" 
d="M340 736q25 0 45.5 -7t35 -22.5t22.5 -41.5t8 -64v-504q0 -47 -30.5 -71.5t-80.5 -24.5q-6 0 -8.5 2.5t-2.5 5.5t1 6q11 11 11.5 23.5t0.5 36.5v548q0 54 -0.5 76.5t-11.5 22.5h-139q-11 0 -11 -18v-163q0 -24 -8 -38t-22.5 -22t-35 -10.5t-44.5 -2.5q-7 0 -11 2.5
t-4 4.5q0 3 5 7q10 11 11 22.5t1 33.5v108q0 47 30 68.5t79 21.5h159z" />
    <glyph glyph-name="eight" unicode="8" horiz-adv-x="533" 
d="M185 1q-49 0 -79.5 24.5t-30.5 71.5v147q0 78 23 123t59 68q6 5 12 8t13 6q4 2 7.5 4t8.5 4h-13q-49 0 -79.5 24.5t-30.5 71.5v85q0 47 30.5 71.5t78.5 24.5h160q49 0 79.5 -24.5t30.5 -71.5q0 -35 -8.5 -58t-23 -38t-34.5 -25t-42 -20h-1q0 -1 -1 -1l-1 -1h-1l-7 -3h-1
q0 -1 -1 -1l-1 -1h-1h12q49 0 79.5 -24.5t30.5 -71.5v-297q0 -47 -30 -71.5t-79 -24.5h-159zM183 531q0 -23 0.5 -41.5t12.5 -18.5q34 0 62.5 7.5t50.5 16.5q6 2 12 4.5t12 5.5l2 2q11 7 11 29v124q0 24 -0.5 42t-11.5 18h-139q-12 0 -12 -18v-171zM183 75q0 -23 0.5 -41.5
t11.5 -18.5h139q11 0 11 19v382q0 24 -0.5 42t-11.5 18q-34 0 -62.5 -7.5t-51.5 -16.5q-6 -2 -12 -4.5t-11 -5.5l-1 -1q-1 0 -2 -1q-11 -7 -11 -27q0 -1 0.5 -12t0.5 -34v-292z" />
    <glyph glyph-name="nine" unicode="9" horiz-adv-x="531" 
d="M182 1q-48 1 -77.5 25.5t-29.5 70.5v92q0 6 -2 12t-6 9q-3 4 -10 6q-8 3 -8 11q0 14 14 15h2h1h1h1h1v0h6v0h2q12 0 35.5 -1t49.5 -5q9 -1 15 -7.5t6 -15.5v-138q0 -24 0.5 -42t11.5 -18h137q11 0 11.5 18t0.5 42v396q-8 -4 -16.5 -8t-17.5 -7q-25 -10 -59 -18t-69 -8
q-49 0 -79.5 24.5t-30.5 72.5v113q0 47 30.5 71.5t79.5 24.5h160q49 0 79.5 -24.5t30.5 -71.5v-543q0 -47 -30.5 -71.5t-79.5 -24.5h-160zM306 468q10 4 19.5 9t18.5 10v175q0 24 -0.5 42t-11.5 18h-141q-11 0 -11 -18v-200q0 -23 0.5 -41t11.5 -18q34 0 63 7t51 16z" />
    <glyph glyph-name="colon" unicode=":" horiz-adv-x="238" 
d="M132 378q18 0 31 -13t13 -31v-22q0 -18 -13 -31t-31 -13h-22q-18 0 -31 13t-13 31v22q0 18 13 31t31 13h22zM132 192q18 0 31 -13t13 -31v-22q0 -18 -13 -31t-31 -13h-22q-18 0 -31 13t-13 31v22q0 18 13 31t31 13h22z" />
    <glyph glyph-name="semicolon" unicode=";" horiz-adv-x="226" 
d="M103 187q-18 0 -31 13t-13 31v22q0 18 13 31t31 13h22q18 0 31 -13t13 -31v-22q0 -18 -13 -31t-31 -13h-22zM160 105q8 -1 14 -7.5t6 -15.5l1 -50q0 -47 -30.5 -71.5t-79.5 -24.5q-7 0 -10 3t-3 5q0 3 3 6q11 11 11.5 23.5t0.5 36.5v48q0 14 -7 21q-3 4 -11 6t-8 11
q0 12 14 15h2h1h2h1v0h6v0h2q12 0 35.5 -1t49.5 -5z" />
    <glyph glyph-name="equal" unicode="=" horiz-adv-x="521" 
d="M380 512q23 0 37.5 -8t22.5 -22.5t10.5 -35t2.5 -44.5q0 -7 -2.5 -10.5t-4.5 -3.5q-3 0 -7 4q-11 11 -22.5 11.5t-33.5 0.5h-224q-47 0 -68.5 30.5t-21.5 79.5q0 7 5 11t6 4q3 0 3 -6q0 -11 18 -11h279zM380 308q23 0 37.5 -8t22.5 -22.5t10.5 -35t2.5 -44.5
q0 -7 -2.5 -11t-4.5 -4q-3 0 -7 5q-11 10 -22.5 11t-33.5 1h-224q-47 0 -68.5 30.5t-21.5 79.5q0 6 5 10t6 4q3 0 3 -5q0 -11 18 -11h279z" />
    <glyph glyph-name="question" unicode="?" horiz-adv-x="508" 
d="M336 737q49 0 79.5 -24.5t30.5 -71.5v-57q0 -47 -30.5 -71.5t-79.5 -24.5h-66q-11 0 -11.5 -12.5t-0.5 -18.5q0 -14 1 -29l-1 -147q0 -47 -29.5 -71.5t-78.5 -24.5q-7 0 -10 3.5t-3 5.5t3 5q11 11 11.5 23.5t0.5 36.5l-1 36v111q0 47 30.5 71.5t79.5 24.5h65
q11 0 11.5 18t0.5 42v101q0 24 -0.5 42t-11.5 18h-141q-11 0 -11 -18v-77q0 -23 -8 -37.5t-22.5 -22.5t-35 -10.5t-44.5 -2.5q-7 0 -10.5 2.5t-3.5 4.5q0 3 4 7q11 11 11.5 22.5t0.5 33.5v22q0 47 30.5 68.5t79.5 21.5h160zM201 109q19 0 31.5 -13t12.5 -31v-22
q0 -18 -12.5 -31t-31.5 -13h-22q-18 0 -31 13t-13 31v22q0 18 13 31t31 13h22z" />
    <glyph glyph-name="A" unicode="A" horiz-adv-x="523" 
d="M62 714q-8 2 -8 11q0 13 13 14q9 1 24 1t32 -1t34 -2.5t30 -4.5h163q8 2 16.5 4t14.5 7q9 7 19 7q3 0 6 -1q13 -3 27 -8t25 -9q8 -3 8 -12v-1q0 -8 -5 -13q-8 -10 -8 -33v-598q0 -17 -12 -31t-29.5 -23.5t-36.5 -15t-32 -5.5q-10 0 -10 7q0 2 1 5q5 13 7 25.5t2 37.5v470
q-39 -12 -75 -33q-23 -13 -43 -29t-38 -35l-1 -336q0 -23 -8 -43.5t-22 -35.5t-34.5 -24t-44.5 -9q-6 0 -8.5 2.5t-2.5 6.5q0 2 1 6q12 27 12 75v597q0 14 -7 21q-5 5 -10 6zM187 471q17 16 35 30t38 25q40 24 83 34v157h-156v-246z" />
    <glyph glyph-name="B" unicode="B" horiz-adv-x="518" 
d="M62 712q-8 3 -8 12q0 13 14 14h24q14 0 31 -0.5t34 -2t30 -4.5q4 0 28.5 -0.5t53.5 -0.5t54.5 1.5t32.5 4.5q6 4 11.5 6.5t10.5 2.5q3 0 6 -1q11 -2 29.5 -6.5t32.5 -10.5q8 -4 8 -14q0 -8 -5 -13q-6 -7 -10.5 -17t-6.5 -18q-19 -57 -41.5 -93.5t-49 -60.5t-57 -39
t-66.5 -28h101q8 0 23.5 2.5t25.5 9.5q11 7 19 7q3 0 6 -1q13 -3 27.5 -8t24.5 -9q9 -3 9 -12q0 -8 -6 -14q-6 -5 -9 -14.5t-3 -21.5v-332q0 -20 -11 -28t-29 -8h-213q-4 -7 -26 -10.5t-56 -3.5q-21 0 -21 20v664q0 13 -7 22q-5 4 -11 5zM186 715v-263q40 30 67 56.5
t43.5 55.5t25 64.5t13.5 84.5zM186 430v-401h144v401h-144z" />
    <glyph glyph-name="C" unicode="C" horiz-adv-x="513" 
d="M62 713q-8 3 -8 12q0 12 14 14h24q15 0 32 -0.5t34 -2t30 -4.5h132q8 0 23 2.5t26 9.5q9 7 19 7q3 0 6 -1q13 -3 27 -8t24 -9q9 -3 9 -12v-1q0 -4 -1.5 -7.5t-3.5 -5.5q-8 -10 -8 -33v-51q0 -17 -12 -30.5t-29.5 -23.5t-36.5 -15t-32 -5q-10 0 -10 7q0 2 1 5q5 13 7 25.5
t2 36.5v94h-144v-687l143 -1v230q0 14 -10 18q-9 7 -23 10q-5 1 -6.5 4t-1.5 5v0v0v1v0v1q2 5 8 7t11 2q9 1 19 1q5 0 16.5 -0.5t29.5 -2t35.5 -5t29.5 -7.5q11 -5 11 -12v0v0v-1v0v0v-2v0q0 -7 -4 -13q-4 -3 -6 -10q-1 -4 -1 -16v-172q0 -32 -9 -42t-41 -10h-21l-183 1
q-5 -7 -27 -10.5t-56 -3.5q-21 0 -21 20v664q0 6 -1.5 12t-5.5 10q-3 3 -11 5z" />
    <glyph glyph-name="D" unicode="D" horiz-adv-x="555" 
d="M63 714q-8 2 -8 11q0 13 13 14q9 1 24 1t32 -1t34 -2.5t30 -4.5h178q49 0 79.5 -24.5t30.5 -71.5v-506q0 -48 -30.5 -72t-79.5 -24h-26q-5 0 -15.5 -2.5t-15.5 -5.5q-9 -8 -15 -18q-5 -7 -11 -8.5t-8 -1.5q-7 0 -15 4t-18 10.5t-17 12.5q-8 7 -8 16q0 7 8 7h131v1
q8 8 10 21.5t2 37.5v550q0 24 -2 37.5t-10 21.5q0 1 -1 1h-167l-1 -606q0 -23 -8 -43.5t-22 -35.5t-34 -24t-44 -9q-12 0 -12 8q0 3 2 7q11 25 11 75v597q0 14 -7 21q-5 5 -10 6z" />
    <glyph glyph-name="E" unicode="E" horiz-adv-x="508" 
d="M62 713q-8 3 -8 12q0 13 14 14h23q15 0 32.5 -0.5t34.5 -2t29 -4.5h133q8 0 23 2.5t25 9.5q11 7 19 7q3 0 6 -1q13 -3 27.5 -8t24.5 -9q9 -3 9 -12h-1l1 -1q0 -4 -1.5 -7.5t-3.5 -5.5q-8 -10 -8 -33v-51q0 -17 -12.5 -30.5t-29.5 -23.5t-36.5 -15t-32.5 -5q-10 0 -10 8
q0 2 1 4q6 13 7.5 25.5t1.5 36.5v94h-144v-272h31q12 0 20 7.5t18 15.5q8 6 16 6q4 0 9 -2q11 -4 24 -9t22 -12q6 -4 6 -13q-2 -8 -9 -8h-137v-400l143 -1v224q0 13 -9 19q-10 6 -23 9q-5 1 -6.5 4t-1.5 5v0v0v1v0v1q2 5 8 7t11 3q9 1 19 1q5 0 16.5 -0.5t29.5 -2t35.5 -5
t29.5 -8.5q11 -4 11 -12q0 -11 -4 -15t-6 -11q0 -2 -0.5 -10.5t-1 -18.5t-0.5 -19v-134q0 -32 -8.5 -42t-40.5 -10h-21l-183 1q-5 -7 -27 -10.5t-56 -3.5q-21 0 -21 20v664q0 14 -8 22q-3 3 -10 5z" />
    <glyph glyph-name="F" unicode="F" horiz-adv-x="523" 
d="M63 712q-8 3 -8 12q0 13 14 14q9 1 24 1t32 -1t34 -2.5t29 -4.5h163q8 2 16.5 4t14.5 6q9 7 19 7q3 0 6 -1q13 -3 27 -7.5t25 -9.5q8 -3 8 -12q0 -8 -5 -13q-7 -8 -7 -33v-51q0 -17 -12.5 -31t-29.5 -23.5t-36.5 -15t-32.5 -5.5q-7 0 -8.5 3t-1.5 5q0 3 1 5q5 12 7 24.5
t2 37.5v95h-156v-273h31q11 0 19 7.5t19 15.5q7 6 15 6q5 0 10 -2q11 -4 24 -9t21 -12q6 -3 6 -10v-3q0 -3 -3.5 -5.5t-5.5 -2.5h-136l-1 -317q0 -24 -8 -44.5t-22 -35.5t-34 -23.5t-44 -8.5q-12 0 -12 7q0 3 2 7q12 28 12 76v597q0 12 -7 21q-5 4 -11 5z" />
    <glyph glyph-name="G" unicode="G" horiz-adv-x="510" 
d="M62 713q-8 3 -8 12q0 13 14 14h24q14 0 31 -0.5t34 -2t30 -4.5v-1h149q8 2 16.5 4t14.5 7q11 7 19 7q3 0 6 -1q13 -3 27.5 -8t24.5 -9q9 -5 9 -12v-1q0 -4 -1.5 -7.5t-3.5 -5.5q-8 -10 -8 -33v-51q0 -17 -12.5 -30.5t-29.5 -23.5t-36 -15t-32 -5q-11 0 -11 8q0 2 1 4
q6 13 8 25.5t2 36.5v95h-144v-686h144v281q-25 -23 -52.5 -38t-54.5 -20q-5 0 -6 1.5t-2 3.5q0 4 4 7q36 26 68 67.5t47 82.5q1 4 1 7q0 6 -4 11q-3 2 -6 4.5t-9 4.5q-4 3 -4 7v1q0 10 13 10q11 0 30.5 -4.5t36.5 -9.5h1q13 -3 27.5 -8t24.5 -9q9 -3 9 -12q0 -8 -6 -14
q-6 -5 -9 -14.5t-3 -21.5v-315q0 -20 -11 -28t-29 -8h-213q-4 -7 -26 -10.5t-56 -3.5q-21 0 -21 20v664q0 13 -7 22q-5 4 -11 5z" />
    <glyph glyph-name="H" unicode="H" horiz-adv-x="609" 
d="M74 725q-8 2 -10.5 6t-2.5 7q0 2 1 4q2 8 10 11t14 3v0h1v0h1v0v0v0h2q15 -1 34 -3t38.5 -5t37.5 -7t32 -7q8 -2 12 -7t4 -11v0v-1v0v0v-1v0v-1v0v0q0 -12 -6 -20q-3 -3 -5.5 -7t-3.5 -9t-1.5 -10.5t-0.5 -13.5v-202q40 41 88 70q25 14 50 23.5t51 14.5v124q0 19 -15 28
q-17 9 -34 14q-8 2 -11 6t-3 7q0 2 1 4q3 8 11 11t14 3v0h1v0h1v0v0v0h2q15 -1 33.5 -3t38 -5t38 -7t31.5 -7q8 -2 12.5 -7t4.5 -11v0v-1v-1v0v-1q0 -12 -6 -20q-3 -3 -5.5 -7t-3.5 -9q-2 -5 -2 -10v-554q0 -23 -8 -43.5t-22.5 -35.5t-35 -24t-44.5 -9q-12 0 -12 8q0 3 2 7
q12 27 12 75v454q-49 -12 -92 -38q-57 -32 -97 -80v-314q0 -23 -8 -43.5t-22.5 -35.5t-35 -24t-44.5 -9q-12 0 -12 8q0 3 2 7q12 27 12 75v592q0 19 -14 28q-20 10 -35 14z" />
    <glyph glyph-name="I" unicode="I" horiz-adv-x="312" 
d="M74 725q-8 2 -10.5 6t-2.5 7q0 2 1 4q2 8 10.5 11t14.5 3v0h1v0h1v0v0v0h2q15 -1 33.5 -3t38 -5t37.5 -7t32 -7q8 -2 12 -7t5 -11v0v-1v0v-1v0v-1v0v0q0 -13 -7 -20q-6 -6 -9 -16q-1 -5 -1.5 -10.5t-0.5 -13.5v-540q0 -23 -8 -43.5t-22.5 -35.5t-35 -24t-44.5 -9
q-12 0 -12 8q0 3 2 7q12 27 12 75v592q0 20 -14 28q-18 10 -35 14z" />
    <glyph glyph-name="J" unicode="J" horiz-adv-x="455" 
d="M83 684q-7 4 -17 10.5t-18 12.5q-8 8 -8 16t8 8h220q8 1 18 3.5t18 7.5q9 7 19 7q3 0 6 -1q13 -3 26 -8l24 -10q7 -3 7 -11v-1q0 -4 -1.5 -7.5t-3.5 -5.5q-5 -5 -7 -21v-409q0 -15 -8 -34t-18.5 -37.5t-21 -34t-16.5 -22.5q-23 -28 -50 -55t-55.5 -49.5t-58 -38.5
t-57.5 -21h-4q-4 0 -6 2.5t-3 4.5q0 2 0.5 5t5.5 7q25 18 50 44.5t47.5 57t41.5 63t33 62.5q11 27 11 54v433h-111q-13 0 -21 -8q-10 -7 -16 -18q-5 -7 -10.5 -8.5t-8.5 -1.5q-6 0 -15 4z" />
    <glyph glyph-name="K" unicode="K" horiz-adv-x="583" 
d="M75 735q-8 2 -10.5 6.5t-2.5 7.5q0 2 1 4q2 8 10 11t15 3h4q15 -1 33.5 -3.5t38 -5.5t37.5 -6.5t32 -6.5q15 -5 17 -18q0 -17 -7 -24q-3 -3 -5.5 -7t-3.5 -8q-1 -5 -1.5 -11t-0.5 -14v-256q32 40 55.5 80t41.5 76.5t31.5 70t24.5 62.5q2 6 2 11q0 11 -8 18q-4 4 -9 7.5
t-13 7.5q-8 3 -8 9v2q1 6 6 11t15 5q12 0 31.5 -3.5t40 -9t38.5 -10.5t26 -8q7 -3 9 -9t2 -9q0 -6 -4 -11q-16 -17 -28 -42q-4 -8 -11 -18.5t-14.5 -21.5t-15 -21.5t-13.5 -17.5q-32 -50 -64 -88t-61 -66q25 -31 55.5 -73.5t58.5 -86t51 -82.5t33 -64q13 -30 13 -53
q0 -22 -13 -37q-18 -20 -33.5 -22t-20.5 -2q-20 0 -38 11q-26 15 -37 35t-11 38q0 4 1 9q2 12 2 26q0 22 -5 55t-17 76.5t-26.5 84t-27.5 70.5q-18 -17 -33 -28.5t-26 -19.5v-255q0 -48 -30.5 -80t-79.5 -32q-12 0 -12 7q0 3 2 7q12 27 12 76v601q0 20 -14 28q-19 11 -35 14
z" />
    <glyph glyph-name="L" unicode="L" horiz-adv-x="568" 
d="M75 725q-8 2 -10.5 6t-2.5 7q0 2 1 4q2 8 10 11t15 3v0h1v0h1v0v0v0h2q15 -1 33.5 -3t38 -5t37.5 -7t32 -7q15 -5 17 -18v-1v0v0v-1v0v-1v0v0q0 -13 -7 -20q-5 -7 -9 -16q-1 -5 -1.5 -10.5t-0.5 -12.5l1 -623h214q12 0 20 8t18 16q6 4 9.5 5t5.5 1q5 0 10 -2
q11 -4 24 -9.5t22 -11.5q6 -5 6 -13q-1 -3 -4 -6t-5 -3h-323v-1q-4 -6 -26 -10t-57 -4q-23 0 -23 20v661q0 20 -14 29q-18 10 -35 14z" />
    <glyph glyph-name="M" unicode="M" horiz-adv-x="680" 
d="M55 718q-8 2 -10.5 6t-2.5 7q0 2 1 4q2 8 10 11t14 3h4q21 -2 53 -5t57 -13q8 -3 16 -9q39 -32 65.5 -67.5t43.5 -71.5t27.5 -70t17.5 -63q18 80 59 146t95 131q5 7 10 10q3 2 5 3q6 3 11.5 5.5t10.5 2.5q3 0 6 -1q11 -2 29.5 -6.5t32.5 -10.5q8 -4 8 -13t-5 -14
q-6 -7 -7 -8.5t-4 -9.5q-2 -8 -2 -19v-553q0 -23 -8 -43.5t-22.5 -35.5t-35 -24t-44.5 -9q-12 0 -12 8q0 3 2 7q12 27 12 75v496q-20 -11 -37 -25t-32.5 -32.5t-30 -42t-29.5 -54.5q-2 -2 -4.5 -8t-5.5 -6h-2q-4 2 -4 8q-38 78 -73 119.5t-62 60.5v-494q0 -23 -8 -43.5
t-22.5 -35.5t-35 -24t-44.5 -9q-12 0 -12 8q0 3 2 7q12 27 12 75v584q0 20 -14 29q-20 10 -35 14z" />
    <glyph glyph-name="N" unicode="N" horiz-adv-x="569" 
d="M380 91v301q-15 39 -36 71.5t-45 58t-48 45t-45 33.5v-487q0 -48 -30.5 -80t-79.5 -32q-12 0 -12 7q0 3 2 7q12 28 12 76v584q0 20 -14 28q-17 11 -35 14q-8 2 -10.5 6.5t-2.5 7.5q0 2 1 4q2 8 10 11t15 3h4q10 -1 23.5 -2t28.5 -3t30 -5t27 -8q5 -2 8.5 -4.5t7.5 -5.5
q48 -38 81.5 -80t55.5 -84t34 -80t18 -66v233l1 64q0 8 3 14t7 10t10 7q6 4 15 6t15 2h5q11 -2 29.5 -6.5t32.5 -10.5q5 -2 6.5 -5.5t1.5 -8.5q0 -9 -4 -13t-6.5 -8.5t-4.5 -9.5t-2 -18v-554q0 -48 -30.5 -80t-80.5 -32q-6 0 -8.5 2.5t-2.5 5.5t1 6q12 28 12 76z" />
    <glyph glyph-name="O" unicode="O" horiz-adv-x="526" 
d="M110 2q-22 0 -22 20v664q0 14 -7 21q-5 5 -10 6q-8 2 -8 11q0 13 13 14q9 1 24 1t32 -1t34 -2.5t30 -4.5h132q8 0 23 2.5t26 9.5q9 7 19 7q3 0 6 -1q13 -3 27 -7.5t25 -9.5q9 -4 9 -12q0 -7 -6 -13q-12 -11 -12 -36v-619q0 -20 -11 -28.5t-30 -8.5h-212q-5 -6 -26.5 -9.5
t-55.5 -3.5zM195 29h144v688h-144v-688z" />
    <glyph glyph-name="P" unicode="P" 
d="M357 738q6 3 12 5.5t12 2.5h1v0v0v0h1v0h2q11 -2 29.5 -7t32.5 -11q8 -3 8 -13t-5 -13q-6 -8 -10.5 -17.5t-6.5 -17.5q-20 -62 -45 -109t-55 -82t-65 -59t-76 -39q-2 -1 -5 -1v-260q0 -24 -8 -44.5t-22.5 -35.5t-34.5 -23.5t-44 -8.5q-12 0 -12 7q0 3 2 7q12 28 12 76
v591q0 6 -1.5 12t-5.5 10q-3 3 -11 5q-8 3 -8 12q0 13 14 14q9 1 24 1t32 -1t34 -2.5t30 -4.5h93q4 0 11.5 -0.5t12.5 -0.5q6 0 14.5 0.5t19.5 2t18 4.5zM187 396q81 63 114.5 141t34.5 178l-55 2l-94 1v-322z" />
    <glyph glyph-name="Q" unicode="Q" horiz-adv-x="533" 
d="M410 750q13 -3 27.5 -7.5t24.5 -9.5q9 -3 9 -12t-6 -13q-12 -11 -12 -36v-619q0 -20 -11 -28.5t-29 -8.5h-78q-12 0 -22 -7q-8 -7 -15 -17q-7 -9 -19 -9q-7 0 -15 3q-8 4 -17.5 10t-17.5 12t-8 15q0 7 8 7h118v688h-144v-688q0 -16 -17 -21q-21 -6 -68 -6q-21 0 -21 20
v664q0 12 -7 21q-2 2 -5 3.5t-6 2.5q-8 2 -8 11q0 13 14 14q9 1 23.5 1t31.5 -1t34 -2.5t30 -4.5h132q8 0 23.5 2.5t25.5 9.5q9 7 19 7q3 0 6 -1z" />
    <glyph glyph-name="R" unicode="R" 
d="M243 429q24 -28 55.5 -70t62.5 -86t56.5 -85.5t36.5 -68.5q12 -29 12.5 -41t0.5 -13q0 -23 -13 -36q-19 -20 -34.5 -22t-20.5 -2q-20 0 -38 11q-25 16 -36 36t-11 38q0 4 1 9q2 14 2 29q0 25 -6.5 62t-21 82.5t-30.5 86t-28 65.5q-9 -5 -18.5 -8.5t-19.5 -7.5
q-2 -1 -6 -1v-300q0 -23 -8 -43.5t-22 -35.5t-34 -24t-44 -9q-12 0 -12 8q0 3 2 7q12 27 12 75v602q0 12 -7 21q-5 4 -11 5q-8 3 -8 12q0 13 14 14q9 1 24 1t32 -1t34 -2.5t29 -4.5h94q20 0 31 -0.5t13 -0.5q19 0 32 7q5 4 11.5 6t11.5 2h1v0h1v0v0v0h3q11 -2 29.5 -6.5
t32.5 -10.5q8 -4 8 -14q0 -8 -5 -13q-6 -7 -10.5 -17t-6.5 -18q-17 -52 -37.5 -90t-44 -66t-51 -47.5t-58.5 -34.5zM187 426q41 31 68 61.5t43.5 65t25 74.5t13.5 90h-55l-95 1v-292z" />
    <glyph glyph-name="S" unicode="S" horiz-adv-x="513" 
d="M44 280q-5 2 -6.5 5t-1.5 5v1v0v0v0v0v1q2 5 8 7t11 2q9 1 19 1q5 0 16.5 -0.5t29.5 -2t35.5 -5t29.5 -7.5q11 -6 11 -12v0v-1v0v-2q0 -7 -4 -13q-1 0 -1 -0.5t-1 -0.5q-4 -5 -4 -14l-1 -78v-135h143v413h-197q-12 -8 -22 -13.5t-17 -9.5q-9 -4 -15 -7h-1v0v0h-1v0h-1h-1
q-4 0 -5.5 2.5t-2.5 4.5v1v0v1q0 2 0.5 4t5.5 6q28 20 61 52.5t63.5 70t55 75.5t36.5 70q3 6 3 12q0 9 -8 17q-5 4 -10 7.5t-13 7.5q-8 3 -8 12q1 5 6.5 10t15.5 5q11 0 28.5 -3.5t35.5 -9t33.5 -10.5t23.5 -8q6 -2 8.5 -8.5t2.5 -9.5q0 -6 -5 -11q-7 -8 -13.5 -19.5
t-14.5 -22.5q-24 -37 -52 -69t-57 -58.5t-57 -47.5t-52 -37h163q8 0 23 2.5t26 9.5q6 4 10 5.5t8 1.5q3 0 7 -1q13 -3 27 -7.5t25 -9.5q9 -3 9 -12q0 -8 -6 -14q-6 -5 -9 -22t-3 -29v-329q0 -20 -11 -28t-30 -8h-211q-4 -7 -26 -11t-57 -4q-22 0 -22 20v231q0 14 -10 18
q-10 7 -23 9z" />
    <glyph glyph-name="T" unicode="T" horiz-adv-x="591" 
d="M64 686q-8 4 -18 10.5t-17 12.5q-8 8 -8 15q0 8 8 8h423q11 0 19 8t18 16q8 6 16 6q4 0 9 -2q11 -4 24 -9t22 -12q6 -4 6 -13q-2 -8 -9 -8h-203v-603q0 -23 -8 -43.5t-22.5 -35.5t-35 -24t-44.5 -9q-7 0 -9 3t-2 6t1 6q12 27 12 75v625h-111q-5 0 -11 -2.5t-11 -5.5
q-5 -4 -8.5 -8.5t-6.5 -9.5q-5 -8 -10.5 -9t-8.5 -1q-7 0 -15 4z" />
    <glyph glyph-name="U" unicode="U" horiz-adv-x="621" 
d="M542 109q0 -47 -30.5 -71.5t-80.5 -24.5h-215q-4 -6 -26 -10t-56 -4q-23 0 -23 20v657q0 20 -14 28q-19 11 -35 14q-8 2 -10.5 6.5t-2.5 7.5q0 2 1 4q2 8 10 11t14 3h1v0v0h1v0h1h1q15 -1 34 -3.5t38.5 -5.5t37.5 -6.5t32 -6.5q16 -5 16 -18v-1v0v-1v0v0v-1v0v-1
q0 -12 -6 -20q-3 -3 -5.5 -7t-3.5 -8q-1 -5 -1.5 -11t-0.5 -14v-618h202q6 14 9 25t3 34v575q0 28 3 40q2 7 4 11q3 6 6.5 10t6.5 7q4 4 8 6q6 3 11.5 5.5t10.5 2.5q3 0 6 -1q11 -2 29.5 -6.5t32.5 -10.5q5 -2 6.5 -5.5t1.5 -7.5q0 -10 -4 -14q-6 -7 -7.5 -8.5t-3.5 -9.5
t-2 -19v-553z" />
    <glyph glyph-name="V" unicode="V" horiz-adv-x="711" 
d="M547 353q-61 -16 -113 -53q-58 -40 -98 -100l16 -66q4 -15 4 -30q0 -8 -2 -22.5t-12.5 -32.5t-28 -31t-41.5 -19q-4 -1 -7 -1q-6 0 -6 7v1v0v1v0v0v3q1 9 1 20q0 25 -8 56l-142 586q-10 34 -42 42q-8 2 -10.5 6.5t-2.5 7.5q0 2 1 4q2 8 11 11t17 3q15 -1 33 -3.5
t36.5 -5.5t36 -6.5t31.5 -6.5q16 -5 16 -19v0v-1v0v0v-1v0v0v-1v0q0 -12 -6 -20q-8 -7 -8 -17q0 -4 1 -7l107 -437q20 26 43 49.5t51 42.5q3 3 9 7l98 386l4 9q13 28 42 31h9q11 -2 29.5 -6.5t32.5 -10.5q5 -2 6.5 -5.5t2.5 -7.5q0 -9 -5 -14q-6 -7 -13.5 -20.5t-9.5 -23.5z
" />
    <glyph glyph-name="W" unicode="W" horiz-adv-x="933" 
d="M54 715q-8 2 -10.5 6.5t-2.5 7.5q0 2 1 4q2 8 10 11t14 3v0h1v0v0h1v0v0h2q15 -1 33 -3.5t36.5 -5.5t36 -6.5t31.5 -6.5q16 -5 16 -18v-1v-1v0v-1q0 -11 -6 -21q-8 -7 -8 -17q0 -4 1 -7l107 -437q40 55 94 93q4 3 8 5.5t9 5.5l-84 345q-8 34 -42 42q-8 2 -10.5 6.5
t-2.5 7.5q0 2 1 4q2 8 11 11t18 3q29 -2 61.5 -9t59.5 -13q15 -5 17 -19v0v-1v0v0v-1v0v-1v0q0 -13 -7 -20q-8 -8 -8 -18q0 -3 1 -6l37 -133l53 183l4 9q13 28 42 31h9q11 -2 22 -6.5t25 -10.5q5 -2 6.5 -5t2.5 -8q0 -8 -5 -13q-6 -8 -13.5 -21.5t-9.5 -23.5l-85 -323
l33 -119q20 28 43.5 52t51.5 43q3 3 9 7l98 386q2 3 4 9q6 13 17.5 21t25.5 10h9q11 -2 29.5 -6.5t32.5 -10.5q8 -4 8 -13q0 -8 -4 -14q-6 -7 -13.5 -20.5t-9.5 -23.5l-83 -305q-32 -8 -59.5 -21t-54.5 -32q-59 -41 -99 -102l18 -64q4 -15 4 -30q0 -8 -2 -22.5t-12.5 -32.5
t-28.5 -31t-42 -19q-3 -1 -5 -1q-3 0 -6 1.5t-3 6.5q0 2 1 4q2 9 2 19q0 7 -1.5 20.5t-6.5 36.5l-55 225l-12 -9q-29 -20 -53.5 -45.5t-44.5 -54.5l16 -66q4 -15 4 -30q0 -8 -2 -22.5t-12.5 -32.5t-28 -31t-41.5 -19q-3 -1 -6 -1q-7 0 -7 8v1v1v0v0v2v0v1q1 9 1 19
q0 25 -8 57l-142 585q-10 34 -42 42z" />
    <glyph glyph-name="X" unicode="X" horiz-adv-x="640" 
d="M56 730q2 8 10 11t14 3h1h1v0v0h2q15 -1 33 -3t36.5 -5t36 -7t31.5 -7q8 -2 12 -7t4 -11v0v-1v0v0v-1v0v0v-1v0q0 -12 -6 -20q-8 -8 -8 -18q0 -3 1 -6l54 -219q5 -4 11 -5l126 283q4 6 6 8q8 12 19 18t23 6v0h1v0h1v0v0h2v0h1v0v0v0v0h1l5 -1v0v0h1v0v0v0v0h1
q11 -4 28.5 -11t30.5 -15q6 -4 6 -11v0v-1v0v0v0v-2q-1 -4 -2.5 -7.5t-4.5 -5.5q-7 -6 -16 -18.5t-13 -22.5l-126 -282q37 -32 71.5 -69t62.5 -73t47 -67.5t25 -50.5q10 -30 10 -53q0 -22 -10 -37q-7 -10 -20 -16t-22.5 -7t-14.5 -1q-9 0 -20 2t-19 9q-20 15 -28 35t-8 39v1
v1v0v0v2v0v3v0v1q1 8 1 17q0 18 -3.5 44.5t-14 60.5t-27.5 68.5t-41 64.5l-125 -279q-19 -44 -49 -56.5t-50 -12.5q-23 0 -47 11q-6 2 -7 5t-1 4q0 4 5 8q24 22 41 64l147 328q-3 2 -7 3l-12 6q-3 2 -7 3q-21 7 -40 10t-33 3q-9 0 -17 -1l-56 230q-4 15 -15 26.5t-27 15.5
q-8 2 -10.5 6t-2.5 7q0 2 1 4z" />
    <glyph glyph-name="Y" unicode="Y" horiz-adv-x="588" 
d="M543 725q0 -10 -5 -13q-6 -8 -13.5 -21t-9.5 -24l-174 -609q-13 -45 -44 -63.5t-58 -18.5q-17 0 -35 5q-6 2 -7.5 5t-1.5 4q0 4 4 8q18 23 32 69l103 360q-25 11 -49 18q-32 9 -63 12t-63 3l-53 220q-10 34 -42 42q-8 2 -10.5 6.5t-2.5 7.5q0 2 1 4q2 8 11 11t17 3
q15 -1 33 -3.5t36.5 -5.5t36 -6.5t31.5 -6.5q16 -5 16 -19v-1v0v-1v0v-1v0v0q0 -12 -6 -20q-8 -7 -8 -17q0 -4 1 -7l49 -200v0h1v0h1v-1h1v0h1v0h1v0h1v0v-1h1v0h1l5 -1q4 0 8 -2q12 -4 24.5 -8.5t24.5 -9.5l78 274l4 9q6 13 17.5 20.5t25.5 9.5h9q11 -2 29.5 -7t32.5 -11
q8 -3 8 -13z" />
    <glyph glyph-name="Z" unicode="Z" horiz-adv-x="548" 
d="M486 210q10 -3 11 -12q0 -11 -4 -15l-2 -2q-4 -4 -4 -13l-2 -107l1 -29q0 -3 -1 -5q-3 -15 -18 -20q-23 -6 -67 -6q-7 0 -15 4h-248v0v0v0v0h-1l-2 -1v0v0v0v0v0v0h-1q-10 -2 -18 -2.5t-10 -0.5q-12 0 -26 2q-17 2 -20 15v1v0v0v1v0v1v0q0 4 1 8l317 688h-179v-102
q0 -17 -12.5 -30.5t-29.5 -23.5t-36.5 -15t-32.5 -5q-10 0 -10 8q0 2 1 4q6 13 7.5 25.5t1.5 36.5v87q-1 4 -5 10q-3 3 -11 5q-8 4 -8 12q0 12 14 14q5 1 11 1t17 -1t28 -2.5t34 -3.5t30 -5h-1l177 -1q8 2 15 4t12 6q11 7 19 7q3 0 6 -1q13 -3 25.5 -7.5t23.5 -9.5
q9 -4 9 -12v0v0v0v0v0v-1v0l-1 -2v0v0v-1v0q-2 -6 -4 -9l-320 -678q0 -3 -3 -7h223q0 1 -1 1v155q0 13 -9 19q-10 6 -23 9q-5 1 -6.5 4t-1.5 5v0v1v0v1v0v1v0q2 5 8 6.5t11 2.5q9 1 19 1q5 0 16.5 -0.5t29.5 -2t35.5 -5t29.5 -8.5z" />
    <glyph glyph-name="underscore" unicode="_" horiz-adv-x="833" 
d="M480 -125q24 0 38 -8t22 -22.5t10.5 -35t2.5 -44.5q0 -7 -2.5 -10.5t-4.5 -3.5q-3 0 -7 4q-11 11 -22.5 11.5t-33.5 0.5h-315q-48 0 -69.5 30.5t-21.5 79.5q0 7 5 11t7 4q3 0 3 -6q0 -11 18 -11h370z" />
    <glyph glyph-name="grave" unicode="`" horiz-adv-x="281" 
d="M228 538q-34 9 -55 16.5t-43.5 18t-45.5 24.5t-45 32q-7 5 -13 11t-12 9q-5 4 -5 10.5t3 8.5q5 4 13.5 9.5t18 12.5t19.5 12.5t17 7.5q3 1 6 1q2 0 5.5 -1.5t4.5 -4.5q1 -2 1 -4q0 -3 -3 -5q-5 -4 -7 -7t-5 -6q-2 -4 -2 -8q0 -5 5 -11q13 -17 35 -35.5t47.5 -35.5
t52 -30.5t46.5 -20.5q4 -1 5 -2t1 -2v-1v0v0v0v-1q0 -1 -0.5 -3t-5.5 -3q-4 0 -10 1q-5 1 -12 2.5t-16 4.5z" />
    <glyph glyph-name="a" unicode="a" 
d="M101 1q-21 0 -21 20v392q0 12 -7 21q-5 4 -11 5q-8 3 -8 12q0 13 14 14q9 1 23.5 1t31.5 -1t34 -2.5t30 -4.5h132q8 0 23.5 2.5t25.5 9.5q11 7 19 7q3 0 6 -1q13 -3 27.5 -7.5t24.5 -9.5q9 -3 9 -12q0 -8 -6 -14q-6 -5 -9 -14.5t-3 -21.5v-302q0 -24 4.5 -44.5
t10.5 -34.5q2 -4 2 -7q0 -7 -12 -7q-49 0 -79.5 32t-30.5 80v7q-20 -8 -39 -18t-38 -23q-39 -29 -71 -65q0 -1 -0.5 -1t-0.5 -1q-7 -5 -28 -8.5t-53 -3.5zM186 444v-402q26 27 59 51q40 28 86 45l-1 306h-144z" />
    <glyph glyph-name="b" unicode="b" horiz-adv-x="523" 
d="M375 469q9 7 18 7q4 0 7 -1q13 -2 27.5 -7t24.5 -9q9 -5 9 -12q0 -10 -6 -14q-12 -11 -12 -36v-346q0 -20 -11 -28.5t-29 -8.5h-271q-23 -13 -55 -13q-6 0 -8.5 2.5t-2.5 5.5t1 6q12 27 12 76v591q0 21 -14 28q-17 11 -35 14q-8 2 -10.5 6.5t-2.5 7.5q0 2 1 4q3 8 11 11
t14 3v0h1v0h1v0v0v0h2q15 -1 33.5 -3.5t38 -5.5t38 -6.5t31.5 -6.5q15 -5 17 -18v-1v-1v0v-1v0v-2q0 -12 -7 -19q-6 -6 -8 -15q-2 -5 -2 -11v-208h138q8 0 23.5 2t25.5 9zM337 443h-149v-330q0 -26 -9.5 -47.5t-26.5 -37.5h185v415z" />
    <glyph glyph-name="c" unicode="c" horiz-adv-x="478" 
d="M296 287q6 13 7.5 25.5t1.5 37.5v93h-119v-414v0v0v0v0v-1l-1 -2v0v0v0v0v-1v0v0h120q12 0 20 8t18 16q6 4 9.5 5t5.5 1q5 0 10 -2q11 -4 24 -9.5t22 -11.5q6 -5 6 -13q-1 -3 -4 -6t-5 -3h-236q-21 -8 -74 -8q-21 0 -21 20v392q0 12 -7 21q-5 4 -11 5q-8 3 -8 12
q0 13 14 14q5 1 14 1q4 0 14 -0.5t26.5 -1.5t33.5 -2.5t30 -4.5h109q8 0 23 2.5t25 9.5q6 4 10 5.5t8 1.5q3 0 7 -1q13 -3 27 -8t25 -9q9 -3 9 -12q0 -8 -6 -14q-7 -11 -7 -33v-50q0 -17 -12.5 -31t-29.5 -23.5t-36.5 -15t-32.5 -5.5q-10 0 -10 8q0 2 1 4z" />
    <glyph glyph-name="d" unicode="d" 
d="M60 443q-8 3 -8 12q0 13 13 14q9 1 24 1t32 -1t34 -2.5t30 -4.5v-1h145v213q0 21 -14 28q-17 11 -35 14q-8 2 -10.5 6.5t-2.5 7.5q0 2 1 4q2 8 10.5 11t14.5 3v0h1v0h1v0v0h2q15 -1 33.5 -3.5t38 -5.5t37.5 -6.5t32 -6.5q15 -5 17 -18v-1v0v-1v0v-2v-1q0 -12 -7 -19
q-3 -3 -7 -8t-5 -9q-1 -5 -1.5 -10.5t-0.5 -13.5v-591q0 -20 -11 -28.5t-29 -8.5h-212q-5 -6 -26.5 -10t-56.5 -4q-21 0 -21 21v396q0 11 -9 20q-3 3 -10 5zM184 448l1 -419h145v419h-146z" />
    <glyph glyph-name="e" unicode="e" horiz-adv-x="472" 
d="M51 440q-8 3 -8 12q0 13 14 14q5 1 14 1q4 0 14 -0.5t26.5 -1.5t33.5 -2.5t30 -4.5h109q8 0 23 2.5t25 9.5q6 4 10 5.5t8 1.5q3 0 7 -1q13 -3 27 -8t25 -9q9 -3 9 -12q0 -8 -6 -14q-7 -11 -7 -33v-50q0 -16 -10.5 -29t-26 -23t-33.5 -16t-32 -7q-34 -8 -66.5 -22.5
t-58.5 -32.5l-3 -3v-188v0v0v0v0v-1v0l-1 -2v0v0v0v-1v0v0h120q12 0 20 8t18 16q6 4 9.5 5t5.5 1q5 0 10 -2q11 -4 24 -9.5t22 -11.5q6 -5 6 -13q-1 -3 -4 -6t-5 -3h-236q-21 -8 -74 -8q-21 0 -21 20v392q0 12 -7 21q-5 4 -11 5zM175 443v-206q51 34 110 51q6 12 7.5 24.5
t1.5 37.5v93h-119z" />
    <glyph glyph-name="f" unicode="f" horiz-adv-x="370" 
d="M319 736h1v0v0h1v0h1v0q11 0 18.5 -5t7.5 -8t-5 -5q-48 -16 -85 -41q-16 -11 -31 -24.5t-27 -30t-19 -36.5t-7 -44v-13h1v-99h17q11 0 18.5 7.5t18.5 15.5q7 6 15 6q4 0 9 -2q11 -4 23.5 -9t21.5 -11q5 -4 5 -11v0v-1v0v0v0v-1q0 -3 -3 -5.5t-6 -2.5h-119v-319
q0 -46 -30 -77.5t-78 -31.5q-6 0 -8.5 2.5t-2.5 5.5t1 6q12 27 12 73v474q0 32 10.5 57t28 44t40 32.5t46.5 23.5q55 22 125 30z" />
    <glyph glyph-name="g" unicode="g" horiz-adv-x="528" 
d="M453 469q9 -3 9 -11v-1q0 -4 -1.5 -7.5t-3.5 -5.5t-3.5 -11.5t-2.5 -20.5t-1.5 -22t-0.5 -17l1 -329q0 -15 -8 -34t-18.5 -37.5t-21 -34t-16.5 -22.5q-23 -28 -50 -55t-55.5 -49.5t-58 -38.5t-57.5 -21v0h-1v0h-1v0v0h-1v0h-1v0q-4 0 -6 2.5t-3 4.5q0 2 0.5 5t5.5 7
q25 18 50 44.5t47.5 57t41.5 63t33 62.5q11 27 11 54v105q-44 -13 -85 -36q-23 -14 -43.5 -29.5t-37.5 -34.5q-13 -28 -37 -45h-1q-26 -16 -57 -16q-12 0 -12 8q0 3 2 7q12 27 12 75l-4 338q0 5 -1.5 11t-5.5 10q-3 3 -10 5q-8 3 -8 12q0 13 13 14q9 1 23.5 1t31.5 -1
t34 -2.5t30 -4.5h155q9 2 19 4t17 7q9 7 18 7q4 0 7 -1q13 -2 27.5 -7t24.5 -10zM247 135q47 26 94 36v285h-156v-348q0 -5 -0.5 -10t-1.5 -10q29 25 64 47z" />
    <glyph glyph-name="h" unicode="h" horiz-adv-x="511" 
d="M66 707q-17 11 -35 14q-8 2 -10.5 6.5t-2.5 7.5q0 2 1 4q2 8 10 11t15 3h1v0h1v0v0h1h1v0q15 -1 33.5 -3.5t38 -5.5t37.5 -6.5t32 -6.5q15 -5 17 -18q0 -17 -7 -24q-5 -5 -9 -15q-1 -5 -1.5 -11t-0.5 -14v-303q58 16 109 52q26 18 44 36q3 2 11 10t16 18q1 0 1 0.5t1 0.5
q4 4 8 10q5 5 9.5 6t7.5 1q4 0 8 -1q13 -3 27.5 -7.5t24.5 -9.5q9 -3 9 -12q0 -5 -1.5 -8t-3.5 -6q-8 -10 -8 -32v-344q0 -17 -12 -31t-29.5 -23.5t-36.5 -15t-32 -5.5q-11 0 -11 8q0 2 1 5q6 12 8 24.5t2 37.5v352q-15 -14 -35 -27q-56 -39 -118 -55v-227q0 -24 -8 -44.5
t-22.5 -35.5t-35 -24t-44.5 -9q-7 0 -9 3t-2 6t1 6q12 27 12 76v598q0 20 -14 28z" />
    <glyph glyph-name="i" unicode="i" horiz-adv-x="248" 
d="M106 516q-18 0 -31 12.5t-13 31.5v22q0 18 13 31t31 13h22q18 0 31 -13t13 -31v-22q0 -19 -13 -31.5t-31 -12.5h-22zM45 434q0 13 14 14q7 1 18 1t32.5 -1t47.5 -5q9 -2 15 -8.5t6 -15.5l-1 -390q-3 -18 -21 -23q-25 -5 -64 -5q-21 0 -21 20v375q0 12 -7 21q-5 4 -11 5
q-8 3 -8 12z" />
    <glyph glyph-name="j" unicode="j" horiz-adv-x="283" 
d="M170 625q18 0 31 -13t13 -31v-22q0 -18 -13 -31t-31 -13h-22q-19 0 -31.5 13t-12.5 31v22q0 18 12.5 31t31.5 13h22zM-86 -248q0 2 0.5 5t5.5 7q25 18 50 44.5t47.5 57t41.5 63t33 62.5q11 27 11 54v335q0 20 -14 28q-8 5 -17 8.5t-18 5.5q-8 2 -10.5 6t-2.5 7q0 2 1 4
q3 8 11 11t14 3v0h1v0v0h1v0h1h1q15 -1 33.5 -3t38 -5t38 -7t31.5 -7q8 -2 12 -7t5 -11v0v-1v0v0v0v-1v0v-1v0q0 -13 -7 -20q-6 -6 -8 -16q-2 -5 -2 -10v-327q0 -15 -8 -34t-18.5 -37.5t-21 -34t-16.5 -22.5q-23 -28 -50 -55t-55.5 -49.5t-58 -38.5t-57.5 -21h-1v0v0h-1v0v0
h-1v0h-1q-5 0 -6.5 2.5t-2.5 4.5z" />
    <glyph glyph-name="k" unicode="k" horiz-adv-x="480" 
d="M255 274l50 -46q25 -23 46.5 -44t39 -40t28.5 -32q20 -25 24.5 -40t4.5 -23q0 -10 -5 -18q-11 -20 -29 -27t-30 -7q-11 0 -23 4q-28 11 -41.5 28.5t-18.5 44.5q-3 16 -8.5 39.5t-13.5 49t-19 51t-25 47.5q-12 -8 -23.5 -15t-22.5 -14v-124q0 -23 -8 -43.5t-22.5 -35.5
t-35 -24t-44.5 -9q-12 0 -12 8q0 3 2 7q12 27 12 75v592q0 19 -14 28q-20 10 -35 14q-8 2 -10.5 6t-2.5 7q0 2 1 4q2 8 10 11t14 3h1v0v0v0h1v0h1h1q15 -1 34 -3t38.5 -5t37.5 -7t32 -7q8 -2 12 -7t4 -11v-1v0v0v-1v0v-1q0 -12 -6 -20q-3 -3 -5.5 -7t-3.5 -9t-1.5 -10.5
t-0.5 -13.5v-371l1 1v0l1 1v0l9 10q29 32 52.5 65.5t39.5 65.5q4 8 4 14q0 9 -6 16q-4 4 -8.5 8t-12.5 9q-7 2 -7 9v1v0v0v2q2 6 6.5 10t10.5 4q3 0 6 -1q12 -1 29.5 -6.5t36 -12.5t34 -13.5t23.5 -10.5q6 -4 7.5 -9.5t1.5 -7.5q0 -7 -6 -12q-8 -8 -15.5 -19t-16.5 -21
q-29 -30 -60.5 -56.5t-63.5 -49.5z" />
    <glyph glyph-name="l" unicode="l" horiz-adv-x="245" 
d="M92 1q-21 0 -21 20v675q0 13 -7 22q-5 4 -11 5q-8 3 -8 12q0 13 14 14h1h2v0h1h1h1v0h6h1h1q12 0 35 -1t49 -4q9 -2 15 -8.5t6 -15.5l-1 -691q-3 -18 -21 -23q-25 -5 -64 -5z" />
    <glyph glyph-name="m" unicode="m" horiz-adv-x="716" 
d="M284 386q-22 -15 -45 -26.5t-48 -20.5v-224q0 -47 -30.5 -79.5t-80.5 -32.5q-6 0 -8.5 2.5t-2.5 6.5q0 2 1 6q12 27 12 75v326q0 21 -14 28q-17 11 -35 14q-8 2 -10.5 6.5t-2.5 7.5q0 2 1 4q3 8 11 11t14 3h1v0v0h1v0v0h1h1q15 -1 33.5 -3.5t38 -5.5t38 -6.5t31.5 -6.5
q15 -5 17 -18v0v-1v-1v0v-1v0q0 -12 -7 -21q-6 -6 -8 -15q-2 -5 -2 -11v-47q44 17 83 44q12 8 23 16.5t22 18.5q2 3 10 11l17 17q0 1 0.5 1t0.5 1l1 1v0l7 8v0l1 1q6 7 17 7q4 0 8 -1q13 -3 27 -8t25 -9q9 -4 9 -12t-6 -14q-7 -8 -7 -33v-49q23 8 43.5 19t41.5 25
q12 8 23 16.5t21 18.5l11 11q8 8 16 17l2 2q4 4 8 10q5 5 9.5 6t7.5 1q4 0 8 -1q13 -3 27.5 -8t24.5 -9q9 -3 9 -12q0 -5 -1.5 -8.5t-3.5 -5.5q-8 -10 -8 -33v-332q0 -17 -12 -31t-29.5 -23.5t-36.5 -15t-32 -5.5q-11 0 -11 8q0 2 1 4q6 13 8 25.5t2 37.5v341
q-8 -8 -17 -14.5t-18 -13.5q-44 -30 -94 -47v-266q0 -17 -12.5 -31t-29.5 -23.5t-36.5 -15t-32.5 -5.5q-10 0 -10 7q0 2 1 5q5 13 7 25.5t2 37.5v341q-16 -14 -34 -28z" />
    <glyph glyph-name="n" unicode="n" horiz-adv-x="511" 
d="M187 349q30 8 56 21t52 31q12 8 23 16.5t22 18.5q2 3 10 11l17 17q0 1 0.5 1t0.5 1l1 1v0l8 9q6 7 17 7q4 0 8 -1q13 -3 27 -8t25 -9q9 -4 9 -12t-6 -14q-7 -8 -7 -33v-332q0 -17 -12.5 -31t-29.5 -23.5t-36.5 -15t-32.5 -5.5q-10 0 -10 7q0 2 1 5q6 13 7.5 25.5
t1.5 37.5v341q-16 -14 -34 -28q-27 -19 -56.5 -32.5t-61.5 -22.5v-216q0 -23 -8 -43.5t-22.5 -35.5t-35 -24t-44.5 -9q-12 0 -12 8q0 3 2 7q12 27 12 75v326q0 20 -14 28q-19 11 -35 14q-8 2 -10.5 6.5t-2.5 7.5q0 2 1 4q2 8 10 11t14 3v0h1v0h1v0h1h1q15 -1 34 -3.5
t38.5 -5.5t37.5 -6.5t32 -6.5q16 -5 16 -18v-1v0v-1v0v0v-2q0 -12 -6 -20q-3 -3 -5.5 -7t-3.5 -8q-1 -5 -1.5 -11t-0.5 -14v-41z" />
    <glyph glyph-name="o" unicode="o" horiz-adv-x="500" 
d="M367 471q6 4 10.5 5.5t8.5 1.5q3 0 7 -1q12 -3 26.5 -7.5t24.5 -9.5q9 -3 9 -12q0 -8 -6 -14q-6 -5 -9 -14.5t-3 -21.5v-346q0 -20 -11 -28t-29 -8h-213q-4 -7 -26 -10.5t-56 -3.5q-21 0 -21 20v392q0 5 -1.5 11t-5.5 10q-3 3 -11 5q-8 3 -8 12q0 12 14 14q9 1 23.5 1
t31.5 -1t34 -2.5t30 -4.5h133q8 0 23 2.5t25 9.5zM330 445h-145v-415h145v415z" />
    <glyph glyph-name="p" unicode="p" horiz-adv-x="503" 
d="M455 422q-6 -7 -8.5 -17t-4.5 -17q0 -65 -24 -126t-60.5 -112t-81 -88t-85.5 -52q-2 -1 -5 -1v-172q0 -23 -8 -43.5t-22.5 -35.5t-34.5 -24t-44 -9q-12 0 -12 8q0 3 2 7q12 27 12 75v592q0 5 -1.5 11t-5.5 10q-2 2 -5 3t-6 3q-8 2 -8 11q0 12 14 14q9 1 24 1t32 -1
t34 -2.5t30 -4.5h93q4 0 11.5 -0.5t12.5 -0.5q6 0 14.5 0.5t19.5 2t18 5.5q6 3 11.5 5.5t10.5 2.5q3 0 6 -1q6 -1 14.5 -2.5t18 -4t18.5 -5t16 -5.5q8 -4 8 -13q0 -8 -4 -14zM186 28q41 31 73 74.5t54.5 96t34.5 112.5t12 125l-80 2h-94v-410z" />
    <glyph glyph-name="q" unicode="q" horiz-adv-x="528" 
d="M461 454q0 -7 -5 -14q-2 -2 -3.5 -9t-2.5 -16t-1.5 -17.5t-0.5 -14.5h1v-558q0 -23 -8 -43.5t-22.5 -35.5t-35 -24t-44.5 -9q-7 0 -9.5 2.5t-2.5 6.5q0 2 1 6q13 29 13 75v384q-52 -12 -101 -40q-15 -8 -29 -18.5t-27 -21.5q-2 -45 -29.5 -75.5t-75.5 -30.5q-12 0 -12 7
q0 3 2 7q12 28 12 76l-3 330q0 12 -7 21q-5 4 -11 5q-8 3 -8 12q0 13 14 14q8 1 23 1t31.5 -1t33.5 -2.5t30 -4.5h155q9 1 19 3.5t18 7.5q9 7 19 7q3 0 6 -1q13 -3 27 -7.5t25 -9.5q8 -3 8 -12zM341 452h-157v-324q22 18 48 33q51 29 109 40v251z" />
    <glyph glyph-name="r" unicode="r" horiz-adv-x="483" 
d="M434 458q0 -5 -1.5 -8.5t-3.5 -5.5q-8 -10 -8 -33v-50q0 -17 -12 -31t-29.5 -23.5t-36.5 -15t-32 -5.5q-11 0 -11 8q0 2 1 4q6 13 8 25.5t2 37.5v93h-106v-3v-1v0v0v-1v0v-2q0 -12 -6 -20q-3 -3 -5.5 -7t-3.5 -8q-2 -5 -2 -11v-288q0 -23 -8 -43.5t-22.5 -35.5t-35 -24
t-44.5 -9q-7 0 -9.5 2.5t-2.5 6.5q0 2 1 6q13 26 13 75v326q0 20 -15 28q-17 11 -34 14q-8 2 -11 6.5t-3 7.5q0 2 1 4q3 8 11 11t14 3h1v0v0h1v0h2q15 -1 33.5 -3.5t38 -5.5t37.5 -6.5t32 -6.5h112q8 0 23 2.5t25 9.5q11 7 19 7q3 0 6 -1q13 -3 27.5 -8t24.5 -9q9 -3 9 -12z
" />
    <glyph glyph-name="s" unicode="s" horiz-adv-x="508" 
d="M59 448q-9 2 -9 11q0 12 14 14q9 1 24 1t32 -1t34 -2.5t30 -4.5h132q8 0 23 2.5t26 9.5q9 7 19 7q3 0 6 -1q13 -3 27 -7.5t25 -9.5q8 -3 8 -12q0 -8 -5 -13q-7 -8 -7 -33v-4q0 -17 -12.5 -31t-29.5 -23.5t-36.5 -15t-32.5 -5.5q-7 0 -8.5 3t-1.5 5q0 3 1 5q5 12 7 24.5
t2 37.5v47h-144l1 -172l-2 -14q-5 -7 -27 -10.5t-56 -3.5q-21 0 -21 20l-2 149q0 14 -7 21q-4 4 -10 6zM46 178q-8 3 -8 9v1v1v0v1v0q2 5 8 6.5t11 2.5q9 1 19 1q5 0 16.5 -0.5t29.5 -2t35.5 -5t29.5 -8.5q11 -4 11 -12v0v-1v0v0v0v-2q0 -6 -4 -12q-1 -1 -2 -1q-4 -5 -4 -14
l-1 -89v-31h143v243h-148l2 14h135q8 0 23.5 2.5t25.5 9.5q6 5 10 6t7 1t8 -1q13 -2 27 -7t25 -10q9 -3 9 -12t-6 -13q-12 -11 -12 -36v-175q0 -20 -11 -28.5t-30 -8.5h-216q-8 -2 -28.5 -4t-49.5 -2q-22 0 -22 12v137q0 13 -10 19t-23 9z" />
    <glyph glyph-name="t" unicode="t" horiz-adv-x="315" 
d="M301 447q6 -4 6 -13q-1 -2 -4 -5t-5 -3h-125l-2 -320q0 -46 -27 -78t-75 -32q-12 0 -12 8q0 3 2 7q12 25 12 73v330q-8 0 -17 3q-7 4 -17 10.5t-17 12.5q-8 6 -8 15q0 7 8 7h37q1 1 2 1q3 0 5 1q19 5 36 16q14 10 29 27t23 44q2 5 7 5q2 0 8.5 -2.5t6.5 -11.5v-101
q11 0 23 7.5t22 15.5q5 4 13 4.5t12 0.5q7 0 12 -1q11 -4 23.5 -9.5t21.5 -11.5z" />
    <glyph glyph-name="u" unicode="u" horiz-adv-x="503" 
d="M427 51q0 -20 -11 -28t-29 -8h-213q-4 -7 -26 -10.5t-56 -3.5q-21 0 -21 20v392q0 12 -7 21q-5 4 -11 5q-8 3 -8 12q0 13 14 14q9 1 23 1q7 0 24.5 -0.5t42.5 -3.5q12 -2 20 -10.5t8 -20.5v-402h144v406q0 10 6 17.5t15 9.5q8 3 17 8q11 7 19 7q3 0 6 -1q13 -3 27.5 -7.5
t24.5 -9.5q9 -3 9 -12q0 -8 -6 -14q-6 -5 -9 -14.5t-3 -21.5v-346z" />
    <glyph glyph-name="v" unicode="v" horiz-adv-x="508" 
d="M69 11q12 27 12 75v326q0 20 -14 28q-17 11 -35 14q-8 2 -10.5 6.5t-2.5 7.5q0 2 1 4q2 8 10 11t15 3v0h1v0v0h1v0h1h1v0q15 -1 33.5 -3.5t38 -5.5t37.5 -6.5t32 -6.5q15 -5 17 -18v-1v-1v0v-1v0v-1v-1q0 -12 -7 -19q-5 -5 -9 -15q-1 -5 -1.5 -11t-0.5 -14v-274
q0 -17 -5 -37q3 3 9 7q26 19 55.5 32.5t61.5 22.5q5 11 6.5 23.5t1.5 35.5v227q0 19 12 31q13 13 25 28q5 5 9.5 6t7.5 1q4 0 8 -1q13 -3 27.5 -8t24.5 -9q9 -3 9 -12v-1q0 -4 -1.5 -7.5t-3.5 -5.5q-8 -10 -8 -33v-216q0 -17 -12 -30.5t-29.5 -23.5t-36.5 -15t-32 -5h-3
q-34 -9 -60.5 -22t-52.5 -31q-11 -8 -20.5 -16t-19.5 -16q-14 -17 -35.5 -27t-47.5 -10q-12 0 -12 8q0 3 2 7z" />
    <glyph glyph-name="w" unicode="w" horiz-adv-x="718" 
d="M638 190q0 -15 -10 -27.5t-24.5 -22t-31.5 -15.5t-32 -8v-1q-34 -9 -60.5 -22t-52.5 -31q-11 -8 -20.5 -16t-19.5 -16q-14 -17 -35.5 -27t-47.5 -10q-12 0 -12 8q0 3 2 7q12 27 12 75v30q-32 -9 -56.5 -21.5t-49.5 -29.5q-11 -8 -20.5 -16t-19.5 -16q-14 -17 -35.5 -27
t-47.5 -10q-12 0 -12 8q0 3 2 7q12 27 12 75v326q0 20 -14 28q-19 11 -35 14q-8 2 -10.5 6.5t-2.5 7.5q0 2 1 4q2 8 10 11t15 3h1h1v0v0h1h1q15 -1 33.5 -3.5t38 -5.5t37.5 -6.5t32 -6.5q15 -5 17 -18q0 -17 -7 -24q-5 -5 -9 -15q-1 -5 -1.5 -11t-0.5 -14v-274q0 -17 -5 -37
q3 3 9 7q52 37 115 54v280q0 20 -14 28q-17 11 -35 14q-8 2 -10.5 6.5t-2.5 7.5q0 2 1 4q2 8 10 11t15 3h1h1v0v0h1h1q15 -1 33.5 -3.5t38 -5.5t37.5 -6.5t32 -6.5q15 -5 17 -18q0 -17 -7 -24q-5 -5 -9 -15q-1 -5 -1.5 -11t-0.5 -14v-274q0 -17 -5 -37q3 3 9 7q48 33 100 50
v2q6 13 8 25.5t2 36.5v227q0 19 12 31q13 13 25 28q5 5 9.5 6t7.5 1q4 0 8 -1q13 -3 27.5 -8t24.5 -9q9 -3 9 -12v-1q0 -4 -1.5 -7.5t-3.5 -5.5q-8 -10 -8 -33v-216z" />
    <glyph glyph-name="x" unicode="x" horiz-adv-x="525" 
d="M483 101q10 -31 10 -53q0 -23 -10 -37q-7 -10 -17 -16t-18 -7t-12 -1q-7 0 -16 2t-18 9q-19 15 -27.5 35t-8.5 39v1v0v1v0v1v1v0v4q1 8 1 17q0 13 -2.5 30.5t-9 39.5t-14.5 42t-15 37l-1 1l-109 -198q-9 -18 -24.5 -31t-35 -20t-42 -7t-44.5 10q-6 2 -6.5 5t-0.5 4
q0 4 4 8q11 11 21.5 25.5t20.5 28.5l124 219q-13 5 -27.5 6t-28.5 1q-16 0 -31 -2l-39 110q-4 16 -15 27t-26 15h-1q-8 2 -10.5 6.5t-2.5 7.5q0 2 1 4q3 8 12 11t17 3q29 -2 61.5 -9t59.5 -13q15 -5 17 -18q0 -17 -7 -24q-5 -5 -6.5 -7t-1.5 -4t1 -6l33 -98l77 136
q9 17 18 26t17 13q7 3 14 3v0h1v0v0v0v0h2q3 0 9 -2q11 -3 28 -10t30 -15q6 -4 6 -11v0v0v-1v0v-1v-1q0 -9 -6 -13q-3 -3 -6.5 -5t-8 -6.5t-10.5 -13.5t-14 -25l-66 -121q60 -34 100 -72.5t53 -80.5z" />
    <glyph glyph-name="y" unicode="y" horiz-adv-x="505" 
d="M161 36q-15 -17 -36 -27t-47 -10q-12 0 -12 8q0 3 2 7q12 27 12 75v321q0 20 -14 28q-19 11 -35 14q-8 2 -10.5 6.5t-2.5 7.5q0 2 1 4q2 8 10 11t14 3h1h1v0v0h1h1q15 -1 34 -3.5t38.5 -5.5t37.5 -6.5t32 -6.5q16 -5 16 -18v-1v0v0v-1v0v-1q0 -11 -6 -21q-3 -3 -5.5 -7
t-3.5 -8q-1 -5 -1.5 -11t-0.5 -14v-269q0 -19 -6 -37q3 3 9 7q53 37 117 55q5 11 6.5 23.5t1.5 35.5v222q0 17 12 31l13 13q7 7 13 15q6 7 17 7q4 0 8 -1q13 -3 27 -8t25 -9q8 -3 8 -12t-5 -14q-7 -8 -7 -33l-1 -216v-223q0 -15 -8 -34t-18.5 -37.5t-21 -34t-16.5 -22.5
q-23 -28 -50 -55t-55.5 -49.5t-58 -38.5t-57.5 -21h-1v0h-3q-4 0 -6 2.5t-3 4.5q0 2 0.5 5t5.5 7q25 18 49.5 44.5t46.5 57t41 63t33 62.5q5 13 7 27.5t2 31.5l3 133v8q-35 -9 -62.5 -22t-53.5 -31l-20 -16q-10 -8 -19 -16z" />
    <glyph glyph-name="z" unicode="z" horiz-adv-x="499" 
d="M296 -240v2v1v0v1v1v0v5q0 47 -9 105t-27.5 114t-46 101t-60.5 64q-4 2 -4 5q0 2 2 4q1 3 4 3q33 25 59 53.5t46 62.5t35.5 75t26.5 91h-163v-101q0 -17 -12 -31t-29.5 -23.5t-36.5 -15t-32 -5.5q-10 0 -10 7q0 2 1 5q5 13 7 25.5t2 37.5v86q-1 5 -6 10q-3 3 -10 5
q-8 3 -8 12q0 13 13 14q5 1 11 1t17 -1t28 -2.5t34 -3.5t30 -5l154 -1q19 0 30 8q5 4 11.5 6t11.5 2h1v0h1v0h1v0h1h1v0q11 -2 29 -6.5t32 -10.5q8 -4 8 -13t-5 -14q-1 -1 -2 -3l-2 -3q0 -1 -2 -3q-14 -24 -31 -56t-34 -54q-17 -20 -38.5 -42.5t-46.5 -43.5t-52.5 -39
t-55.5 -29q52 -24 91 -58.5t66.5 -73.5t46 -79.5t30.5 -77.5t20 -68t14 -50q4 -10 4 -20q0 -6 -2.5 -17t-12 -23t-22 -17.5t-23.5 -5.5q-6 0 -11 1h-4q-1 0 -2 1h-2q-1 0 -2 1q-29 7 -47 31.5t-18 54.5z" />
    <glyph glyph-name="braceleft" unicode="{" horiz-adv-x="230" 
d="M179 721q-11 0 -11 -18v-244q0 -29 -11.5 -44t-32.5 -22q21 -6 32.5 -21t11.5 -44v-296q0 -18 11 -18q6 0 6 -4q0 -1 -2 -5.5t-13 -4.5q-49 0 -79.5 21.5t-30.5 68.5v241q0 22 -0.5 33.5t-11.5 22.5q-4 3 -4 6q0 4 4 7q11 11 11.5 22.5t0.5 33.5v189q0 47 30.5 68.5
t79.5 21.5q11 0 13 -4.5t2 -5.5q0 -4 -6 -4z" />
    <glyph glyph-name="braceright" unicode="}" horiz-adv-x="215" 
d="M173 400q4 -3 4 -7q0 -3 -4 -6q-11 -11 -11.5 -22.5t-0.5 -33.5v-241q0 -47 -30.5 -68.5t-79.5 -21.5q-11 0 -13 4.5t-2 5.5q0 4 6 4q11 0 11 18v296q0 29 11.5 44t32.5 21q-21 7 -32.5 22t-11.5 44v244q0 18 -11 18q-6 0 -6 4q0 1 2 5.5t13 4.5q49 0 79.5 -21.5
t30.5 -68.5v-189q0 -22 0.5 -33.5t11.5 -22.5z" />
    <glyph glyph-name="copyright" unicode="&#xa9;" horiz-adv-x="833" 
 />
    <glyph glyph-name="acute" unicode="&#xb4;" horiz-adv-x="255" 
d="M40 538q-9 -3 -16 -4.5t-12 -2.5q-6 -1 -10 -1q-5 1 -5.5 3t-0.5 3v0v1v0v0v0v0v1q0 1 1 2t5 2q20 7 46.5 20.5t52 30.5t47.5 35.5t35 35.5q5 6 5 11q0 4 -2 8q-3 3 -5 6t-6 7q-4 2 -4 6q0 1 1 3q2 3 5 4.5t6 1.5q2 0 5 -1q7 -2 17 -7.5t19.5 -12.5t18 -12.5t13.5 -9.5
q3 -2 3.5 -5.5l0.5 -3.5q0 -6 -6 -10q-6 -3 -12 -9t-13 -11q-22 -18 -45 -32t-45.5 -24.5t-43.5 -18t-55 -16.5z" />
    <glyph glyph-name="Agrave" unicode="&#xc0;" horiz-adv-x="523" 
d="M62 714q-8 2 -8 11q0 13 13 14q9 1 24 1t32 -1t34 -2.5t30 -4.5h163q8 2 16.5 4t14.5 7q9 7 19 7q3 0 6 -1q13 -3 27 -8t25 -9q8 -3 8 -12v-1q0 -8 -5 -13q-8 -10 -8 -33v-598q0 -17 -12 -31t-29.5 -23.5t-36.5 -15t-32 -5.5q-10 0 -10 7q0 2 1 5q5 13 7 25.5t2 37.5v470
q-39 -12 -75 -33q-23 -13 -43 -29t-38 -35l-1 -336q0 -23 -8 -43.5t-22 -35.5t-34.5 -24t-44.5 -9q-6 0 -8.5 2.5t-2.5 6.5q0 2 1 6q12 27 12 75v597q0 14 -7 21q-5 5 -10 6zM187 471q17 16 35 30t38 25q40 24 83 34v157h-156v-246zM315 788q-34 9 -55 16.5t-43.5 18
t-45.5 24.5t-45 32q-7 5 -13 11t-12 9q-5 4 -5 10.5t3 8.5q5 4 13.5 9.5t18 12.5t19.5 12.5t17 7.5q3 1 6 1q2 0 5.5 -1.5t4.5 -4.5q1 -2 1 -4q0 -3 -3 -5q-5 -4 -7 -7t-5 -6q-2 -4 -2 -8q0 -5 5 -11q13 -17 35 -35.5t47.5 -35.5t52 -30.5t46.5 -20.5q4 -1 5 -2t1 -2v-1v0v0
v0v-1q0 -1 -0.5 -3t-5.5 -3q-4 0 -10 1q-5 1 -12 2.5t-16 4.5z" />
    <glyph glyph-name="Aacute" unicode="&#xc1;" horiz-adv-x="523" 
d="M62 714q-8 2 -8 11q0 13 13 14q9 1 24 1t32 -1t34 -2.5t30 -4.5h163q8 2 16.5 4t14.5 7q9 7 19 7q3 0 6 -1q13 -3 27 -8t25 -9q8 -3 8 -12v-1q0 -8 -5 -13q-8 -10 -8 -33v-598q0 -17 -12 -31t-29.5 -23.5t-36.5 -15t-32 -5.5q-10 0 -10 7q0 2 1 5q5 13 7 25.5t2 37.5v470
q-39 -12 -75 -33q-23 -13 -43 -29t-38 -35l-1 -336q0 -23 -8 -43.5t-22 -35.5t-34.5 -24t-44.5 -9q-6 0 -8.5 2.5t-2.5 6.5q0 2 1 6q12 27 12 75v597q0 14 -7 21q-5 5 -10 6zM187 471q17 16 35 30t38 25q40 24 83 34v157h-156v-246zM217 786q-9 -3 -16 -4.5t-12 -2.5
q-6 -1 -10 -1q-5 1 -5.5 3t-0.5 3v0v1v0v0v0v0v1q0 1 1 2t5 2q20 7 46.5 20.5t52 30.5t47.5 35.5t35 35.5q5 6 5 11q0 4 -2 8q-3 3 -5 6t-6 7q-4 2 -4 6q0 1 1 3q2 3 5 4.5t6 1.5q2 0 5 -1q7 -2 17 -7.5t19.5 -12.5t18 -12.5t13.5 -9.5q3 -2 3.5 -5.5l0.5 -3.5q0 -6 -6 -10
q-6 -3 -12 -9t-13 -11q-22 -18 -45 -32t-45.5 -24.5t-43.5 -18t-55 -16.5z" />
    <glyph glyph-name="Acircumflex" unicode="&#xc2;" horiz-adv-x="523" 
d="M62 714q-8 2 -8 11q0 13 13 14q9 1 24 1t32 -1t34 -2.5t30 -4.5h163q8 2 16.5 4t14.5 7q9 7 19 7q3 0 6 -1q13 -3 27 -8t25 -9q8 -3 8 -12v-1q0 -8 -5 -13q-8 -10 -8 -33v-598q0 -17 -12 -31t-29.5 -23.5t-36.5 -15t-32 -5.5q-10 0 -10 7q0 2 1 5q5 13 7 25.5t2 37.5v470
q-39 -12 -75 -33q-23 -13 -43 -29t-38 -35l-1 -336q0 -23 -8 -43.5t-22 -35.5t-34.5 -24t-44.5 -9q-6 0 -8.5 2.5t-2.5 6.5q0 2 1 6q12 27 12 75v597q0 14 -7 21q-5 5 -10 6zM187 471q17 16 35 30t38 25q40 24 83 34v157h-156v-246zM142 789q-9 -4 -15.5 -6.5t-11.5 -4.5
q-6 -1 -10 -3q-5 1 -6 3t-1 3v0v1t0.5 2.5t4.5 3.5q19 10 43 27.5t46.5 38t41.5 42t30 40.5q3 5 3 9q0 5 -4 10v0l-1 1v0l-3 3l-1 1v1q-3 2 -8 5q-4 3 -4 7v1v0v0v0v0v1v0q1 3 4.5 5t7.5 2h1v0v0h1v0h1h1q6 -1 17 -5t21.5 -9t20 -9.5t14.5 -7.5q3 -2 4 -5.5t1 -5.5
q0 -4 -4 -8q-5 -4 -10.5 -10.5t-11.5 -12.5q-5 -7 -11 -12q6 -7 13 -14q20 -21 44 -40t49 -35t45 -25q3 -2 4 -3.5t1 -3.5q0 -1 -1 -3t-6 -2q-4 1 -10 2q-5 2 -12 4t-15 5q-33 13 -53.5 22.5t-41.5 22t-43 28.5v0l-1 1v0l-1 1v0h-1v0l-1 1v0l-1 1v0l-1 1v0l-1 1v0h-1v1h-1v0
l-1 1q-17 -13 -33 -24q-21 -14 -40.5 -24.5t-51.5 -25.5z" />
    <glyph glyph-name="Atilde" unicode="&#xc3;" horiz-adv-x="523" 
d="M62 714q-8 2 -8 11q0 13 13 14q9 1 24 1t32 -1t34 -2.5t30 -4.5h163q8 2 16.5 4t14.5 7q9 7 19 7q3 0 6 -1q13 -3 27 -8t25 -9q8 -3 8 -12v-1q0 -8 -5 -13q-8 -10 -8 -33v-598q0 -17 -12 -31t-29.5 -23.5t-36.5 -15t-32 -5.5q-10 0 -10 7q0 2 1 5q5 13 7 25.5t2 37.5v470
q-39 -12 -75 -33q-23 -13 -43 -29t-38 -35l-1 -336q0 -23 -8 -43.5t-22 -35.5t-34.5 -24t-44.5 -9q-6 0 -8.5 2.5t-2.5 6.5q0 2 1 6q12 27 12 75v597q0 14 -7 21q-5 5 -10 6zM187 471q17 16 35 30t38 25q40 24 83 34v157h-156v-246zM239 820q-10 7 -15 10t-7 5q-13 9 -26 9
q-21 0 -42 -16.5t-32 -33.5q-9 -16 -12 -16.5l-3 -0.5q-4 0 -6 3q-2 2 -2 5q0 1 0.5 3l2.5 10q5 17 14.5 33.5t23 29.5t30 21.5t35.5 8.5t34 -9q4 -2 8.5 -4.5t15.5 -8.5q10 -7 18 -12.5t13 -8.5q19 -13 32 -13q21 0 42 16.5t32 33.5q9 16 14 16t7 -2t2 -5q0 -1 -0.5 -3.5
t-2.5 -9.5q-4 -16 -14 -32.5t-23.5 -30t-30 -22t-34.5 -8.5q-21 0 -45 15q-4 2 -11 6.5t-18 10.5z" />
    <glyph glyph-name="Egrave" unicode="&#xc8;" horiz-adv-x="508" 
d="M62 713q-8 3 -8 12q0 13 14 14h23q15 0 32.5 -0.5t34.5 -2t29 -4.5h133q8 0 23 2.5t25 9.5q11 7 19 7q3 0 6 -1q13 -3 27.5 -8t24.5 -9q9 -3 9 -12h-1l1 -1q0 -4 -1.5 -7.5t-3.5 -5.5q-8 -10 -8 -33v-51q0 -17 -12.5 -30.5t-29.5 -23.5t-36.5 -15t-32.5 -5q-10 0 -10 8
q0 2 1 4q6 13 7.5 25.5t1.5 36.5v94h-144v-272h31q12 0 20 7.5t18 15.5q8 6 16 6q4 0 9 -2q11 -4 24 -9t22 -12q6 -4 6 -13q-2 -8 -9 -8h-137v-400l143 -1v224q0 13 -9 19q-10 6 -23 9q-5 1 -6.5 4t-1.5 5v0v0v1v0v1q2 5 8 7t11 3q9 1 19 1q5 0 16.5 -0.5t29.5 -2t35.5 -5
t29.5 -8.5q11 -4 11 -12q0 -11 -4 -15t-6 -11q0 -2 -0.5 -10.5t-1 -18.5t-0.5 -19v-134q0 -32 -8.5 -42t-40.5 -10h-21l-183 1q-5 -7 -27 -10.5t-56 -3.5q-21 0 -21 20v664q0 14 -8 22q-3 3 -10 5zM315 788q-34 9 -55 16.5t-43.5 18t-45.5 24.5t-45 32q-7 5 -13 11t-12 9
q-5 4 -5 10.5t3 8.5q5 4 13.5 9.5t18 12.5t19.5 12.5t17 7.5q3 1 6 1q2 0 5.5 -1.5t4.5 -4.5q1 -2 1 -4q0 -3 -3 -5q-5 -4 -7 -7t-5 -6q-2 -4 -2 -8q0 -5 5 -11q13 -17 35 -35.5t47.5 -35.5t52 -30.5t46.5 -20.5q4 -1 5 -2t1 -2v-1v0v0v0v-1q0 -1 -0.5 -3t-5.5 -3
q-4 0 -10 1q-5 1 -12 2.5t-16 4.5z" />
    <glyph glyph-name="Eacute" unicode="&#xc9;" horiz-adv-x="508" 
d="M62 713q-8 3 -8 12q0 13 14 14h23q15 0 32.5 -0.5t34.5 -2t29 -4.5h133q8 0 23 2.5t25 9.5q11 7 19 7q3 0 6 -1q13 -3 27.5 -8t24.5 -9q9 -3 9 -12h-1l1 -1q0 -4 -1.5 -7.5t-3.5 -5.5q-8 -10 -8 -33v-51q0 -17 -12.5 -30.5t-29.5 -23.5t-36.5 -15t-32.5 -5q-10 0 -10 8
q0 2 1 4q6 13 7.5 25.5t1.5 36.5v94h-144v-272h31q12 0 20 7.5t18 15.5q8 6 16 6q4 0 9 -2q11 -4 24 -9t22 -12q6 -4 6 -13q-2 -8 -9 -8h-137v-400l143 -1v224q0 13 -9 19q-10 6 -23 9q-5 1 -6.5 4t-1.5 5v0v0v1v0v1q2 5 8 7t11 3q9 1 19 1q5 0 16.5 -0.5t29.5 -2t35.5 -5
t29.5 -8.5q11 -4 11 -12q0 -11 -4 -15t-6 -11q0 -2 -0.5 -10.5t-1 -18.5t-0.5 -19v-134q0 -32 -8.5 -42t-40.5 -10h-21l-183 1q-5 -7 -27 -10.5t-56 -3.5q-21 0 -21 20v664q0 14 -8 22q-3 3 -10 5zM217 786q-9 -3 -16 -4.5t-12 -2.5q-6 -1 -10 -1q-5 1 -5.5 3t-0.5 3v0v1v0
v0v0v0v1q0 1 1 2t5 2q20 7 46.5 20.5t52 30.5t47.5 35.5t35 35.5q5 6 5 11q0 4 -2 8q-3 3 -5 6t-6 7q-4 2 -4 6q0 1 1 3q2 3 5 4.5t6 1.5q2 0 5 -1q7 -2 17 -7.5t19.5 -12.5t18 -12.5t13.5 -9.5q3 -2 3.5 -5.5l0.5 -3.5q0 -6 -6 -10q-6 -3 -12 -9t-13 -11q-22 -18 -45 -32
t-45.5 -24.5t-43.5 -18t-55 -16.5z" />
    <glyph glyph-name="Ecircumflex" unicode="&#xca;" horiz-adv-x="508" 
d="M62 713q-8 3 -8 12q0 13 14 14h23q15 0 32.5 -0.5t34.5 -2t29 -4.5h133q8 0 23 2.5t25 9.5q11 7 19 7q3 0 6 -1q13 -3 27.5 -8t24.5 -9q9 -3 9 -12h-1l1 -1q0 -4 -1.5 -7.5t-3.5 -5.5q-8 -10 -8 -33v-51q0 -17 -12.5 -30.5t-29.5 -23.5t-36.5 -15t-32.5 -5q-10 0 -10 8
q0 2 1 4q6 13 7.5 25.5t1.5 36.5v94h-144v-272h31q12 0 20 7.5t18 15.5q8 6 16 6q4 0 9 -2q11 -4 24 -9t22 -12q6 -4 6 -13q-2 -8 -9 -8h-137v-400l143 -1v224q0 13 -9 19q-10 6 -23 9q-5 1 -6.5 4t-1.5 5v0v0v1v0v1q2 5 8 7t11 3q9 1 19 1q5 0 16.5 -0.5t29.5 -2t35.5 -5
t29.5 -8.5q11 -4 11 -12q0 -11 -4 -15t-6 -11q0 -2 -0.5 -10.5t-1 -18.5t-0.5 -19v-134q0 -32 -8.5 -42t-40.5 -10h-21l-183 1q-5 -7 -27 -10.5t-56 -3.5q-21 0 -21 20v664q0 14 -8 22q-3 3 -10 5zM142 789q-9 -4 -15.5 -6.5t-11.5 -4.5q-6 -1 -10 -3q-5 1 -6 3t-1 3v0v1
t0.5 2.5t4.5 3.5q19 10 43 27.5t46.5 38t41.5 42t30 40.5q3 5 3 9q0 5 -4 10v0l-1 1v0l-3 3l-1 1v1q-3 2 -8 5q-4 3 -4 7v1v0v0v0v0v1v0q1 3 4.5 5t7.5 2h1v0v0h1v0h1h1q6 -1 17 -5t21.5 -9t20 -9.5t14.5 -7.5q3 -2 4 -5.5t1 -5.5q0 -4 -4 -8q-5 -4 -10.5 -10.5t-11.5 -12.5
q-5 -7 -11 -12q6 -7 13 -14q20 -21 44 -40t49 -35t45 -25q3 -2 4 -3.5t1 -3.5q0 -1 -1 -3t-6 -2q-4 1 -10 2q-5 2 -12 4t-15 5q-33 13 -53.5 22.5t-41.5 22t-43 28.5v0l-1 1v0l-1 1v0h-1v0l-1 1v0l-1 1v0l-1 1v0l-1 1v0h-1v1h-1v0l-1 1q-17 -13 -33 -24q-21 -14 -40.5 -24.5
t-51.5 -25.5z" />
    <glyph glyph-name="Igrave" unicode="&#xcc;" horiz-adv-x="312" 
d="M74 725q-8 2 -10.5 6t-2.5 7q0 2 1 4q2 8 10.5 11t14.5 3v0h1v0h1v0v0v0h2q15 -1 33.5 -3t38 -5t37.5 -7t32 -7q8 -2 12 -7t5 -11v0v-1v0v-1v0v-1v0v0q0 -13 -7 -20q-6 -6 -9 -16q-1 -5 -1.5 -10.5t-0.5 -13.5v-540q0 -23 -8 -43.5t-22.5 -35.5t-35 -24t-44.5 -9
q-12 0 -12 8q0 3 2 7q12 27 12 75v592q0 20 -14 28q-18 10 -35 14zM216 788q-34 9 -55 16.5t-43.5 18t-45.5 24.5t-45 32q-7 5 -13 11t-12 9q-5 4 -5 10.5t3 8.5q5 4 13.5 9.5t18 12.5t19.5 12.5t17 7.5q3 1 6 1q2 0 5.5 -1.5t4.5 -4.5q1 -2 1 -4q0 -3 -3 -5q-5 -4 -7 -7
t-5 -6q-2 -4 -2 -8q0 -5 5 -11q13 -17 35 -35.5t47.5 -35.5t52 -30.5t46.5 -20.5q4 -1 5 -2t1 -2v-1v0v0v0v-1q0 -1 -0.5 -3t-5.5 -3q-4 0 -10 1q-5 1 -12 2.5t-16 4.5z" />
    <glyph glyph-name="Iacute" unicode="&#xcd;" horiz-adv-x="312" 
d="M74 725q-8 2 -10.5 6t-2.5 7q0 2 1 4q2 8 10.5 11t14.5 3v0h1v0h1v0v0v0h2q15 -1 33.5 -3t38 -5t37.5 -7t32 -7q8 -2 12 -7t5 -11v0v-1v0v-1v0v-1v0v0q0 -13 -7 -20q-6 -6 -9 -16q-1 -5 -1.5 -10.5t-0.5 -13.5v-540q0 -23 -8 -43.5t-22.5 -35.5t-35 -24t-44.5 -9
q-12 0 -12 8q0 3 2 7q12 27 12 75v592q0 20 -14 28q-18 10 -35 14zM118 786q-9 -3 -16 -4.5t-12 -2.5q-6 -1 -10 -1q-5 1 -5.5 3t-0.5 3v0v1v0v0v0v0v1q0 1 1 2t5 2q20 7 46.5 20.5t52 30.5t47.5 35.5t35 35.5q5 6 5 11q0 4 -2 8q-3 3 -5 6t-6 7q-4 2 -4 6q0 1 1 3
q2 3 5 4.5t6 1.5q2 0 5 -1q7 -2 17 -7.5t19.5 -12.5t18 -12.5t13.5 -9.5q3 -2 3.5 -5.5l0.5 -3.5q0 -6 -6 -10q-6 -3 -12 -9t-13 -11q-22 -18 -45 -32t-45.5 -24.5t-43.5 -18t-55 -16.5z" />
    <glyph glyph-name="Ograve" unicode="&#xd2;" horiz-adv-x="526" 
d="M110 2q-22 0 -22 20v664q0 14 -7 21q-5 5 -10 6q-8 2 -8 11q0 13 13 14q9 1 24 1t32 -1t34 -2.5t30 -4.5h132q8 0 23 2.5t26 9.5q9 7 19 7q3 0 6 -1q13 -3 27 -7.5t25 -9.5q9 -4 9 -12q0 -7 -6 -13q-12 -11 -12 -36v-619q0 -20 -11 -28.5t-30 -8.5h-212q-5 -6 -26.5 -9.5
t-55.5 -3.5zM195 29h144v688h-144v-688zM315 788q-34 9 -55 16.5t-43.5 18t-45.5 24.5t-45 32q-7 5 -13 11t-12 9q-5 4 -5 10.5t3 8.5q5 4 13.5 9.5t18 12.5t19.5 12.5t17 7.5q3 1 6 1q2 0 5.5 -1.5t4.5 -4.5q1 -2 1 -4q0 -3 -3 -5q-5 -4 -7 -7t-5 -6q-2 -4 -2 -8
q0 -5 5 -11q13 -17 35 -35.5t47.5 -35.5t52 -30.5t46.5 -20.5q4 -1 5 -2t1 -2v-1v0v0v0v-1q0 -1 -0.5 -3t-5.5 -3q-4 0 -10 1q-5 1 -12 2.5t-16 4.5z" />
    <glyph glyph-name="Oacute" unicode="&#xd3;" horiz-adv-x="526" 
d="M110 2q-22 0 -22 20v664q0 14 -7 21q-5 5 -10 6q-8 2 -8 11q0 13 13 14q9 1 24 1t32 -1t34 -2.5t30 -4.5h132q8 0 23 2.5t26 9.5q9 7 19 7q3 0 6 -1q13 -3 27 -7.5t25 -9.5q9 -4 9 -12q0 -7 -6 -13q-12 -11 -12 -36v-619q0 -20 -11 -28.5t-30 -8.5h-212q-5 -6 -26.5 -9.5
t-55.5 -3.5zM195 29h144v688h-144v-688zM217 786q-9 -3 -16 -4.5t-12 -2.5q-6 -1 -10 -1q-5 1 -5.5 3t-0.5 3v0v1v0v0v0v0v1q0 1 1 2t5 2q20 7 46.5 20.5t52 30.5t47.5 35.5t35 35.5q5 6 5 11q0 4 -2 8q-3 3 -5 6t-6 7q-4 2 -4 6q0 1 1 3q2 3 5 4.5t6 1.5q2 0 5 -1
q7 -2 17 -7.5t19.5 -12.5t18 -12.5t13.5 -9.5q3 -2 3.5 -5.5l0.5 -3.5q0 -6 -6 -10q-6 -3 -12 -9t-13 -11q-22 -18 -45 -32t-45.5 -24.5t-43.5 -18t-55 -16.5z" />
    <glyph glyph-name="Ocircumflex" unicode="&#xd4;" horiz-adv-x="526" 
d="M110 2q-22 0 -22 20v664q0 14 -7 21q-5 5 -10 6q-8 2 -8 11q0 13 13 14q9 1 24 1t32 -1t34 -2.5t30 -4.5h132q8 0 23 2.5t26 9.5q9 7 19 7q3 0 6 -1q13 -3 27 -7.5t25 -9.5q9 -4 9 -12q0 -7 -6 -13q-12 -11 -12 -36v-619q0 -20 -11 -28.5t-30 -8.5h-212q-5 -6 -26.5 -9.5
t-55.5 -3.5zM195 29h144v688h-144v-688zM142 789q-9 -4 -15.5 -6.5t-11.5 -4.5q-6 -1 -10 -3q-5 1 -6 3t-1 3v0v1t0.5 2.5t4.5 3.5q19 10 43 27.5t46.5 38t41.5 42t30 40.5q3 5 3 9q0 5 -4 10v0l-1 1v0l-3 3l-1 1v1q-3 2 -8 5q-4 3 -4 7v1v0v0v0v0v1v0q1 3 4.5 5t7.5 2h1v0
v0h1v0h1h1q6 -1 17 -5t21.5 -9t20 -9.5t14.5 -7.5q3 -2 4 -5.5t1 -5.5q0 -4 -4 -8q-5 -4 -10.5 -10.5t-11.5 -12.5q-5 -7 -11 -12q6 -7 13 -14q20 -21 44 -40t49 -35t45 -25q3 -2 4 -3.5t1 -3.5q0 -1 -1 -3t-6 -2q-4 1 -10 2q-5 2 -12 4t-15 5q-33 13 -53.5 22.5t-41.5 22
t-43 28.5v0l-1 1v0l-1 1v0h-1v0l-1 1v0l-1 1v0l-1 1v0l-1 1v0h-1v1h-1v0l-1 1q-17 -13 -33 -24q-21 -14 -40.5 -24.5t-51.5 -25.5z" />
    <glyph glyph-name="Otilde" unicode="&#xd5;" horiz-adv-x="526" 
d="M110 2q-22 0 -22 20v664q0 14 -7 21q-5 5 -10 6q-8 2 -8 11q0 13 13 14q9 1 24 1t32 -1t34 -2.5t30 -4.5h132q8 0 23 2.5t26 9.5q9 7 19 7q3 0 6 -1q13 -3 27 -7.5t25 -9.5q9 -4 9 -12q0 -7 -6 -13q-12 -11 -12 -36v-619q0 -20 -11 -28.5t-30 -8.5h-212q-5 -6 -26.5 -9.5
t-55.5 -3.5zM195 29h144v688h-144v-688zM239 820q-10 7 -15 10t-7 5q-13 9 -26 9q-21 0 -42 -16.5t-32 -33.5q-9 -16 -12 -16.5l-3 -0.5q-4 0 -6 3q-2 2 -2 5q0 1 0.5 3l2.5 10q5 17 14.5 33.5t23 29.5t30 21.5t35.5 8.5t34 -9q4 -2 8.5 -4.5t15.5 -8.5q10 -7 18 -12.5
t13 -8.5q19 -13 32 -13q21 0 42 16.5t32 33.5q9 16 14 16t7 -2t2 -5q0 -1 -0.5 -3.5t-2.5 -9.5q-4 -16 -14 -32.5t-23.5 -30t-30 -22t-34.5 -8.5q-21 0 -45 15q-4 2 -11 6.5t-18 10.5z" />
    <glyph glyph-name="Ugrave" unicode="&#xd9;" horiz-adv-x="621" 
d="M542 109q0 -47 -30.5 -71.5t-80.5 -24.5h-215q-4 -6 -26 -10t-56 -4q-23 0 -23 20v657q0 20 -14 28q-19 11 -35 14q-8 2 -10.5 6.5t-2.5 7.5q0 2 1 4q2 8 10 11t14 3h1v0v0h1v0h1h1q15 -1 34 -3.5t38.5 -5.5t37.5 -6.5t32 -6.5q16 -5 16 -18v-1v0v-1v0v0v-1v0v-1
q0 -12 -6 -20q-3 -3 -5.5 -7t-3.5 -8q-1 -5 -1.5 -11t-0.5 -14v-618h202q6 14 9 25t3 34v575q0 28 3 40q2 7 4 11q3 6 6.5 10t6.5 7q4 4 8 6q6 3 11.5 5.5t10.5 2.5q3 0 6 -1q11 -2 29.5 -6.5t32.5 -10.5q5 -2 6.5 -5.5t1.5 -7.5q0 -10 -4 -14q-6 -7 -7.5 -8.5t-3.5 -9.5
t-2 -19v-553zM382 788q-34 9 -55 16.5t-43.5 18t-45.5 24.5t-45 32q-7 5 -13 11t-12 9q-5 4 -5 10.5t3 8.5q5 4 13.5 9.5t18 12.5t19.5 12.5t17 7.5q3 1 6 1q2 0 5.5 -1.5t4.5 -4.5q1 -2 1 -4q0 -3 -3 -5q-5 -4 -7 -7t-5 -6q-2 -4 -2 -8q0 -5 5 -11q13 -17 35 -35.5
t47.5 -35.5t52 -30.5t46.5 -20.5q4 -1 5 -2t1 -2v-1v0v0v0v-1q0 -1 -0.5 -3t-5.5 -3q-4 0 -10 1q-5 1 -12 2.5t-16 4.5z" />
    <glyph glyph-name="Uacute" unicode="&#xda;" horiz-adv-x="621" 
d="M542 109q0 -47 -30.5 -71.5t-80.5 -24.5h-215q-4 -6 -26 -10t-56 -4q-23 0 -23 20v657q0 20 -14 28q-19 11 -35 14q-8 2 -10.5 6.5t-2.5 7.5q0 2 1 4q2 8 10 11t14 3h1v0v0h1v0h1h1q15 -1 34 -3.5t38.5 -5.5t37.5 -6.5t32 -6.5q16 -5 16 -18v-1v0v-1v0v0v-1v0v-1
q0 -12 -6 -20q-3 -3 -5.5 -7t-3.5 -8q-1 -5 -1.5 -11t-0.5 -14v-618h202q6 14 9 25t3 34v575q0 28 3 40q2 7 4 11q3 6 6.5 10t6.5 7q4 4 8 6q6 3 11.5 5.5t10.5 2.5q3 0 6 -1q11 -2 29.5 -6.5t32.5 -10.5q5 -2 6.5 -5.5t1.5 -7.5q0 -10 -4 -14q-6 -7 -7.5 -8.5t-3.5 -9.5
t-2 -19v-553zM284 786q-9 -3 -16 -4.5t-12 -2.5q-6 -1 -10 -1q-5 1 -5.5 3t-0.5 3v0v1v0v0v0v0v1q0 1 1 2t5 2q20 7 46.5 20.5t52 30.5t47.5 35.5t35 35.5q5 6 5 11q0 4 -2 8q-3 3 -5 6t-6 7q-4 2 -4 6q0 1 1 3q2 3 5 4.5t6 1.5q2 0 5 -1q7 -2 17 -7.5t19.5 -12.5t18 -12.5
t13.5 -9.5q3 -2 3.5 -5.5l0.5 -3.5q0 -6 -6 -10q-6 -3 -12 -9t-13 -11q-22 -18 -45 -32t-45.5 -24.5t-43.5 -18t-55 -16.5z" />
    <glyph glyph-name="Yacute" unicode="&#xdd;" horiz-adv-x="588" 
d="M543 725q0 -10 -5 -13q-6 -8 -13.5 -21t-9.5 -24l-174 -609q-13 -45 -44 -63.5t-58 -18.5q-17 0 -35 5q-6 2 -7.5 5t-1.5 4q0 4 4 8q18 23 32 69l103 360q-25 11 -49 18q-32 9 -63 12t-63 3l-53 220q-10 34 -42 42q-8 2 -10.5 6.5t-2.5 7.5q0 2 1 4q2 8 11 11t17 3
q15 -1 33 -3.5t36.5 -5.5t36 -6.5t31.5 -6.5q16 -5 16 -19v-1v0v-1v0v-1v0v0q0 -12 -6 -20q-8 -7 -8 -17q0 -4 1 -7l49 -200v0h1v0h1v-1h1v0h1v0h1v0h1v0v-1h1v0h1l5 -1q4 0 8 -2q12 -4 24.5 -8.5t24.5 -9.5l78 274l4 9q6 13 17.5 20.5t25.5 9.5h9q11 -2 29.5 -7t32.5 -11
q8 -3 8 -13zM284 786q-9 -3 -16 -4.5t-12 -2.5q-6 -1 -10 -1q-5 1 -5.5 3t-0.5 3v0v1v0v0v0v0v1q0 1 1 2t5 2q20 7 46.5 20.5t52 30.5t47.5 35.5t35 35.5q5 6 5 11q0 4 -2 8q-3 3 -5 6t-6 7q-4 2 -4 6q0 1 1 3q2 3 5 4.5t6 1.5q2 0 5 -1q7 -2 17 -7.5t19.5 -12.5t18 -12.5
t13.5 -9.5q3 -2 3.5 -5.5l0.5 -3.5q0 -6 -6 -10q-6 -3 -12 -9t-13 -11q-22 -18 -45 -32t-45.5 -24.5t-43.5 -18t-55 -16.5z" />
    <glyph glyph-name="agrave" unicode="&#xe0;" 
d="M101 1q-21 0 -21 20v392q0 12 -7 21q-5 4 -11 5q-8 3 -8 12q0 13 14 14q9 1 23.5 1t31.5 -1t34 -2.5t30 -4.5h132q8 0 23.5 2.5t25.5 9.5q11 7 19 7q3 0 6 -1q13 -3 27.5 -7.5t24.5 -9.5q9 -3 9 -12q0 -8 -6 -14q-6 -5 -9 -14.5t-3 -21.5v-302q0 -24 4.5 -44.5
t10.5 -34.5q2 -4 2 -7q0 -7 -12 -7q-49 0 -79.5 32t-30.5 80v7q-20 -8 -39 -18t-38 -23q-39 -29 -71 -65q0 -1 -0.5 -1t-0.5 -1q-7 -5 -28 -8.5t-53 -3.5zM186 444v-402q26 27 59 51q40 28 86 45l-1 306h-144zM312 525q-34 9 -55 16.5t-43.5 18t-45.5 24.5t-45 32
q-7 5 -13 11t-12 9q-5 4 -5 10.5t3 8.5q5 4 13.5 9.5t18 12.5t19.5 12.5t17 7.5q3 1 6 1q2 0 5.5 -1.5t4.5 -4.5q1 -2 1 -4q0 -3 -3 -5q-5 -4 -7 -7t-5 -6q-2 -4 -2 -8q0 -5 5 -11q13 -17 35 -35.5t47.5 -35.5t52 -30.5t46.5 -20.5q4 -1 5 -2t1 -2v-1v0v0v0v-1q0 -1 -0.5 -3
t-5.5 -3q-4 0 -10 1q-5 1 -12 2.5t-16 4.5z" />
    <glyph glyph-name="aacute" unicode="&#xe1;" 
d="M101 1q-21 0 -21 20v392q0 12 -7 21q-5 4 -11 5q-8 3 -8 12q0 13 14 14q9 1 23.5 1t31.5 -1t34 -2.5t30 -4.5h132q8 0 23.5 2.5t25.5 9.5q11 7 19 7q3 0 6 -1q13 -3 27.5 -7.5t24.5 -9.5q9 -3 9 -12q0 -8 -6 -14q-6 -5 -9 -14.5t-3 -21.5v-302q0 -24 4.5 -44.5
t10.5 -34.5q2 -4 2 -7q0 -7 -12 -7q-49 0 -79.5 32t-30.5 80v7q-20 -8 -39 -18t-38 -23q-39 -29 -71 -65q0 -1 -0.5 -1t-0.5 -1q-7 -5 -28 -8.5t-53 -3.5zM186 444v-402q26 27 59 51q40 28 86 45l-1 306h-144zM198 523q-9 -3 -16 -4.5t-12 -2.5q-6 -1 -10 -1q-5 1 -5.5 3
t-0.5 3v0v1v0v0v0v0v1q0 1 1 2t5 2q20 7 46.5 20.5t52 30.5t47.5 35.5t35 35.5q5 6 5 11q0 4 -2 8q-3 3 -5 6t-6 7q-4 2 -4 6q0 1 1 3q2 3 5 4.5t6 1.5q2 0 5 -1q7 -2 17 -7.5t19.5 -12.5t18 -12.5t13.5 -9.5q3 -2 3.5 -5.5l0.5 -3.5q0 -6 -6 -10q-6 -3 -12 -9t-13 -11
q-22 -18 -45 -32t-45.5 -24.5t-43.5 -18t-55 -16.5z" />
    <glyph glyph-name="acircumflex" unicode="&#xe2;" 
d="M101 1q-21 0 -21 20v392q0 12 -7 21q-5 4 -11 5q-8 3 -8 12q0 13 14 14q9 1 23.5 1t31.5 -1t34 -2.5t30 -4.5h132q8 0 23.5 2.5t25.5 9.5q11 7 19 7q3 0 6 -1q13 -3 27.5 -7.5t24.5 -9.5q9 -3 9 -12q0 -8 -6 -14q-6 -5 -9 -14.5t-3 -21.5v-302q0 -24 4.5 -44.5
t10.5 -34.5q2 -4 2 -7q0 -7 -12 -7q-49 0 -79.5 32t-30.5 80v7q-20 -8 -39 -18t-38 -23q-39 -29 -71 -65q0 -1 -0.5 -1t-0.5 -1q-7 -5 -28 -8.5t-53 -3.5zM186 444v-402q26 27 59 51q40 28 86 45l-1 306h-144zM142 526q-9 -4 -15.5 -6.5t-11.5 -4.5q-6 -1 -10 -3q-5 1 -6 3
t-1 3v0v1t0.5 2.5t4.5 3.5q19 10 43 27.5t46.5 38t41.5 42t30 40.5q3 5 3 9q0 5 -4 10v0l-1 1v0l-3 3l-1 1v1q-3 2 -8 5q-4 3 -4 7v1v0v0v0v0v1v0q1 3 4.5 5t7.5 2h1v0v0h1v0h1h1q6 -1 17 -5t21.5 -9t20 -9.5t14.5 -7.5q3 -2 4 -5.5t1 -5.5q0 -4 -4 -8q-5 -4 -10.5 -10.5
t-11.5 -12.5q-5 -7 -11 -12q6 -7 13 -14q20 -21 44 -40t49 -35t45 -25q3 -2 4 -3.5t1 -3.5q0 -1 -1 -3t-6 -2q-4 1 -10 2q-5 2 -12 4t-15 5q-33 13 -53.5 22.5t-41.5 22t-43 28.5v0l-1 1v0l-1 1v0h-1v0l-1 1v0l-1 1v0l-1 1v0l-1 1v0h-1v1h-1v0l-1 1q-17 -13 -33 -24
q-21 -14 -40.5 -24.5t-51.5 -25.5z" />
    <glyph glyph-name="atilde" unicode="&#xe3;" 
d="M101 1q-21 0 -21 20v392q0 12 -7 21q-5 4 -11 5q-8 3 -8 12q0 13 14 14q9 1 23.5 1t31.5 -1t34 -2.5t30 -4.5h132q8 0 23.5 2.5t25.5 9.5q11 7 19 7q3 0 6 -1q13 -3 27.5 -7.5t24.5 -9.5q9 -3 9 -12q0 -8 -6 -14q-6 -5 -9 -14.5t-3 -21.5v-302q0 -24 4.5 -44.5
t10.5 -34.5q2 -4 2 -7q0 -7 -12 -7q-49 0 -79.5 32t-30.5 80v7q-20 -8 -39 -18t-38 -23q-39 -29 -71 -65q0 -1 -0.5 -1t-0.5 -1q-7 -5 -28 -8.5t-53 -3.5zM186 444v-402q26 27 59 51q40 28 86 45l-1 306h-144zM239 557q-10 7 -15 10t-7 5q-13 9 -26 9q-21 0 -42 -16.5
t-32 -33.5q-9 -16 -12 -16.5l-3 -0.5q-4 0 -6 3q-2 2 -2 5q0 1 0.5 3l2.5 10q5 17 14.5 33.5t23 29.5t30 21.5t35.5 8.5t34 -9q4 -2 8.5 -4.5t15.5 -8.5q10 -7 18 -12.5t13 -8.5q19 -13 32 -13q21 0 42 16.5t32 33.5q9 16 14 16t7 -2t2 -5q0 -1 -0.5 -3.5t-2.5 -9.5
q-4 -16 -14 -32.5t-23.5 -30t-30 -22t-34.5 -8.5q-21 0 -45 15q-4 2 -11 6.5t-18 10.5z" />
    <glyph glyph-name="egrave" unicode="&#xe8;" horiz-adv-x="472" 
d="M51 440q-8 3 -8 12q0 13 14 14q5 1 14 1q4 0 14 -0.5t26.5 -1.5t33.5 -2.5t30 -4.5h109q8 0 23 2.5t25 9.5q6 4 10 5.5t8 1.5q3 0 7 -1q13 -3 27 -8t25 -9q9 -3 9 -12q0 -8 -6 -14q-7 -11 -7 -33v-50q0 -16 -10.5 -29t-26 -23t-33.5 -16t-32 -7q-34 -8 -66.5 -22.5
t-58.5 -32.5l-3 -3v-188v0v0v0v0v-1v0l-1 -2v0v0v0v-1v0v0h120q12 0 20 8t18 16q6 4 9.5 5t5.5 1q5 0 10 -2q11 -4 24 -9.5t22 -11.5q6 -5 6 -13q-1 -3 -4 -6t-5 -3h-236q-21 -8 -74 -8q-21 0 -21 20v392q0 12 -7 21q-5 4 -11 5zM175 443v-206q51 34 110 51q6 12 7.5 24.5
t1.5 37.5v93h-119zM284 525q-34 9 -55 16.5t-43.5 18t-45.5 24.5t-45 32q-7 5 -13 11t-12 9q-5 4 -5 10.5t3 8.5q5 4 13.5 9.5t18 12.5t19.5 12.5t17 7.5q3 1 6 1q2 0 5.5 -1.5t4.5 -4.5q1 -2 1 -4q0 -3 -3 -5q-5 -4 -7 -7t-5 -6q-2 -4 -2 -8q0 -5 5 -11q13 -17 35 -35.5
t47.5 -35.5t52 -30.5t46.5 -20.5q4 -1 5 -2t1 -2v-1v0v0v0v-1q0 -1 -0.5 -3t-5.5 -3q-4 0 -10 1q-5 1 -12 2.5t-16 4.5z" />
    <glyph glyph-name="eacute" unicode="&#xe9;" horiz-adv-x="472" 
d="M51 440q-8 3 -8 12q0 13 14 14q5 1 14 1q4 0 14 -0.5t26.5 -1.5t33.5 -2.5t30 -4.5h109q8 0 23 2.5t25 9.5q6 4 10 5.5t8 1.5q3 0 7 -1q13 -3 27 -8t25 -9q9 -3 9 -12q0 -8 -6 -14q-7 -11 -7 -33v-50q0 -16 -10.5 -29t-26 -23t-33.5 -16t-32 -7q-34 -8 -66.5 -22.5
t-58.5 -32.5l-3 -3v-188v0v0v0v0v-1v0l-1 -2v0v0v0v-1v0v0h120q12 0 20 8t18 16q6 4 9.5 5t5.5 1q5 0 10 -2q11 -4 24 -9.5t22 -11.5q6 -5 6 -13q-1 -3 -4 -6t-5 -3h-236q-21 -8 -74 -8q-21 0 -21 20v392q0 12 -7 21q-5 4 -11 5zM175 443v-206q51 34 110 51q6 12 7.5 24.5
t1.5 37.5v93h-119zM171 523q-9 -3 -16 -4.5t-12 -2.5q-6 -1 -10 -1q-5 1 -5.5 3t-0.5 3v0v1v0v0v0v0v1q0 1 1 2t5 2q20 7 46.5 20.5t52 30.5t47.5 35.5t35 35.5q5 6 5 11q0 4 -2 8q-3 3 -5 6t-6 7q-4 2 -4 6q0 1 1 3q2 3 5 4.5t6 1.5q2 0 5 -1q7 -2 17 -7.5t19.5 -12.5
t18 -12.5t13.5 -9.5q3 -2 3.5 -5.5l0.5 -3.5q0 -6 -6 -10q-6 -3 -12 -9t-13 -11q-22 -18 -45 -32t-45.5 -24.5t-43.5 -18t-55 -16.5z" />
    <glyph glyph-name="ecircumflex" unicode="&#xea;" horiz-adv-x="472" 
d="M51 440q-8 3 -8 12q0 13 14 14q5 1 14 1q4 0 14 -0.5t26.5 -1.5t33.5 -2.5t30 -4.5h109q8 0 23 2.5t25 9.5q6 4 10 5.5t8 1.5q3 0 7 -1q13 -3 27 -8t25 -9q9 -3 9 -12q0 -8 -6 -14q-7 -11 -7 -33v-50q0 -16 -10.5 -29t-26 -23t-33.5 -16t-32 -7q-34 -8 -66.5 -22.5
t-58.5 -32.5l-3 -3v-188v0v0v0v0v-1v0l-1 -2v0v0v0v-1v0v0h120q12 0 20 8t18 16q6 4 9.5 5t5.5 1q5 0 10 -2q11 -4 24 -9.5t22 -11.5q6 -5 6 -13q-1 -3 -4 -6t-5 -3h-236q-21 -8 -74 -8q-21 0 -21 20v392q0 12 -7 21q-5 4 -11 5zM175 443v-206q51 34 110 51q6 12 7.5 24.5
t1.5 37.5v93h-119zM112 526q-9 -4 -15.5 -6.5t-11.5 -4.5q-6 -1 -10 -3q-5 1 -6 3t-1 3v0v1t0.5 2.5t4.5 3.5q19 10 43 27.5t46.5 38t41.5 42t30 40.5q3 5 3 9q0 5 -4 10v0l-1 1v0l-3 3l-1 1v1q-3 2 -8 5q-4 3 -4 7v1v0v0v0v0v1v0q1 3 4.5 5t7.5 2h1v0v0h1v0h1h1q6 -1 17 -5
t21.5 -9t20 -9.5t14.5 -7.5q3 -2 4 -5.5t1 -5.5q0 -4 -4 -8q-5 -4 -10.5 -10.5t-11.5 -12.5q-5 -7 -11 -12q6 -7 13 -14q20 -21 44 -40t49 -35t45 -25q3 -2 4 -3.5t1 -3.5q0 -1 -1 -3t-6 -2q-4 1 -10 2q-5 2 -12 4t-15 5q-33 13 -53.5 22.5t-41.5 22t-43 28.5v0l-1 1v0l-1 1
v0h-1v0l-1 1v0l-1 1v0l-1 1v0l-1 1v0h-1v1h-1v0l-1 1q-17 -13 -33 -24q-21 -14 -40.5 -24.5t-51.5 -25.5z" />
    <glyph glyph-name="igrave" unicode="&#xec;" horiz-adv-x="248" 
d="M45 452q0 13 14 14q7 1 18 1t32.5 -1t47.5 -5q9 -2 15 -8.5t6 -15.5l-1 -408q-3 -18 -21 -23q-25 -5 -64 -5q-21 0 -21 20v393q0 12 -7 21q-5 4 -11 5q-8 3 -8 12zM192 525q-34 9 -55 16.5t-43.5 18t-45.5 24.5t-45 32q-7 5 -13 11t-12 9q-5 4 -5 10.5t3 8.5
q5 4 13.5 9.5t18 12.5t19.5 12.5t17 7.5q3 1 6 1q2 0 5.5 -1.5t4.5 -4.5q1 -2 1 -4q0 -3 -3 -5q-5 -4 -7 -7t-5 -6q-2 -4 -2 -8q0 -5 5 -11q13 -17 35 -35.5t47.5 -35.5t52 -30.5t46.5 -20.5q4 -1 5 -2t1 -2v-1v0v0v0v-1q0 -1 -0.5 -3t-5.5 -3q-4 0 -10 1q-5 1 -12 2.5
t-16 4.5z" />
    <glyph glyph-name="iacute" unicode="&#xed;" horiz-adv-x="248" 
d="M45 452q0 13 14 14q7 1 18 1t32.5 -1t47.5 -5q9 -2 15 -8.5t6 -15.5l-1 -408q-3 -18 -21 -23q-25 -5 -64 -5q-21 0 -21 20v393q0 12 -7 21q-5 4 -11 5q-8 3 -8 12zM27 523q-9 -3 -16 -4.5t-12 -2.5q-6 -1 -10 -1q-5 1 -5.5 3t-0.5 3v0v1v0v0v0v0v1q0 1 1 2t5 2
q20 7 46.5 20.5t52 30.5t47.5 35.5t35 35.5q5 6 5 11q0 4 -2 8q-3 3 -5 6t-6 7q-4 2 -4 6q0 1 1 3q2 3 5 4.5t6 1.5q2 0 5 -1q7 -2 17 -7.5t19.5 -12.5t18 -12.5t13.5 -9.5q3 -2 3.5 -5.5l0.5 -3.5q0 -6 -6 -10q-6 -3 -12 -9t-13 -11q-22 -18 -45 -32t-45.5 -24.5t-43.5 -18
t-55 -16.5z" />
    <glyph glyph-name="ograve" unicode="&#xf2;" horiz-adv-x="500" 
d="M367 471q6 4 10.5 5.5t8.5 1.5q3 0 7 -1q12 -3 26.5 -7.5t24.5 -9.5q9 -3 9 -12q0 -8 -6 -14q-6 -5 -9 -14.5t-3 -21.5v-346q0 -20 -11 -28t-29 -8h-213q-4 -7 -26 -10.5t-56 -3.5q-21 0 -21 20v392q0 5 -1.5 11t-5.5 10q-3 3 -11 5q-8 3 -8 12q0 12 14 14q9 1 23.5 1
t31.5 -1t34 -2.5t30 -4.5h133q8 0 23 2.5t25 9.5zM330 445h-145v-415h145v415zM297 525q-34 9 -55 16.5t-43.5 18t-45.5 24.5t-45 32q-7 5 -13 11t-12 9q-5 4 -5 10.5t3 8.5q5 4 13.5 9.5t18 12.5t19.5 12.5t17 7.5q3 1 6 1q2 0 5.5 -1.5t4.5 -4.5q1 -2 1 -4q0 -3 -3 -5
q-5 -4 -7 -7t-5 -6q-2 -4 -2 -8q0 -5 5 -11q13 -17 35 -35.5t47.5 -35.5t52 -30.5t46.5 -20.5q4 -1 5 -2t1 -2v-1v0v0v0v-1q0 -1 -0.5 -3t-5.5 -3q-4 0 -10 1q-5 1 -12 2.5t-16 4.5z" />
    <glyph glyph-name="oacute" unicode="&#xf3;" horiz-adv-x="500" 
d="M367 471q6 4 10.5 5.5t8.5 1.5q3 0 7 -1q12 -3 26.5 -7.5t24.5 -9.5q9 -3 9 -12q0 -8 -6 -14q-6 -5 -9 -14.5t-3 -21.5v-346q0 -20 -11 -28t-29 -8h-213q-4 -7 -26 -10.5t-56 -3.5q-21 0 -21 20v392q0 5 -1.5 11t-5.5 10q-3 3 -11 5q-8 3 -8 12q0 12 14 14q9 1 23.5 1
t31.5 -1t34 -2.5t30 -4.5h133q8 0 23 2.5t25 9.5zM330 445h-145v-415h145v415zM184 523q-9 -3 -16 -4.5t-12 -2.5q-6 -1 -10 -1q-5 1 -5.5 3t-0.5 3v0v1v0v0v0v0v1q0 1 1 2t5 2q20 7 46.5 20.5t52 30.5t47.5 35.5t35 35.5q5 6 5 11q0 4 -2 8q-3 3 -5 6t-6 7q-4 2 -4 6
q0 1 1 3q2 3 5 4.5t6 1.5q2 0 5 -1q7 -2 17 -7.5t19.5 -12.5t18 -12.5t13.5 -9.5q3 -2 3.5 -5.5l0.5 -3.5q0 -6 -6 -10q-6 -3 -12 -9t-13 -11q-22 -18 -45 -32t-45.5 -24.5t-43.5 -18t-55 -16.5z" />
    <glyph glyph-name="ocircumflex" unicode="&#xf4;" horiz-adv-x="500" 
d="M367 471q6 4 10.5 5.5t8.5 1.5q3 0 7 -1q12 -3 26.5 -7.5t24.5 -9.5q9 -3 9 -12q0 -8 -6 -14q-6 -5 -9 -14.5t-3 -21.5v-346q0 -20 -11 -28t-29 -8h-213q-4 -7 -26 -10.5t-56 -3.5q-21 0 -21 20v392q0 5 -1.5 11t-5.5 10q-3 3 -11 5q-8 3 -8 12q0 12 14 14q9 1 23.5 1
t31.5 -1t34 -2.5t30 -4.5h133q8 0 23 2.5t25 9.5zM330 445h-145v-415h145v415zM125 526q-9 -4 -15.5 -6.5t-11.5 -4.5q-6 -1 -10 -3q-5 1 -6 3t-1 3v0v1t0.5 2.5t4.5 3.5q19 10 43 27.5t46.5 38t41.5 42t30 40.5q3 5 3 9q0 5 -4 10v0l-1 1v0l-3 3l-1 1v1q-3 2 -8 5
q-4 3 -4 7v1v0v0v0v0v1v0q1 3 4.5 5t7.5 2h1v0v0h1v0h1h1q6 -1 17 -5t21.5 -9t20 -9.5t14.5 -7.5q3 -2 4 -5.5t1 -5.5q0 -4 -4 -8q-5 -4 -10.5 -10.5t-11.5 -12.5q-5 -7 -11 -12q6 -7 13 -14q20 -21 44 -40t49 -35t45 -25q3 -2 4 -3.5t1 -3.5q0 -1 -1 -3t-6 -2q-4 1 -10 2
q-5 2 -12 4t-15 5q-33 13 -53.5 22.5t-41.5 22t-43 28.5v0l-1 1v0l-1 1v0h-1v0l-1 1v0l-1 1v0l-1 1v0l-1 1v0h-1v1h-1v0l-1 1q-17 -13 -33 -24q-21 -14 -40.5 -24.5t-51.5 -25.5z" />
    <glyph glyph-name="otilde" unicode="&#xf5;" horiz-adv-x="500" 
d="M367 471q6 4 10.5 5.5t8.5 1.5q3 0 7 -1q12 -3 26.5 -7.5t24.5 -9.5q9 -3 9 -12q0 -8 -6 -14q-6 -5 -9 -14.5t-3 -21.5v-346q0 -20 -11 -28t-29 -8h-213q-4 -7 -26 -10.5t-56 -3.5q-21 0 -21 20v392q0 5 -1.5 11t-5.5 10q-3 3 -11 5q-8 3 -8 12q0 12 14 14q9 1 23.5 1
t31.5 -1t34 -2.5t30 -4.5h133q8 0 23 2.5t25 9.5zM330 445h-145v-415h145v415zM221 557q-10 7 -15 10t-7 5q-13 9 -26 9q-21 0 -42 -16.5t-32 -33.5q-9 -16 -12 -16.5l-3 -0.5q-4 0 -6 3q-2 2 -2 5q0 1 0.5 3l2.5 10q5 17 14.5 33.5t23 29.5t30 21.5t35.5 8.5t34 -9
q4 -2 8.5 -4.5t15.5 -8.5q10 -7 18 -12.5t13 -8.5q19 -13 32 -13q21 0 42 16.5t32 33.5q9 16 14 16t7 -2t2 -5q0 -1 -0.5 -3.5t-2.5 -9.5q-4 -16 -14 -32.5t-23.5 -30t-30 -22t-34.5 -8.5q-21 0 -45 15q-4 2 -11 6.5t-18 10.5z" />
    <glyph glyph-name="ugrave" unicode="&#xf9;" horiz-adv-x="503" 
d="M427 51q0 -20 -11 -28t-29 -8h-213q-4 -7 -26 -10.5t-56 -3.5q-21 0 -21 20v392q0 12 -7 21q-5 4 -11 5q-8 3 -8 12q0 13 14 14q9 1 23 1q7 0 24.5 -0.5t42.5 -3.5q12 -2 20 -10.5t8 -20.5v-402h144v406q0 10 6 17.5t15 9.5q8 3 17 8q11 7 19 7q3 0 6 -1q13 -3 27.5 -7.5
t24.5 -9.5q9 -3 9 -12q0 -8 -6 -14q-6 -5 -9 -14.5t-3 -21.5v-346zM297 525q-34 9 -55 16.5t-43.5 18t-45.5 24.5t-45 32q-7 5 -13 11t-12 9q-5 4 -5 10.5t3 8.5q5 4 13.5 9.5t18 12.5t19.5 12.5t17 7.5q3 1 6 1q2 0 5.5 -1.5t4.5 -4.5q1 -2 1 -4q0 -3 -3 -5q-5 -4 -7 -7
t-5 -6q-2 -4 -2 -8q0 -5 5 -11q13 -17 35 -35.5t47.5 -35.5t52 -30.5t46.5 -20.5q4 -1 5 -2t1 -2v-1v0v0v0v-1q0 -1 -0.5 -3t-5.5 -3q-4 0 -10 1q-5 1 -12 2.5t-16 4.5z" />
    <glyph glyph-name="uacute" unicode="&#xfa;" horiz-adv-x="503" 
d="M427 51q0 -20 -11 -28t-29 -8h-213q-4 -7 -26 -10.5t-56 -3.5q-21 0 -21 20v392q0 12 -7 21q-5 4 -11 5q-8 3 -8 12q0 13 14 14q9 1 23 1q7 0 24.5 -0.5t42.5 -3.5q12 -2 20 -10.5t8 -20.5v-402h144v406q0 10 6 17.5t15 9.5q8 3 17 8q11 7 19 7q3 0 6 -1q13 -3 27.5 -7.5
t24.5 -9.5q9 -3 9 -12q0 -8 -6 -14q-6 -5 -9 -14.5t-3 -21.5v-346zM184 523q-9 -3 -16 -4.5t-12 -2.5q-6 -1 -10 -1q-5 1 -5.5 3t-0.5 3v0v1v0v0v0v0v1q0 1 1 2t5 2q20 7 46.5 20.5t52 30.5t47.5 35.5t35 35.5q5 6 5 11q0 4 -2 8q-3 3 -5 6t-6 7q-4 2 -4 6q0 1 1 3
q2 3 5 4.5t6 1.5q2 0 5 -1q7 -2 17 -7.5t19.5 -12.5t18 -12.5t13.5 -9.5q3 -2 3.5 -5.5l0.5 -3.5q0 -6 -6 -10q-6 -3 -12 -9t-13 -11q-22 -18 -45 -32t-45.5 -24.5t-43.5 -18t-55 -16.5z" />
    <glyph glyph-name="yacute" unicode="&#xfd;" horiz-adv-x="505" 
d="M161 36q-15 -17 -36 -27t-47 -10q-12 0 -12 8q0 3 2 7q12 27 12 75v321q0 20 -14 28q-19 11 -35 14q-8 2 -10.5 6.5t-2.5 7.5q0 2 1 4q2 8 10 11t14 3h1h1v0v0h1h1q15 -1 34 -3.5t38.5 -5.5t37.5 -6.5t32 -6.5q16 -5 16 -18v-1v0v0v-1v0v-1q0 -11 -6 -21q-3 -3 -5.5 -7
t-3.5 -8q-1 -5 -1.5 -11t-0.5 -14v-269q0 -19 -6 -37q3 3 9 7q53 37 117 55q5 11 6.5 23.5t1.5 35.5v222q0 17 12 31l13 13q7 7 13 15q6 7 17 7q4 0 8 -1q13 -3 27 -8t25 -9q8 -3 8 -12t-5 -14q-7 -8 -7 -33l-1 -216v-223q0 -15 -8 -34t-18.5 -37.5t-21 -34t-16.5 -22.5
q-23 -28 -50 -55t-55.5 -49.5t-58 -38.5t-57.5 -21h-1v0h-3q-4 0 -6 2.5t-3 4.5q0 2 0.5 5t5.5 7q25 18 49.5 44.5t46.5 57t41 63t33 62.5q5 13 7 27.5t2 31.5l3 133v8q-35 -9 -62.5 -22t-53.5 -31l-20 -16q-10 -8 -19 -16zM184 523q-9 -3 -16 -4.5t-12 -2.5q-6 -1 -10 -1
q-5 1 -5.5 3t-0.5 3v0v1v0v0v0v0v1q0 1 1 2t5 2q20 7 46.5 20.5t52 30.5t47.5 35.5t35 35.5q5 6 5 11q0 4 -2 8q-3 3 -5 6t-6 7q-4 2 -4 6q0 1 1 3q2 3 5 4.5t6 1.5q2 0 5 -1q7 -2 17 -7.5t19.5 -12.5t18 -12.5t13.5 -9.5q3 -2 3.5 -5.5l0.5 -3.5q0 -6 -6 -10q-6 -3 -12 -9
t-13 -11q-22 -18 -45 -32t-45.5 -24.5t-43.5 -18t-55 -16.5z" />
    <glyph glyph-name="Abreve" unicode="&#x102;" horiz-adv-x="523" 
d="M62 714q-8 2 -8 11q0 13 13 14q9 1 24 1t32 -1t34 -2.5t30 -4.5h163q8 2 16.5 4t14.5 7q9 7 19 7q3 0 6 -1q13 -3 27 -8t25 -9q8 -3 8 -12v-1q0 -8 -5 -13q-8 -10 -8 -33v-598q0 -17 -12 -31t-29.5 -23.5t-36.5 -15t-32 -5.5q-10 0 -10 7q0 2 1 5q5 13 7 25.5t2 37.5v470
q-39 -12 -75 -33q-23 -13 -43 -29t-38 -35l-1 -336q0 -23 -8 -43.5t-22 -35.5t-34.5 -24t-44.5 -9q-6 0 -8.5 2.5t-2.5 6.5q0 2 1 6q12 27 12 75v597q0 14 -7 21q-5 5 -10 6zM187 471q17 16 35 30t38 25q40 24 83 34v157h-156v-246zM162 924q11 0 11 -11v-69
q0 -20 11.5 -31.5t31.5 -11.5h97q23 0 23 22v70q0 20 16.5 32t36.5 12q11 0 11 -11v-85q0 -27 -16.5 -44t-44.5 -17h-137q-35 0 -57 22t-22 58v53q0 11 11 11h28z" />
    <glyph glyph-name="abreve" unicode="&#x103;" 
d="M101 1q-21 0 -21 20v392q0 12 -7 21q-5 4 -11 5q-8 3 -8 12q0 13 14 14q9 1 23.5 1t31.5 -1t34 -2.5t30 -4.5h132q8 0 23.5 2.5t25.5 9.5q11 7 19 7q3 0 6 -1q13 -3 27.5 -7.5t24.5 -9.5q9 -3 9 -12q0 -8 -6 -14q-6 -5 -9 -14.5t-3 -21.5v-302q0 -24 4.5 -44.5
t10.5 -34.5q2 -4 2 -7q0 -7 -12 -7q-49 0 -79.5 32t-30.5 80v7q-20 -8 -39 -18t-38 -23q-39 -29 -71 -65q0 -1 -0.5 -1t-0.5 -1q-7 -5 -28 -8.5t-53 -3.5zM186 444v-402q26 27 59 51q40 28 86 45l-1 306h-144zM162 661q11 0 11 -11v-69q0 -20 11.5 -31.5t31.5 -11.5h97
q23 0 23 22v70q0 20 16.5 32t36.5 12q11 0 11 -11v-85q0 -27 -16.5 -44t-44.5 -17h-137q-35 0 -57 22t-22 58v53q0 11 11 11h28z" />
    <glyph glyph-name="Dcroat" unicode="&#x110;" horiz-adv-x="555" 
d="M63 714q-8 2 -8 11q0 13 13 14q9 1 24 1t32 -1t34 -2.5t30 -4.5h178q49 0 79.5 -24.5t30.5 -71.5v-506q0 -48 -30.5 -72t-79.5 -24h-26q-5 0 -15.5 -2.5t-15.5 -5.5q-9 -8 -15 -18q-5 -7 -11 -8.5t-8 -1.5q-7 0 -15 4t-18 10.5t-17 12.5q-8 7 -8 16q0 7 8 7h131v1
q8 8 10 21.5t2 37.5v550q0 24 -2 37.5t-10 21.5q0 1 -1 1h-167l-1 -342h87q6 0 9.5 -2t5.5 -6t3 -9t1 -11q0 -2 -0.5 -3t-1.5 -1t-2 1q-3 3 -6 3h-8h-1.5h-3.5h-83v-236q0 -23 -8 -43.5t-22 -35.5t-34 -24t-44 -9q-12 0 -12 8q0 3 2 7q11 25 11 75v259h-56q-12 0 -17.5 8
t-5.5 20q0 2 1 3l1 1q1 0 1 -2t5 -2h11l60 -1v311q0 14 -7 21q-5 5 -10 6z" />
    <glyph glyph-name="dcroat" unicode="&#x111;" 
d="M60 443q-8 3 -8 12q0 13 13 14q9 1 24 1t32 -1t34 -2.5t30 -4.5v-1h145v97h-74q-12 0 -17.5 8t-5.5 21q0 1 1.5 2l1.5 1q1 0 1 -1q0 -3 4 -3h89v88q0 21 -14 28q-17 11 -35 14q-8 2 -10.5 6.5t-2.5 7.5q0 2 1 4q2 8 10.5 11t14.5 3h4q15 -1 33.5 -3.5t38 -5.5t37.5 -6.5
t32 -6.5q15 -5 17 -18v-5q0 -12 -7 -19q-3 -3 -7 -8t-5 -9q-1 -5 -1.5 -10.5t-0.5 -13.5v-58h72q6 0 9.5 -2t5.5 -5.5t2.5 -9t0.5 -11.5q0 -2 -0.5 -2.5t-1.5 -0.5l-1 1q-3 2 -6 2.5t-9 0.5h-1.5h-2.5h-68v-506q0 -20 -11 -28.5t-29 -8.5h-212q-5 -6 -26.5 -10t-56.5 -4
q-21 0 -21 21v396q0 11 -9 20q-3 3 -10 5zM184 448l1 -419h145v419h-146z" />
    <glyph glyph-name="Itilde" unicode="&#x128;" horiz-adv-x="312" 
d="M74 725q-8 2 -10.5 6t-2.5 7q0 2 1 4q2 8 10.5 11t14.5 3v0h1v0h1v0v0v0h2q15 -1 33.5 -3t38 -5t37.5 -7t32 -7q8 -2 12 -7t5 -11v0v-1v0v-1v0v-1v0v0q0 -13 -7 -20q-6 -6 -9 -16q-1 -5 -1.5 -10.5t-0.5 -13.5v-540q0 -23 -8 -43.5t-22.5 -35.5t-35 -24t-44.5 -9
q-12 0 -12 8q0 3 2 7q12 27 12 75v592q0 20 -14 28q-18 10 -35 14zM140 820q-10 7 -15 10t-7 5q-13 9 -26 9q-21 0 -42 -16.5t-32 -33.5q-9 -16 -12 -16.5l-3 -0.5q-4 0 -6 3q-2 2 -2 5q0 1 0.5 3l2.5 10q5 17 14.5 33.5t23 29.5t30 21.5t35.5 8.5t34 -9q4 -2 8.5 -4.5
t15.5 -8.5q10 -7 18 -12.5t13 -8.5q19 -13 32 -13q21 0 42 16.5t32 33.5q9 16 14 16t7 -2t2 -5q0 -1 -0.5 -3.5t-2.5 -9.5q-4 -16 -14 -32.5t-23.5 -30t-30 -22t-34.5 -8.5q-21 0 -45 15q-4 2 -11 6.5t-18 10.5z" />
    <glyph glyph-name="itilde" unicode="&#x129;" horiz-adv-x="248" 
d="M45 452q0 13 14 14q7 1 18 1t32.5 -1t47.5 -5q9 -2 15 -8.5t6 -15.5l-1 -408q-3 -18 -21 -23q-25 -5 -64 -5q-21 0 -21 20v393q0 12 -7 21q-5 4 -11 5q-8 3 -8 12zM82 557q-10 7 -15 10t-7 5q-13 9 -26 9q-21 0 -42 -16.5t-32 -33.5q-9 -16 -12 -16.5l-3 -0.5q-4 0 -6 3
q-2 2 -2 5q0 1 0.5 3l2.5 10q5 17 14.5 33.5t23 29.5t30 21.5t35.5 8.5t34 -9q4 -2 8.5 -4.5t15.5 -8.5q10 -7 18 -12.5t13 -8.5q19 -13 32 -13q21 0 42 16.5t32 33.5q9 16 14 16t7 -2t2 -5q0 -1 -0.5 -3.5t-2.5 -9.5q-4 -16 -14 -32.5t-23.5 -30t-30 -22t-34.5 -8.5
q-21 0 -45 15q-4 2 -11 6.5t-18 10.5z" />
    <glyph glyph-name="dotlessi" unicode="&#x131;" horiz-adv-x="248" 
d="M45 452q0 13 14 14q7 1 18 1t32.5 -1t47.5 -5q9 -2 15 -8.5t6 -15.5l-1 -408q-3 -18 -21 -23q-25 -5 -64 -5q-21 0 -21 20v393q0 12 -7 21q-5 4 -11 5q-8 3 -8 12z" />
    <glyph glyph-name="Utilde" unicode="&#x168;" horiz-adv-x="621" 
d="M542 109q0 -47 -30.5 -71.5t-80.5 -24.5h-215q-4 -6 -26 -10t-56 -4q-23 0 -23 20v657q0 20 -14 28q-19 11 -35 14q-8 2 -10.5 6.5t-2.5 7.5q0 2 1 4q2 8 10 11t14 3h1v0v0h1v0h1h1q15 -1 34 -3.5t38.5 -5.5t37.5 -6.5t32 -6.5q16 -5 16 -18v-1v0v-1v0v0v-1v0v-1
q0 -12 -6 -20q-3 -3 -5.5 -7t-3.5 -8q-1 -5 -1.5 -11t-0.5 -14v-618h202q6 14 9 25t3 34v575q0 28 3 40q2 7 4 11q3 6 6.5 10t6.5 7q4 4 8 6q6 3 11.5 5.5t10.5 2.5q3 0 6 -1q11 -2 29.5 -6.5t32.5 -10.5q5 -2 6.5 -5.5t1.5 -7.5q0 -10 -4 -14q-6 -7 -7.5 -8.5t-3.5 -9.5
t-2 -19v-553zM306 820q-10 7 -15 10t-7 5q-13 9 -26 9q-21 0 -42 -16.5t-32 -33.5q-9 -16 -12 -16.5l-3 -0.5q-4 0 -6 3q-2 2 -2 5q0 1 0.5 3l2.5 10q5 17 14.5 33.5t23 29.5t30 21.5t35.5 8.5t34 -9q4 -2 8.5 -4.5t15.5 -8.5q10 -7 18 -12.5t13 -8.5q19 -13 32 -13
q21 0 42 16.5t32 33.5q9 16 14 16t7 -2t2 -5q0 -1 -0.5 -3.5t-2.5 -9.5q-4 -16 -14 -32.5t-23.5 -30t-30 -22t-34.5 -8.5q-21 0 -45 15q-4 2 -11 6.5t-18 10.5z" />
    <glyph glyph-name="utilde" unicode="&#x169;" horiz-adv-x="503" 
d="M427 51q0 -20 -11 -28t-29 -8h-213q-4 -7 -26 -10.5t-56 -3.5q-21 0 -21 20v392q0 12 -7 21q-5 4 -11 5q-8 3 -8 12q0 13 14 14q9 1 23 1q7 0 24.5 -0.5t42.5 -3.5q12 -2 20 -10.5t8 -20.5v-402h144v406q0 10 6 17.5t15 9.5q8 3 17 8q11 7 19 7q3 0 6 -1q13 -3 27.5 -7.5
t24.5 -9.5q9 -3 9 -12q0 -8 -6 -14q-6 -5 -9 -14.5t-3 -21.5v-346zM221 557q-10 7 -15 10t-7 5q-13 9 -26 9q-21 0 -42 -16.5t-32 -33.5q-9 -16 -12 -16.5l-3 -0.5q-4 0 -6 3q-2 2 -2 5q0 1 0.5 3l2.5 10q5 17 14.5 33.5t23 29.5t30 21.5t35.5 8.5t34 -9q4 -2 8.5 -4.5
t15.5 -8.5q10 -7 18 -12.5t13 -8.5q19 -13 32 -13q21 0 42 16.5t32 33.5q9 16 14 16t7 -2t2 -5q0 -1 -0.5 -3.5t-2.5 -9.5q-4 -16 -14 -32.5t-23.5 -30t-30 -22t-34.5 -8.5q-21 0 -45 15q-4 2 -11 6.5t-18 10.5z" />
    <glyph glyph-name="Ohorn" unicode="&#x1a0;" horiz-adv-x="574" 
d="M110 2q-22 0 -22 20v664q0 14 -7 21q-5 5 -10 6q-8 2 -8 11q0 13 13 14q9 1 24 1t32 -1t34 -2.5t30 -4.5h132q8 0 23 2.5t26 9.5q9 7 19 7q3 0 6 -1q13 -3 27 -7.5t25 -9.5q9 -4 9 -12q0 -7 -6 -13q-12 -11 -12 -36v-17h2q17 0 29.5 9.5t13.5 23.5v1v1v1v0v1v0v1v1v3v1
v43q0 21 2 30q10 31 43 31v0h1v0v0v0h1v0v0q25 -1 47 -9q8 -3 8 -8q0 -4 -6 -9q-5 -4 -9.5 -9t-4.5 -12q-1 -6 -1.5 -14.5t-0.5 -14.5v-11q0 -35 -22 -53q-11 -9 -26 -13q-14 -5 -32.5 -8t-32.5 -10q-4 -2 -7 -4.5t-5 -4.5v-569q0 -20 -11 -28.5t-30 -8.5h-212
q-5 -6 -26.5 -9.5t-55.5 -3.5zM195 29h144v688h-144v-688z" />
    <glyph glyph-name="ohorn" unicode="&#x1a1;" horiz-adv-x="593" 
d="M367 471q6 4 10.5 5.5t8.5 1.5q3 0 7 -1q12 -3 26.5 -7.5t24.5 -9.5q9 -3 9 -12q0 -8 -6 -14q-6 -5 -9 -14q-2 -5 -2 -11q14 2 23.5 11.5t10.5 21.5v0v1v1v1v1v0v4v1v0v44q0 20 2 29q9 31 41 31v0h1h1v0v0h2q25 -1 48 -9q7 -2 7.5 -4.5l0.5 -2.5q0 -4 -7 -9
q-5 -5 -9 -9.5t-5 -11.5q-1 -6 -1.5 -14.5t-0.5 -14.5v-12q0 -34 -22 -52q-11 -9 -25 -14q-15 -5 -33.5 -7.5t-32.5 -10.5q-1 0 -2 -1v-331q0 -20 -11 -28t-29 -8h-213q-4 -7 -26 -10.5t-56 -3.5q-21 0 -21 20v392q0 5 -1.5 11t-5.5 10q-3 3 -11 5q-8 3 -8 12q0 12 14 14
q9 1 23.5 1t31.5 -1t34 -2.5t30 -4.5h133q8 0 23 2.5t25 9.5zM330 445h-145v-415h145v415z" />
    <glyph glyph-name="Uhorn" unicode="&#x1af;" horiz-adv-x="667" 
d="M542 109q0 -47 -30.5 -71.5t-80.5 -24.5h-215q-4 -6 -26 -10t-56 -4q-23 0 -23 20v657q0 20 -14 28q-19 11 -35 14q-8 2 -10.5 6.5t-2.5 7.5q0 2 1 4q2 8 10 11t14 3h1v0v0h1v0h1h1q15 -1 34 -3.5t38.5 -5.5t37.5 -6.5t32 -6.5q16 -5 16 -18v-1v0v-1v0v0v-1v0v-1
q0 -12 -6 -20q-3 -3 -5.5 -7t-3.5 -8q-1 -5 -1.5 -11t-0.5 -14v-618h202q6 14 9 25t3 34v575q0 28 3 40q2 7 4 11q3 6 6.5 10t6.5 7q4 4 8 6q6 3 11.5 5.5t10.5 2.5q3 0 6 -1q11 -2 29.5 -6.5t32.5 -10.5q5 -2 6.5 -5.5t1.5 -7.5q0 -10 -4 -14q-6 -7 -7.5 -8.5t-3.5 -9.5
t-2 -19v-8q15 2 25.5 11t11.5 22q1 5 1 11v43v0v1v0v1v0v0v1v0v6q0 13 2 20q10 31 42 31v0h1v0v0v0h1v0v0q26 -1 48 -9q8 -3 8 -8q0 -4 -6 -9q-14 -9 -15 -21q0 -6 -0.5 -14.5t-0.5 -14.5v-11q0 -35 -23 -53q-11 -9 -25 -13q-14 -5 -32.5 -8t-32.5 -10q-4 -2 -5 -3v-518z
" />
    <glyph glyph-name="uhorn" unicode="&#x1b0;" horiz-adv-x="588" 
d="M427 51q0 -20 -11 -28t-29 -8h-213q-4 -7 -26 -10.5t-56 -3.5q-21 0 -21 20v392q0 12 -7 21q-5 4 -11 5q-8 3 -8 12q0 13 14 14q9 1 23 1q7 0 24.5 -0.5t42.5 -3.5q12 -2 20 -10.5t8 -20.5v-402h144v406q0 10 6 17.5t15 9.5q8 3 17 8q11 7 19 7q3 0 6 -1q13 -3 27.5 -7.5
t24.5 -9.5q9 -3 9 -12q0 -8 -6 -14q-6 -5 -9 -14v0v-1v0v-1v0l-1 -1v0v-1v0v-1v0v-1v0v-1v0l-1 -1v0v-1v0v-1q17 0 29 9.5t13 23.5v0v1v1v1v1v0v4v1v0v44q0 20 2 29q9 31 41 31v0h1h1v0v0h2q25 -1 48 -9q7 -2 7.5 -4.5l0.5 -2.5q0 -4 -7 -9q-5 -5 -9 -9.5t-5 -11.5
q-1 -6 -1.5 -14.5t-0.5 -14.5v-12q0 -34 -22 -52q-11 -9 -25 -14q-15 -5 -33.5 -7.5t-32.5 -10.5q-4 -2 -10 -6v-327z" />
    <glyph glyph-name="circumflex" unicode="&#x2c6;" horiz-adv-x="418" 
d="M121 557q-9 -4 -15.5 -6.5t-11.5 -4.5q-6 -1 -10 -3q-5 1 -6 3t-1 3v0v1t0.5 2.5t4.5 3.5q19 10 43 27.5t46.5 38t41.5 42t30 40.5q3 5 3 9q0 5 -4 10v0l-1 1v0l-3 3l-1 1v1q-3 2 -8 5q-4 3 -4 7v1v0v0v0v0v1v0q1 3 4.5 5t7.5 2h1v0v0h1v0h1h1q6 -1 17 -5t21.5 -9
t20 -9.5t14.5 -7.5q3 -2 4 -5.5t1 -5.5q0 -4 -4 -8q-5 -4 -10.5 -10.5t-11.5 -12.5q-5 -7 -11 -12q6 -7 13 -14q20 -21 44 -40t49 -35t45 -25q3 -2 4 -3.5t1 -3.5q0 -1 -1 -3t-6 -2q-4 1 -10 2q-5 2 -12 4t-15 5q-33 13 -53.5 22.5t-41.5 22t-43 28.5v0l-1 1v0l-1 1v0h-1v0
l-1 1v0l-1 1v0l-1 1v0l-1 1v0h-1v1h-1v0l-1 1q-17 -13 -33 -24q-21 -14 -40.5 -24.5t-51.5 -25.5z" />
    <glyph glyph-name="breve" unicode="&#x2d8;" horiz-adv-x="255" 
d="M29 425q11 0 11 -11v-69q0 -20 11.5 -31.5t31.5 -11.5h97q23 0 23 22v70q0 20 16.5 32t36.5 12q11 0 11 -11v-85q0 -27 -16.5 -44t-44.5 -17h-137q-35 0 -57 22t-22 58v53q0 11 11 11h28z" />
    <glyph glyph-name="tilde" unicode="&#x2dc;" horiz-adv-x="246" 
d="M105 540q-10 7 -15 10t-7 5q-13 9 -26 9q-21 0 -42 -16.5t-32 -33.5q-9 -16 -12 -16.5l-3 -0.5q-4 0 -6 3q-2 2 -2 5q0 1 0.5 3l2.5 10q5 17 14.5 33.5t23 29.5t30 21.5t35.5 8.5t34 -9q4 -2 8.5 -4.5t15.5 -8.5q10 -7 18 -12.5t13 -8.5q19 -13 32 -13q21 0 42 16.5
t32 33.5q9 16 14 16t7 -2t2 -5q0 -1 -0.5 -3.5t-2.5 -9.5q-4 -16 -14 -32.5t-23.5 -30t-30 -22t-34.5 -8.5q-21 0 -45 15q-4 2 -11 6.5t-18 10.5z" />
    <glyph glyph-name="uni1EA0" unicode="&#x1ea0;" horiz-adv-x="523" 
d="M62 714q-8 2 -8 11q0 13 13 14q9 1 24 1t32 -1t34 -2.5t30 -4.5h163q8 2 16.5 4t14.5 7q9 7 19 7q3 0 6 -1q13 -3 27 -8t25 -9q8 -3 8 -12v-1q0 -8 -5 -13q-8 -10 -8 -33v-598q0 -17 -12 -31t-29.5 -23.5t-36.5 -15t-32 -5.5q-10 0 -10 7q0 2 1 5q5 13 7 25.5t2 37.5v470
q-39 -12 -75 -33q-23 -13 -43 -29t-38 -35l-1 -336q0 -23 -8 -43.5t-22 -35.5t-34.5 -24t-44.5 -9q-6 0 -8.5 2.5t-2.5 6.5q0 2 1 6q12 27 12 75v597q0 14 -7 21q-5 5 -10 6zM187 471q17 16 35 30t38 25q40 24 83 34v157h-156v-246zM202 -42q0 20 20 20h69q20 0 20 -20v-18
q0 -20 -20 -20h-69q-20 0 -20 20v18z" />
    <glyph glyph-name="uni1EA1" unicode="&#x1ea1;" 
d="M101 1q-21 0 -21 20v392q0 12 -7 21q-5 4 -11 5q-8 3 -8 12q0 13 14 14q9 1 23.5 1t31.5 -1t34 -2.5t30 -4.5h132q8 0 23.5 2.5t25.5 9.5q11 7 19 7q3 0 6 -1q13 -3 27.5 -7.5t24.5 -9.5q9 -3 9 -12q0 -8 -6 -14q-6 -5 -9 -14.5t-3 -21.5v-302q0 -24 4.5 -44.5
t10.5 -34.5q2 -4 2 -7q0 -7 -12 -7q-49 0 -79.5 32t-30.5 80v7q-20 -8 -39 -18t-38 -23q-39 -29 -71 -65q0 -1 -0.5 -1t-0.5 -1q-7 -5 -28 -8.5t-53 -3.5zM186 444v-402q26 27 59 51q40 28 86 45l-1 306h-144zM211 -42q0 20 20 20h69q20 0 20 -20v-18q0 -20 -20 -20h-69
q-20 0 -20 20v18z" />
    <glyph glyph-name="uni1EA2" unicode="&#x1ea2;" horiz-adv-x="523" 
d="M62 714q-8 2 -8 11q0 13 13 14q9 1 24 1t32 -1t34 -2.5t30 -4.5h163q8 2 16.5 4t14.5 7q9 7 19 7q3 0 6 -1q13 -3 27 -8t25 -9q8 -3 8 -12v-1q0 -8 -5 -13q-8 -10 -8 -33v-598q0 -17 -12 -31t-29.5 -23.5t-36.5 -15t-32 -5.5q-10 0 -10 7q0 2 1 5q5 13 7 25.5t2 37.5v470
q-39 -12 -75 -33q-23 -13 -43 -29t-38 -35l-1 -336q0 -23 -8 -43.5t-22 -35.5t-34.5 -24t-44.5 -9q-6 0 -8.5 2.5t-2.5 6.5q0 2 1 6q12 27 12 75v597q0 14 -7 21q-5 5 -10 6zM187 471q17 16 35 30t38 25q40 24 83 34v157h-156v-246zM234 914q-6 -4 -10 -11.5t-8 -8.5
q-3 -1 -5 -1q-3 0 -5.5 1.5t-2.5 4.5t-1.5 15.5t-2 18t-0.5 8.5t0.5 8t1.5 10q1 3 3 4.5t4 1.5q6 0 7 -4q1 -3 1.5 -5t1.5 -4q3 -5 9 -5v0h1v0v0h1v0q8 4 17.5 9.5t20 10.5t19.5 7.5t16 2.5q4 0 9 -1q8 -1 18.5 -6.5t19.5 -15.5t12.5 -20.5t3.5 -19.5q0 -8 -2 -17
q-4 -18 -17 -32t-26.5 -25t-24.5 -20t-12 -16q0 -4 6 -6t23 -2q5 0 5 -2t-6.5 -7.5t-23.5 -5.5q-13 0 -24 7q-10 6 -11 12t-1 8q0 8 4 16.5t12 17.5t15 15q16 12 22.5 23t7 16t0.5 6q0 9 -5 15.5t-13 9.5q-5 2 -12 2t-20 -2.5t-28 -12.5z" />
    <glyph glyph-name="uni1EA3" unicode="&#x1ea3;" 
d="M101 1q-21 0 -21 20v392q0 12 -7 21q-5 4 -11 5q-8 3 -8 12q0 13 14 14q9 1 23.5 1t31.5 -1t34 -2.5t30 -4.5h132q8 0 23.5 2.5t25.5 9.5q11 7 19 7q3 0 6 -1q13 -3 27.5 -7.5t24.5 -9.5q9 -3 9 -12q0 -8 -6 -14q-6 -5 -9 -14.5t-3 -21.5v-302q0 -24 4.5 -44.5
t10.5 -34.5q2 -4 2 -7q0 -7 -12 -7q-49 0 -79.5 32t-30.5 80v7q-20 -8 -39 -18t-38 -23q-39 -29 -71 -65q0 -1 -0.5 -1t-0.5 -1q-7 -5 -28 -8.5t-53 -3.5zM186 444v-402q26 27 59 51q40 28 86 45l-1 306h-144zM215 651q-6 -4 -10 -11.5t-8 -8.5q-3 -1 -5 -1q-3 0 -5.5 1.5
t-2.5 4.5t-1.5 15.5t-2 18t-0.5 8.5t0.5 8t1.5 10q1 3 3 4.5t4 1.5q6 0 7 -4q1 -3 1.5 -5t1.5 -4q3 -5 9 -5v0h1v0v0h1v0q8 4 17.5 9.5t20 10.5t19.5 7.5t16 2.5q4 0 9 -1q8 -1 18.5 -6.5t19.5 -15.5t12.5 -20.5t3.5 -19.5q0 -8 -2 -17q-4 -18 -17 -32t-26.5 -25t-24.5 -20
t-12 -16q0 -4 6 -6t23 -2q5 0 5 -2t-6.5 -7.5t-23.5 -5.5q-13 0 -24 7q-10 6 -11 12t-1 8q0 8 4 16.5t12 17.5t15 15q16 12 22.5 23t7 16t0.5 6q0 9 -5 15.5t-13 9.5q-5 2 -12 2t-20 -2.5t-28 -12.5z" />
    <glyph glyph-name="uni1EA4" unicode="&#x1ea4;" horiz-adv-x="523" 
d="M62 714q-8 2 -8 11q0 13 13 14q9 1 24 1t32 -1t34 -2.5t30 -4.5h163q8 2 16.5 4t14.5 7q9 7 19 7q3 0 6 -1q13 -3 27 -8t25 -9q8 -3 8 -12v-1q0 -8 -5 -13q-8 -10 -8 -33v-598q0 -17 -12 -31t-29.5 -23.5t-36.5 -15t-32 -5.5q-10 0 -10 7q0 2 1 5q5 13 7 25.5t2 37.5v470
q-39 -12 -75 -33q-23 -13 -43 -29t-38 -35l-1 -336q0 -23 -8 -43.5t-22 -35.5t-34.5 -24t-44.5 -9q-6 0 -8.5 2.5t-2.5 6.5q0 2 1 6q12 27 12 75v597q0 14 -7 21q-5 5 -10 6zM187 471q17 16 35 30t38 25q40 24 83 34v157h-156v-246zM142 789q-9 -4 -15.5 -6.5t-11.5 -4.5
q-6 -1 -10 -3q-5 1 -6 3t-1 3v0v1t0.5 2.5t4.5 3.5q19 10 43 27.5t46.5 38t41.5 42t30 40.5q3 5 3 9q0 5 -4 10v0l-1 1v0l-3 3l-1 1v1q-3 2 -8 5q-4 3 -4 7v1v0v0v0v0v1v0q1 3 4.5 5t7.5 2h1v0v0h1v0h1h1q6 -1 17 -5t21.5 -9t20 -9.5t14.5 -7.5q3 -2 4 -5.5t1 -5.5
q0 -4 -4 -8q-5 -4 -10.5 -10.5t-11.5 -12.5q-5 -7 -11 -12q6 -7 13 -14q20 -21 44 -40t49 -35t45 -25q3 -2 4 -3.5t1 -3.5q0 -1 -1 -3t-6 -2q-4 1 -10 2q-5 2 -12 4t-15 5q-33 13 -53.5 22.5t-41.5 22t-43 28.5v0l-1 1v0l-1 1v0h-1v0l-1 1v0l-1 1v0l-1 1v0l-1 1v0h-1v1h-1v0
l-1 1q-17 -13 -33 -24q-21 -14 -40.5 -24.5t-51.5 -25.5zM421 884q-9 -3 -16 -4.5t-12 -2.5q-6 -1 -10 -1q-5 1 -5.5 3t-0.5 3v0v1v0v0v0v0v1q0 1 1 2t5 2q20 7 46.5 20.5t52 30.5t47.5 35.5t35 35.5q5 6 5 11q0 4 -2 8q-3 3 -5 6t-6 7q-4 2 -4 6q0 1 1 3q2 3 5 4.5t6 1.5
q2 0 5 -1q7 -2 17 -7.5t19.5 -12.5t18 -12.5t13.5 -9.5q3 -2 3.5 -5.5l0.5 -3.5q0 -6 -6 -10q-6 -3 -12 -9t-13 -11q-22 -18 -45 -32t-45.5 -24.5t-43.5 -18t-55 -16.5z" />
    <glyph glyph-name="uni1EA5" unicode="&#x1ea5;" 
d="M101 1q-21 0 -21 20v392q0 12 -7 21q-5 4 -11 5q-8 3 -8 12q0 13 14 14q9 1 23.5 1t31.5 -1t34 -2.5t30 -4.5h132q8 0 23.5 2.5t25.5 9.5q11 7 19 7q3 0 6 -1q13 -3 27.5 -7.5t24.5 -9.5q9 -3 9 -12q0 -8 -6 -14q-6 -5 -9 -14.5t-3 -21.5v-302q0 -24 4.5 -44.5
t10.5 -34.5q2 -4 2 -7q0 -7 -12 -7q-49 0 -79.5 32t-30.5 80v7q-20 -8 -39 -18t-38 -23q-39 -29 -71 -65q0 -1 -0.5 -1t-0.5 -1q-7 -5 -28 -8.5t-53 -3.5zM186 444v-402q26 27 59 51q40 28 86 45l-1 306h-144zM142 526q-9 -4 -15.5 -6.5t-11.5 -4.5q-6 -1 -10 -3q-5 1 -6 3
t-1 3v0v1t0.5 2.5t4.5 3.5q19 10 43 27.5t46.5 38t41.5 42t30 40.5q3 5 3 9q0 5 -4 10v0l-1 1v0l-3 3l-1 1v1q-3 2 -8 5q-4 3 -4 7v1v0v0v0v0v1v0q1 3 4.5 5t7.5 2h1v0v0h1v0h1h1q6 -1 17 -5t21.5 -9t20 -9.5t14.5 -7.5q3 -2 4 -5.5t1 -5.5q0 -4 -4 -8q-5 -4 -10.5 -10.5
t-11.5 -12.5q-5 -7 -11 -12q6 -7 13 -14q20 -21 44 -40t49 -35t45 -25q3 -2 4 -3.5t1 -3.5q0 -1 -1 -3t-6 -2q-4 1 -10 2q-5 2 -12 4t-15 5q-33 13 -53.5 22.5t-41.5 22t-43 28.5v0l-1 1v0l-1 1v0h-1v0l-1 1v0l-1 1v0l-1 1v0l-1 1v0h-1v1h-1v0l-1 1q-17 -13 -33 -24
q-21 -14 -40.5 -24.5t-51.5 -25.5zM421 621q-9 -3 -16 -4.5t-12 -2.5q-6 -1 -10 -1q-5 1 -5.5 3t-0.5 3v0v1v0v0v0v0v1q0 1 1 2t5 2q20 7 46.5 20.5t52 30.5t47.5 35.5t35 35.5q5 6 5 11q0 4 -2 8q-3 3 -5 6t-6 7q-4 2 -4 6q0 1 1 3q2 3 5 4.5t6 1.5q2 0 5 -1q7 -2 17 -7.5
t19.5 -12.5t18 -12.5t13.5 -9.5q3 -2 3.5 -5.5l0.5 -3.5q0 -6 -6 -10q-6 -3 -12 -9t-13 -11q-22 -18 -45 -32t-45.5 -24.5t-43.5 -18t-55 -16.5z" />
    <glyph glyph-name="uni1EA6" unicode="&#x1ea6;" horiz-adv-x="523" 
d="M62 714q-8 2 -8 11q0 13 13 14q9 1 24 1t32 -1t34 -2.5t30 -4.5h163q8 2 16.5 4t14.5 7q9 7 19 7q3 0 6 -1q13 -3 27 -8t25 -9q8 -3 8 -12v-1q0 -8 -5 -13q-8 -10 -8 -33v-598q0 -17 -12 -31t-29.5 -23.5t-36.5 -15t-32 -5.5q-10 0 -10 7q0 2 1 5q5 13 7 25.5t2 37.5v470
q-39 -12 -75 -33q-23 -13 -43 -29t-38 -35l-1 -336q0 -23 -8 -43.5t-22 -35.5t-34.5 -24t-44.5 -9q-6 0 -8.5 2.5t-2.5 6.5q0 2 1 6q12 27 12 75v597q0 14 -7 21q-5 5 -10 6zM187 471q17 16 35 30t38 25q40 24 83 34v157h-156v-246zM142 789q-9 -4 -15.5 -6.5t-11.5 -4.5
q-6 -1 -10 -3q-5 1 -6 3t-1 3v0v1t0.5 2.5t4.5 3.5q19 10 43 27.5t46.5 38t41.5 42t30 40.5q3 5 3 9q0 5 -4 10v0l-1 1v0l-3 3l-1 1v1q-3 2 -8 5q-4 3 -4 7v1v0v0v0v0v1v0q1 3 4.5 5t7.5 2h1v0v0h1v0h1h1q6 -1 17 -5t21.5 -9t20 -9.5t14.5 -7.5q3 -2 4 -5.5t1 -5.5
q0 -4 -4 -8q-5 -4 -10.5 -10.5t-11.5 -12.5q-5 -7 -11 -12q6 -7 13 -14q20 -21 44 -40t49 -35t45 -25q3 -2 4 -3.5t1 -3.5q0 -1 -1 -3t-6 -2q-4 1 -10 2q-5 2 -12 4t-15 5q-33 13 -53.5 22.5t-41.5 22t-43 28.5v0l-1 1v0l-1 1v0h-1v0l-1 1v0l-1 1v0l-1 1v0l-1 1v0h-1v1h-1v0
l-1 1q-17 -13 -33 -24q-21 -14 -40.5 -24.5t-51.5 -25.5zM136 884q-34 9 -55 16.5t-43.5 18t-45.5 24.5t-45 32q-7 5 -13 11t-12 9q-5 4 -5 10.5t3 8.5q5 4 13.5 9.5t18 12.5t19.5 12.5t17 7.5q3 1 6 1q2 0 5.5 -1.5t4.5 -4.5q1 -2 1 -4q0 -3 -3 -5q-5 -4 -7 -7t-5 -6
q-2 -4 -2 -8q0 -5 5 -11q13 -17 35 -35.5t47.5 -35.5t52 -30.5t46.5 -20.5q4 -1 5 -2t1 -2v-1v0v0v0v-1q0 -1 -0.5 -3t-5.5 -3q-4 0 -10 1q-5 1 -12 2.5t-16 4.5z" />
    <glyph glyph-name="uni1EA7" unicode="&#x1ea7;" 
d="M101 1q-21 0 -21 20v392q0 12 -7 21q-5 4 -11 5q-8 3 -8 12q0 13 14 14q9 1 23.5 1t31.5 -1t34 -2.5t30 -4.5h132q8 0 23.5 2.5t25.5 9.5q11 7 19 7q3 0 6 -1q13 -3 27.5 -7.5t24.5 -9.5q9 -3 9 -12q0 -8 -6 -14q-6 -5 -9 -14.5t-3 -21.5v-302q0 -24 4.5 -44.5
t10.5 -34.5q2 -4 2 -7q0 -7 -12 -7q-49 0 -79.5 32t-30.5 80v7q-20 -8 -39 -18t-38 -23q-39 -29 -71 -65q0 -1 -0.5 -1t-0.5 -1q-7 -5 -28 -8.5t-53 -3.5zM186 444v-402q26 27 59 51q40 28 86 45l-1 306h-144zM142 526q-9 -4 -15.5 -6.5t-11.5 -4.5q-6 -1 -10 -3q-5 1 -6 3
t-1 3v0v1t0.5 2.5t4.5 3.5q19 10 43 27.5t46.5 38t41.5 42t30 40.5q3 5 3 9q0 5 -4 10v0l-1 1v0l-3 3l-1 1v1q-3 2 -8 5q-4 3 -4 7v1v0v0v0v0v1v0q1 3 4.5 5t7.5 2h1v0v0h1v0h1h1q6 -1 17 -5t21.5 -9t20 -9.5t14.5 -7.5q3 -2 4 -5.5t1 -5.5q0 -4 -4 -8q-5 -4 -10.5 -10.5
t-11.5 -12.5q-5 -7 -11 -12q6 -7 13 -14q20 -21 44 -40t49 -35t45 -25q3 -2 4 -3.5t1 -3.5q0 -1 -1 -3t-6 -2q-4 1 -10 2q-5 2 -12 4t-15 5q-33 13 -53.5 22.5t-41.5 22t-43 28.5v0l-1 1v0l-1 1v0h-1v0l-1 1v0l-1 1v0l-1 1v0l-1 1v0h-1v1h-1v0l-1 1q-17 -13 -33 -24
q-21 -14 -40.5 -24.5t-51.5 -25.5zM135 621q-34 9 -55 16.5t-43.5 18t-45.5 24.5t-45 32q-7 5 -13 11t-12 9q-5 4 -5 10.5t3 8.5q5 4 13.5 9.5t18 12.5t19.5 12.5t17 7.5q3 1 6 1q2 0 5.5 -1.5t4.5 -4.5q1 -2 1 -4q0 -3 -3 -5q-5 -4 -7 -7t-5 -6q-2 -4 -2 -8q0 -5 5 -11
q13 -17 35 -35.5t47.5 -35.5t52 -30.5t46.5 -20.5q4 -1 5 -2t1 -2v-1v0v0v0v-1q0 -1 -0.5 -3t-5.5 -3q-4 0 -10 1q-5 1 -12 2.5t-16 4.5z" />
    <glyph glyph-name="uni1EA8" unicode="&#x1ea8;" horiz-adv-x="523" 
d="M62 714q-8 2 -8 11q0 13 13 14q9 1 24 1t32 -1t34 -2.5t30 -4.5h163q8 2 16.5 4t14.5 7q9 7 19 7q3 0 6 -1q13 -3 27 -8t25 -9q8 -3 8 -12v-1q0 -8 -5 -13q-8 -10 -8 -33v-598q0 -17 -12 -31t-29.5 -23.5t-36.5 -15t-32 -5.5q-10 0 -10 7q0 2 1 5q5 13 7 25.5t2 37.5v470
q-39 -12 -75 -33q-23 -13 -43 -29t-38 -35l-1 -336q0 -23 -8 -43.5t-22 -35.5t-34.5 -24t-44.5 -9q-6 0 -8.5 2.5t-2.5 6.5q0 2 1 6q12 27 12 75v597q0 14 -7 21q-5 5 -10 6zM187 471q17 16 35 30t38 25q40 24 83 34v157h-156v-246zM142 789q-9 -4 -15.5 -6.5t-11.5 -4.5
q-6 -1 -10 -3q-5 1 -6 3t-1 3v0v1t0.5 2.5t4.5 3.5q19 10 43 27.5t46.5 38t41.5 42t30 40.5q3 5 3 9q0 5 -4 10v0l-1 1v0l-3 3l-1 1v1q-3 2 -8 5q-4 3 -4 7v1v0v0v0v0v1v0q1 3 4.5 5t7.5 2h1v0v0h1v0h1h1q6 -1 17 -5t21.5 -9t20 -9.5t14.5 -7.5q3 -2 4 -5.5t1 -5.5
q0 -4 -4 -8q-5 -4 -10.5 -10.5t-11.5 -12.5q-5 -7 -11 -12q6 -7 13 -14q20 -21 44 -40t49 -35t45 -25q3 -2 4 -3.5t1 -3.5q0 -1 -1 -3t-6 -2q-4 1 -10 2q-5 2 -12 4t-15 5q-33 13 -53.5 22.5t-41.5 22t-43 28.5v0l-1 1v0l-1 1v0h-1v0l-1 1v0l-1 1v0l-1 1v0l-1 1v0h-1v1h-1v0
l-1 1q-17 -13 -33 -24q-21 -14 -40.5 -24.5t-51.5 -25.5zM375 1026q-6 -4 -10 -11.5t-8 -8.5q-3 -1 -5 -1q-3 0 -5.5 1.5t-2.5 4.5t-1.5 15.5t-2 18t-0.5 8.5t0.5 8t1.5 10q1 3 3 4.5t4 1.5q6 0 7 -4q1 -3 1.5 -5t1.5 -4q3 -5 9 -5v0h1v0v0h1v0q8 4 17.5 9.5t20 10.5
t19.5 7.5t16 2.5q4 0 9 -1q8 -1 18.5 -6.5t19.5 -15.5t12.5 -20.5t3.5 -19.5q0 -8 -2 -17q-4 -18 -17 -32t-26.5 -25t-24.5 -20t-12 -16q0 -4 6 -6t23 -2q5 0 5 -2t-6.5 -7.5t-23.5 -5.5q-13 0 -24 7q-10 6 -11 12t-1 8q0 8 4 16.5t12 17.5t15 15q16 12 22.5 23t7 16t0.5 6
q0 9 -5 15.5t-13 9.5q-5 2 -12 2t-20 -2.5t-28 -12.5z" />
    <glyph glyph-name="uni1EA9" unicode="&#x1ea9;" 
d="M101 1q-21 0 -21 20v392q0 12 -7 21q-5 4 -11 5q-8 3 -8 12q0 13 14 14q9 1 23.5 1t31.5 -1t34 -2.5t30 -4.5h132q8 0 23.5 2.5t25.5 9.5q11 7 19 7q3 0 6 -1q13 -3 27.5 -7.5t24.5 -9.5q9 -3 9 -12q0 -8 -6 -14q-6 -5 -9 -14.5t-3 -21.5v-302q0 -24 4.5 -44.5
t10.5 -34.5q2 -4 2 -7q0 -7 -12 -7q-49 0 -79.5 32t-30.5 80v7q-20 -8 -39 -18t-38 -23q-39 -29 -71 -65q0 -1 -0.5 -1t-0.5 -1q-7 -5 -28 -8.5t-53 -3.5zM186 444v-402q26 27 59 51q40 28 86 45l-1 306h-144zM142 526q-9 -4 -15.5 -6.5t-11.5 -4.5q-6 -1 -10 -3q-5 1 -6 3
t-1 3v0v1t0.5 2.5t4.5 3.5q19 10 43 27.5t46.5 38t41.5 42t30 40.5q3 5 3 9q0 5 -4 10v0l-1 1v0l-3 3l-1 1v1q-3 2 -8 5q-4 3 -4 7v1v0v0v0v0v1v0q1 3 4.5 5t7.5 2h1v0v0h1v0h1h1q6 -1 17 -5t21.5 -9t20 -9.5t14.5 -7.5q3 -2 4 -5.5t1 -5.5q0 -4 -4 -8q-5 -4 -10.5 -10.5
t-11.5 -12.5q-5 -7 -11 -12q6 -7 13 -14q20 -21 44 -40t49 -35t45 -25q3 -2 4 -3.5t1 -3.5q0 -1 -1 -3t-6 -2q-4 1 -10 2q-5 2 -12 4t-15 5q-33 13 -53.5 22.5t-41.5 22t-43 28.5v0l-1 1v0l-1 1v0h-1v0l-1 1v0l-1 1v0l-1 1v0l-1 1v0h-1v1h-1v0l-1 1q-17 -13 -33 -24
q-21 -14 -40.5 -24.5t-51.5 -25.5zM375 763q-6 -4 -10 -11.5t-8 -8.5q-3 -1 -5 -1q-3 0 -5.5 1.5t-2.5 4.5t-1.5 15.5t-2 18t-0.5 8.5t0.5 8t1.5 10q1 3 3 4.5t4 1.5q6 0 7 -4q1 -3 1.5 -5t1.5 -4q3 -5 9 -5v0h1v0v0h1v0q8 4 17.5 9.5t20 10.5t19.5 7.5t16 2.5q4 0 9 -1
q8 -1 18.5 -6.5t19.5 -15.5t12.5 -20.5t3.5 -19.5q0 -8 -2 -17q-4 -18 -17 -32t-26.5 -25t-24.5 -20t-12 -16q0 -4 6 -6t23 -2q5 0 5 -2t-6.5 -7.5t-23.5 -5.5q-13 0 -24 7q-10 6 -11 12t-1 8q0 8 4 16.5t12 17.5t15 15q16 12 22.5 23t7 16t0.5 6q0 9 -5 15.5t-13 9.5
q-5 2 -12 2t-20 -2.5t-28 -12.5z" />
    <glyph glyph-name="uni1EAA" unicode="&#x1eaa;" horiz-adv-x="523" 
d="M62 714q-8 2 -8 11q0 13 13 14q9 1 24 1t32 -1t34 -2.5t30 -4.5h163q8 2 16.5 4t14.5 7q9 7 19 7q3 0 6 -1q13 -3 27 -8t25 -9q8 -3 8 -12v-1q0 -8 -5 -13q-8 -10 -8 -33v-598q0 -17 -12 -31t-29.5 -23.5t-36.5 -15t-32 -5.5q-10 0 -10 7q0 2 1 5q5 13 7 25.5t2 37.5v470
q-39 -12 -75 -33q-23 -13 -43 -29t-38 -35l-1 -336q0 -23 -8 -43.5t-22 -35.5t-34.5 -24t-44.5 -9q-6 0 -8.5 2.5t-2.5 6.5q0 2 1 6q12 27 12 75v597q0 14 -7 21q-5 5 -10 6zM187 471q17 16 35 30t38 25q40 24 83 34v157h-156v-246zM142 789q-9 -4 -15.5 -6.5t-11.5 -4.5
q-6 -1 -10 -3q-5 1 -6 3t-1 3v0v1t0.5 2.5t4.5 3.5q19 10 43 27.5t46.5 38t41.5 42t30 40.5q3 5 3 9q0 5 -4 10v0l-1 1v0l-3 3l-1 1v1q-3 2 -8 5q-4 3 -4 7v1v0v0v0v0v1v0q1 3 4.5 5t7.5 2h1v0v0h1v0h1h1q6 -1 17 -5t21.5 -9t20 -9.5t14.5 -7.5q3 -2 4 -5.5t1 -5.5
q0 -4 -4 -8q-5 -4 -10.5 -10.5t-11.5 -12.5q-5 -7 -11 -12q6 -7 13 -14q20 -21 44 -40t49 -35t45 -25q3 -2 4 -3.5t1 -3.5q0 -1 -1 -3t-6 -2q-4 1 -10 2q-5 2 -12 4t-15 5q-33 13 -53.5 22.5t-41.5 22t-43 28.5v0l-1 1v0l-1 1v0h-1v0l-1 1v0l-1 1v0l-1 1v0l-1 1v0h-1v1h-1v0
l-1 1q-17 -13 -33 -24q-21 -14 -40.5 -24.5t-51.5 -25.5zM282 1039q-10 7 -15 10t-7 5q-13 9 -26 9q-21 0 -42 -16.5t-32 -33.5q-9 -16 -12 -16.5l-3 -0.5q-4 0 -6 3q-2 2 -2 5q0 1 0.5 3l2.5 10q5 17 14.5 33.5t23 29.5t30 21.5t35.5 8.5t34 -9q4 -2 8.5 -4.5t15.5 -8.5
q10 -7 18 -12.5t13 -8.5q19 -13 32 -13q21 0 42 16.5t32 33.5q9 16 14 16t7 -2t2 -5q0 -1 -0.5 -3.5t-2.5 -9.5q-4 -16 -14 -32.5t-23.5 -30t-30 -22t-34.5 -8.5q-21 0 -45 15q-4 2 -11 6.5t-18 10.5z" />
    <glyph glyph-name="uni1EAB" unicode="&#x1eab;" 
d="M101 1q-21 0 -21 20v392q0 12 -7 21q-5 4 -11 5q-8 3 -8 12q0 13 14 14q9 1 23.5 1t31.5 -1t34 -2.5t30 -4.5h132q8 0 23.5 2.5t25.5 9.5q11 7 19 7q3 0 6 -1q13 -3 27.5 -7.5t24.5 -9.5q9 -3 9 -12q0 -8 -6 -14q-6 -5 -9 -14.5t-3 -21.5v-302q0 -24 4.5 -44.5
t10.5 -34.5q2 -4 2 -7q0 -7 -12 -7q-49 0 -79.5 32t-30.5 80v7q-20 -8 -39 -18t-38 -23q-39 -29 -71 -65q0 -1 -0.5 -1t-0.5 -1q-7 -5 -28 -8.5t-53 -3.5zM186 444v-402q26 27 59 51q40 28 86 45l-1 306h-144zM142 526q-9 -4 -15.5 -6.5t-11.5 -4.5q-6 -1 -10 -3q-5 1 -6 3
t-1 3v0v1t0.5 2.5t4.5 3.5q19 10 43 27.5t46.5 38t41.5 42t30 40.5q3 5 3 9q0 5 -4 10v0l-1 1v0l-3 3l-1 1v1q-3 2 -8 5q-4 3 -4 7v1v0v0v0v0v1v0q1 3 4.5 5t7.5 2h1v0v0h1v0h1h1q6 -1 17 -5t21.5 -9t20 -9.5t14.5 -7.5q3 -2 4 -5.5t1 -5.5q0 -4 -4 -8q-5 -4 -10.5 -10.5
t-11.5 -12.5q-5 -7 -11 -12q6 -7 13 -14q20 -21 44 -40t49 -35t45 -25q3 -2 4 -3.5t1 -3.5q0 -1 -1 -3t-6 -2q-4 1 -10 2q-5 2 -12 4t-15 5q-33 13 -53.5 22.5t-41.5 22t-43 28.5v0l-1 1v0l-1 1v0h-1v0l-1 1v0l-1 1v0l-1 1v0l-1 1v0h-1v1h-1v0l-1 1q-17 -13 -33 -24
q-21 -14 -40.5 -24.5t-51.5 -25.5zM282 776q-10 7 -15 10t-7 5q-13 9 -26 9q-21 0 -42 -16.5t-32 -33.5q-9 -16 -12 -16.5l-3 -0.5q-4 0 -6 3q-2 2 -2 5q0 1 0.5 3l2.5 10q5 17 14.5 33.5t23 29.5t30 21.5t35.5 8.5t34 -9q4 -2 8.5 -4.5t15.5 -8.5q10 -7 18 -12.5t13 -8.5
q19 -13 32 -13q21 0 42 16.5t32 33.5q9 16 14 16t7 -2t2 -5q0 -1 -0.5 -3.5t-2.5 -9.5q-4 -16 -14 -32.5t-23.5 -30t-30 -22t-34.5 -8.5q-21 0 -45 15q-4 2 -11 6.5t-18 10.5z" />
    <glyph glyph-name="uni1EAC" unicode="&#x1eac;" horiz-adv-x="523" 
d="M62 714q-8 2 -8 11q0 13 13 14q9 1 24 1t32 -1t34 -2.5t30 -4.5h163q8 2 16.5 4t14.5 7q9 7 19 7q3 0 6 -1q13 -3 27 -8t25 -9q8 -3 8 -12v-1q0 -8 -5 -13q-8 -10 -8 -33v-598q0 -17 -12 -31t-29.5 -23.5t-36.5 -15t-32 -5.5q-10 0 -10 7q0 2 1 5q5 13 7 25.5t2 37.5v470
q-39 -12 -75 -33q-23 -13 -43 -29t-38 -35l-1 -336q0 -23 -8 -43.5t-22 -35.5t-34.5 -24t-44.5 -9q-6 0 -8.5 2.5t-2.5 6.5q0 2 1 6q12 27 12 75v597q0 14 -7 21q-5 5 -10 6zM187 471q17 16 35 30t38 25q40 24 83 34v157h-156v-246zM142 789q-9 -4 -15.5 -6.5t-11.5 -4.5
q-6 -1 -10 -3q-5 1 -6 3t-1 3v0v1t0.5 2.5t4.5 3.5q19 10 43 27.5t46.5 38t41.5 42t30 40.5q3 5 3 9q0 5 -4 10v0l-1 1v0l-3 3l-1 1v1q-3 2 -8 5q-4 3 -4 7v1v0v0v0v0v1v0q1 3 4.5 5t7.5 2h1v0v0h1v0h1h1q6 -1 17 -5t21.5 -9t20 -9.5t14.5 -7.5q3 -2 4 -5.5t1 -5.5
q0 -4 -4 -8q-5 -4 -10.5 -10.5t-11.5 -12.5q-5 -7 -11 -12q6 -7 13 -14q20 -21 44 -40t49 -35t45 -25q3 -2 4 -3.5t1 -3.5q0 -1 -1 -3t-6 -2q-4 1 -10 2q-5 2 -12 4t-15 5q-33 13 -53.5 22.5t-41.5 22t-43 28.5v0l-1 1v0l-1 1v0h-1v0l-1 1v0l-1 1v0l-1 1v0l-1 1v0h-1v1h-1v0
l-1 1q-17 -13 -33 -24q-21 -14 -40.5 -24.5t-51.5 -25.5zM202 -42q0 20 20 20h69q20 0 20 -20v-18q0 -20 -20 -20h-69q-20 0 -20 20v18z" />
    <glyph glyph-name="uni1EAD" unicode="&#x1ead;" 
d="M101 1q-21 0 -21 20v392q0 12 -7 21q-5 4 -11 5q-8 3 -8 12q0 13 14 14q9 1 23.5 1t31.5 -1t34 -2.5t30 -4.5h132q8 0 23.5 2.5t25.5 9.5q11 7 19 7q3 0 6 -1q13 -3 27.5 -7.5t24.5 -9.5q9 -3 9 -12q0 -8 -6 -14q-6 -5 -9 -14.5t-3 -21.5v-302q0 -24 4.5 -44.5
t10.5 -34.5q2 -4 2 -7q0 -7 -12 -7q-49 0 -79.5 32t-30.5 80v7q-20 -8 -39 -18t-38 -23q-39 -29 -71 -65q0 -1 -0.5 -1t-0.5 -1q-7 -5 -28 -8.5t-53 -3.5zM186 444v-402q26 27 59 51q40 28 86 45l-1 306h-144zM211 -42q0 20 20 20h69q20 0 20 -20v-18q0 -20 -20 -20h-69
q-20 0 -20 20v18zM142 526q-9 -4 -15.5 -6.5t-11.5 -4.5q-6 -1 -10 -3q-5 1 -6 3t-1 3v0v1t0.5 2.5t4.5 3.5q19 10 43 27.5t46.5 38t41.5 42t30 40.5q3 5 3 9q0 5 -4 10v0l-1 1v0l-3 3l-1 1v1q-3 2 -8 5q-4 3 -4 7v1v0v0v0v0v1v0q1 3 4.5 5t7.5 2h1v0v0h1v0h1h1q6 -1 17 -5
t21.5 -9t20 -9.5t14.5 -7.5q3 -2 4 -5.5t1 -5.5q0 -4 -4 -8q-5 -4 -10.5 -10.5t-11.5 -12.5q-5 -7 -11 -12q6 -7 13 -14q20 -21 44 -40t49 -35t45 -25q3 -2 4 -3.5t1 -3.5q0 -1 -1 -3t-6 -2q-4 1 -10 2q-5 2 -12 4t-15 5q-33 13 -53.5 22.5t-41.5 22t-43 28.5v0l-1 1v0l-1 1
v0h-1v0l-1 1v0l-1 1v0l-1 1v0l-1 1v0h-1v1h-1v0l-1 1q-17 -13 -33 -24q-21 -14 -40.5 -24.5t-51.5 -25.5z" />
    <glyph glyph-name="uni1EAE" unicode="&#x1eae;" horiz-adv-x="523" 
d="M62 714q-8 2 -8 11q0 13 13 14q9 1 24 1t32 -1t34 -2.5t30 -4.5h163q8 2 16.5 4t14.5 7q9 7 19 7q3 0 6 -1q13 -3 27 -8t25 -9q8 -3 8 -12v-1q0 -8 -5 -13q-8 -10 -8 -33v-598q0 -17 -12 -31t-29.5 -23.5t-36.5 -15t-32 -5.5q-10 0 -10 7q0 2 1 5q5 13 7 25.5t2 37.5v470
q-39 -12 -75 -33q-23 -13 -43 -29t-38 -35l-1 -336q0 -23 -8 -43.5t-22 -35.5t-34.5 -24t-44.5 -9q-6 0 -8.5 2.5t-2.5 6.5q0 2 1 6q12 27 12 75v597q0 14 -7 21q-5 5 -10 6zM187 471q17 16 35 30t38 25q40 24 83 34v157h-156v-246zM162 924q11 0 11 -11v-69
q0 -20 11.5 -31.5t31.5 -11.5h97q23 0 23 22v70q0 20 16.5 32t36.5 12q11 0 11 -11v-85q0 -27 -16.5 -44t-44.5 -17h-137q-35 0 -57 22t-22 58v53q0 11 11 11h28zM224 960q-9 -3 -16 -4.5t-12 -2.5q-6 -1 -10 -1q-5 1 -5.5 3t-0.5 3v0v1v0v0v0v0v1q0 1 1 2t5 2
q20 7 46.5 20.5t52 30.5t47.5 35.5t35 35.5q5 6 5 11q0 4 -2 8q-3 3 -5 6t-6 7q-4 2 -4 6q0 1 1 3q2 3 5 4.5t6 1.5q2 0 5 -1q7 -2 17 -7.5t19.5 -12.5t18 -12.5t13.5 -9.5q3 -2 3.5 -5.5l0.5 -3.5q0 -6 -6 -10q-6 -3 -12 -9t-13 -11q-22 -18 -45 -32t-45.5 -24.5t-43.5 -18
t-55 -16.5z" />
    <glyph glyph-name="uni1EAF" unicode="&#x1eaf;" 
d="M101 1q-21 0 -21 20v392q0 12 -7 21q-5 4 -11 5q-8 3 -8 12q0 13 14 14q9 1 23.5 1t31.5 -1t34 -2.5t30 -4.5h132q8 0 23.5 2.5t25.5 9.5q11 7 19 7q3 0 6 -1q13 -3 27.5 -7.5t24.5 -9.5q9 -3 9 -12q0 -8 -6 -14q-6 -5 -9 -14.5t-3 -21.5v-302q0 -24 4.5 -44.5
t10.5 -34.5q2 -4 2 -7q0 -7 -12 -7q-49 0 -79.5 32t-30.5 80v7q-20 -8 -39 -18t-38 -23q-39 -29 -71 -65q0 -1 -0.5 -1t-0.5 -1q-7 -5 -28 -8.5t-53 -3.5zM186 444v-402q26 27 59 51q40 28 86 45l-1 306h-144zM162 661q11 0 11 -11v-69q0 -20 11.5 -31.5t31.5 -11.5h97
q23 0 23 22v70q0 20 16.5 32t36.5 12q11 0 11 -11v-85q0 -27 -16.5 -44t-44.5 -17h-137q-35 0 -57 22t-22 58v53q0 11 11 11h28zM224 697q-9 -3 -16 -4.5t-12 -2.5q-6 -1 -10 -1q-5 1 -5.5 3t-0.5 3v0v1v0v0v0v0v1q0 1 1 2t5 2q20 7 46.5 20.5t52 30.5t47.5 35.5t35 35.5
q5 6 5 11q0 4 -2 8q-3 3 -5 6t-6 7q-4 2 -4 6q0 1 1 3q2 3 5 4.5t6 1.5q2 0 5 -1q7 -2 17 -7.5t19.5 -12.5t18 -12.5t13.5 -9.5q3 -2 3.5 -5.5l0.5 -3.5q0 -6 -6 -10q-6 -3 -12 -9t-13 -11q-22 -18 -45 -32t-45.5 -24.5t-43.5 -18t-55 -16.5z" />
    <glyph glyph-name="uni1EB0" unicode="&#x1eb0;" horiz-adv-x="523" 
d="M62 714q-8 2 -8 11q0 13 13 14q9 1 24 1t32 -1t34 -2.5t30 -4.5h163q8 2 16.5 4t14.5 7q9 7 19 7q3 0 6 -1q13 -3 27 -8t25 -9q8 -3 8 -12v-1q0 -8 -5 -13q-8 -10 -8 -33v-598q0 -17 -12 -31t-29.5 -23.5t-36.5 -15t-32 -5.5q-10 0 -10 7q0 2 1 5q5 13 7 25.5t2 37.5v470
q-39 -12 -75 -33q-23 -13 -43 -29t-38 -35l-1 -336q0 -23 -8 -43.5t-22 -35.5t-34.5 -24t-44.5 -9q-6 0 -8.5 2.5t-2.5 6.5q0 2 1 6q12 27 12 75v597q0 14 -7 21q-5 5 -10 6zM187 471q17 16 35 30t38 25q40 24 83 34v157h-156v-246zM162 924q11 0 11 -11v-69
q0 -20 11.5 -31.5t31.5 -11.5h97q23 0 23 22v70q0 20 16.5 32t36.5 12q11 0 11 -11v-85q0 -27 -16.5 -44t-44.5 -17h-137q-35 0 -57 22t-22 58v53q0 11 11 11h28zM280 957q-34 9 -55 16.5t-43.5 18t-45.5 24.5t-45 32q-7 5 -13 11t-12 9q-5 4 -5 10.5t3 8.5q5 4 13.5 9.5
t18 12.5t19.5 12.5t17 7.5q3 1 6 1q2 0 5.5 -1.5t4.5 -4.5q1 -2 1 -4q0 -3 -3 -5q-5 -4 -7 -7t-5 -6q-2 -4 -2 -8q0 -5 5 -11q13 -17 35 -35.5t47.5 -35.5t52 -30.5t46.5 -20.5q4 -1 5 -2t1 -2v-1v0v0v0v-1q0 -1 -0.5 -3t-5.5 -3q-4 0 -10 1q-5 1 -12 2.5t-16 4.5z" />
    <glyph glyph-name="uni1EB1" unicode="&#x1eb1;" 
d="M101 1q-21 0 -21 20v392q0 12 -7 21q-5 4 -11 5q-8 3 -8 12q0 13 14 14q9 1 23.5 1t31.5 -1t34 -2.5t30 -4.5h132q8 0 23.5 2.5t25.5 9.5q11 7 19 7q3 0 6 -1q13 -3 27.5 -7.5t24.5 -9.5q9 -3 9 -12q0 -8 -6 -14q-6 -5 -9 -14.5t-3 -21.5v-302q0 -24 4.5 -44.5
t10.5 -34.5q2 -4 2 -7q0 -7 -12 -7q-49 0 -79.5 32t-30.5 80v7q-20 -8 -39 -18t-38 -23q-39 -29 -71 -65q0 -1 -0.5 -1t-0.5 -1q-7 -5 -28 -8.5t-53 -3.5zM186 444v-402q26 27 59 51q40 28 86 45l-1 306h-144zM162 661q11 0 11 -11v-69q0 -20 11.5 -31.5t31.5 -11.5h97
q23 0 23 22v70q0 20 16.5 32t36.5 12q11 0 11 -11v-85q0 -27 -16.5 -44t-44.5 -17h-137q-35 0 -57 22t-22 58v53q0 11 11 11h28zM280 694q-34 9 -55 16.5t-43.5 18t-45.5 24.5t-45 32q-7 5 -13 11t-12 9q-5 4 -5 10.5t3 8.5q5 4 13.5 9.5t18 12.5t19.5 12.5t17 7.5q3 1 6 1
q2 0 5.5 -1.5t4.5 -4.5q1 -2 1 -4q0 -3 -3 -5q-5 -4 -7 -7t-5 -6q-2 -4 -2 -8q0 -5 5 -11q13 -17 35 -35.5t47.5 -35.5t52 -30.5t46.5 -20.5q4 -1 5 -2t1 -2v-1v0v0v0v-1q0 -1 -0.5 -3t-5.5 -3q-4 0 -10 1q-5 1 -12 2.5t-16 4.5z" />
    <glyph glyph-name="uni1EB2" unicode="&#x1eb2;" horiz-adv-x="523" 
d="M62 714q-8 2 -8 11q0 13 13 14q9 1 24 1t32 -1t34 -2.5t30 -4.5h163q8 2 16.5 4t14.5 7q9 7 19 7q3 0 6 -1q13 -3 27 -8t25 -9q8 -3 8 -12v-1q0 -8 -5 -13q-8 -10 -8 -33v-598q0 -17 -12 -31t-29.5 -23.5t-36.5 -15t-32 -5.5q-10 0 -10 7q0 2 1 5q5 13 7 25.5t2 37.5v470
q-39 -12 -75 -33q-23 -13 -43 -29t-38 -35l-1 -336q0 -23 -8 -43.5t-22 -35.5t-34.5 -24t-44.5 -9q-6 0 -8.5 2.5t-2.5 6.5q0 2 1 6q12 27 12 75v597q0 14 -7 21q-5 5 -10 6zM187 471q17 16 35 30t38 25q40 24 83 34v157h-156v-246zM162 924q11 0 11 -11v-69
q0 -20 11.5 -31.5t31.5 -11.5h97q23 0 23 22v70q0 20 16.5 32t36.5 12q11 0 11 -11v-85q0 -27 -16.5 -44t-44.5 -17h-137q-35 0 -57 22t-22 58v53q0 11 11 11h28zM226 1081q-6 -4 -10 -11.5t-8 -8.5q-3 -1 -5 -1q-3 0 -5.5 1.5t-2.5 4.5t-1.5 15.5t-2 18t-0.5 8.5t0.5 8
t1.5 10q1 3 3 4.5t4 1.5q6 0 7 -4q1 -3 1.5 -5t1.5 -4q3 -5 9 -5v0h1v0v0h1v0q8 4 17.5 9.5t20 10.5t19.5 7.5t16 2.5q4 0 9 -1q8 -1 18.5 -6.5t19.5 -15.5t12.5 -20.5t3.5 -19.5q0 -8 -2 -17q-4 -18 -17 -32t-26.5 -25t-24.5 -20t-12 -16q0 -4 6 -6t23 -2q5 0 5 -2
t-6.5 -7.5t-23.5 -5.5q-13 0 -24 7q-10 6 -11 12t-1 8q0 8 4 16.5t12 17.5t15 15q16 12 22.5 23t7 16t0.5 6q0 9 -5 15.5t-13 9.5q-5 2 -12 2t-20 -2.5t-28 -12.5z" />
    <glyph glyph-name="uni1EB3" unicode="&#x1eb3;" 
d="M101 1q-21 0 -21 20v392q0 12 -7 21q-5 4 -11 5q-8 3 -8 12q0 13 14 14q9 1 23.5 1t31.5 -1t34 -2.5t30 -4.5h132q8 0 23.5 2.5t25.5 9.5q11 7 19 7q3 0 6 -1q13 -3 27.5 -7.5t24.5 -9.5q9 -3 9 -12q0 -8 -6 -14q-6 -5 -9 -14.5t-3 -21.5v-302q0 -24 4.5 -44.5
t10.5 -34.5q2 -4 2 -7q0 -7 -12 -7q-49 0 -79.5 32t-30.5 80v7q-20 -8 -39 -18t-38 -23q-39 -29 -71 -65q0 -1 -0.5 -1t-0.5 -1q-7 -5 -28 -8.5t-53 -3.5zM186 444v-402q26 27 59 51q40 28 86 45l-1 306h-144zM162 661q11 0 11 -11v-69q0 -20 11.5 -31.5t31.5 -11.5h97
q23 0 23 22v70q0 20 16.5 32t36.5 12q11 0 11 -11v-85q0 -27 -16.5 -44t-44.5 -17h-137q-35 0 -57 22t-22 58v53q0 11 11 11h28zM226 818q-6 -4 -10 -11.5t-8 -8.5q-3 -1 -5 -1q-3 0 -5.5 1.5t-2.5 4.5t-1.5 15.5t-2 18t-0.5 8.5t0.5 8t1.5 10q1 3 3 4.5t4 1.5q6 0 7 -4
q1 -3 1.5 -5t1.5 -4q3 -5 9 -5v0h1v0v0h1v0q8 4 17.5 9.5t20 10.5t19.5 7.5t16 2.5q4 0 9 -1q8 -1 18.5 -6.5t19.5 -15.5t12.5 -20.5t3.5 -19.5q0 -8 -2 -17q-4 -18 -17 -32t-26.5 -25t-24.5 -20t-12 -16q0 -4 6 -6t23 -2q5 0 5 -2t-6.5 -7.5t-23.5 -5.5q-13 0 -24 7
q-10 6 -11 12t-1 8q0 8 4 16.5t12 17.5t15 15q16 12 22.5 23t7 16t0.5 6q0 9 -5 15.5t-13 9.5q-5 2 -12 2t-20 -2.5t-28 -12.5z" />
    <glyph glyph-name="uni1EB4" unicode="&#x1eb4;" horiz-adv-x="523" 
d="M62 714q-8 2 -8 11q0 13 13 14q9 1 24 1t32 -1t34 -2.5t30 -4.5h163q8 2 16.5 4t14.5 7q9 7 19 7q3 0 6 -1q13 -3 27 -8t25 -9q8 -3 8 -12v-1q0 -8 -5 -13q-8 -10 -8 -33v-598q0 -17 -12 -31t-29.5 -23.5t-36.5 -15t-32 -5.5q-10 0 -10 7q0 2 1 5q5 13 7 25.5t2 37.5v470
q-39 -12 -75 -33q-23 -13 -43 -29t-38 -35l-1 -336q0 -23 -8 -43.5t-22 -35.5t-34.5 -24t-44.5 -9q-6 0 -8.5 2.5t-2.5 6.5q0 2 1 6q12 27 12 75v597q0 14 -7 21q-5 5 -10 6zM187 471q17 16 35 30t38 25q40 24 83 34v157h-156v-246zM162 924q11 0 11 -11v-69
q0 -20 11.5 -31.5t31.5 -11.5h97q23 0 23 22v70q0 20 16.5 32t36.5 12q11 0 11 -11v-85q0 -27 -16.5 -44t-44.5 -17h-137q-35 0 -57 22t-22 58v53q0 11 11 11h28zM242 1005q-10 7 -15 10t-7 5q-13 9 -26 9q-21 0 -42 -16.5t-32 -33.5q-9 -16 -12 -16.5l-3 -0.5q-4 0 -6 3
q-2 2 -2 5q0 1 0.5 3l2.5 10q5 17 14.5 33.5t23 29.5t30 21.5t35.5 8.5t34 -9q4 -2 8.5 -4.5t15.5 -8.5q10 -7 18 -12.5t13 -8.5q19 -13 32 -13q21 0 42 16.5t32 33.5q9 16 14 16t7 -2t2 -5q0 -1 -0.5 -3.5t-2.5 -9.5q-4 -16 -14 -32.5t-23.5 -30t-30 -22t-34.5 -8.5
q-21 0 -45 15q-4 2 -11 6.5t-18 10.5z" />
    <glyph glyph-name="uni1EB5" unicode="&#x1eb5;" 
d="M101 1q-21 0 -21 20v392q0 12 -7 21q-5 4 -11 5q-8 3 -8 12q0 13 14 14q9 1 23.5 1t31.5 -1t34 -2.5t30 -4.5h132q8 0 23.5 2.5t25.5 9.5q11 7 19 7q3 0 6 -1q13 -3 27.5 -7.5t24.5 -9.5q9 -3 9 -12q0 -8 -6 -14q-6 -5 -9 -14.5t-3 -21.5v-302q0 -24 4.5 -44.5
t10.5 -34.5q2 -4 2 -7q0 -7 -12 -7q-49 0 -79.5 32t-30.5 80v7q-20 -8 -39 -18t-38 -23q-39 -29 -71 -65q0 -1 -0.5 -1t-0.5 -1q-7 -5 -28 -8.5t-53 -3.5zM186 444v-402q26 27 59 51q40 28 86 45l-1 306h-144zM162 661q11 0 11 -11v-69q0 -20 11.5 -31.5t31.5 -11.5h97
q23 0 23 22v70q0 20 16.5 32t36.5 12q11 0 11 -11v-85q0 -27 -16.5 -44t-44.5 -17h-137q-35 0 -57 22t-22 58v53q0 11 11 11h28zM242 742q-10 7 -15 10t-7 5q-13 9 -26 9q-21 0 -42 -16.5t-32 -33.5q-9 -16 -12 -16.5l-3 -0.5q-4 0 -6 3q-2 2 -2 5q0 1 0.5 3l2.5 10
q5 17 14.5 33.5t23 29.5t30 21.5t35.5 8.5t34 -9q4 -2 8.5 -4.5t15.5 -8.5q10 -7 18 -12.5t13 -8.5q19 -13 32 -13q21 0 42 16.5t32 33.5q9 16 14 16t7 -2t2 -5q0 -1 -0.5 -3.5t-2.5 -9.5q-4 -16 -14 -32.5t-23.5 -30t-30 -22t-34.5 -8.5q-21 0 -45 15q-4 2 -11 6.5
t-18 10.5z" />
    <glyph glyph-name="uni1EB6" unicode="&#x1eb6;" horiz-adv-x="523" 
d="M62 714q-8 2 -8 11q0 13 13 14q9 1 24 1t32 -1t34 -2.5t30 -4.5h163q8 2 16.5 4t14.5 7q9 7 19 7q3 0 6 -1q13 -3 27 -8t25 -9q8 -3 8 -12v-1q0 -8 -5 -13q-8 -10 -8 -33v-598q0 -17 -12 -31t-29.5 -23.5t-36.5 -15t-32 -5.5q-10 0 -10 7q0 2 1 5q5 13 7 25.5t2 37.5v470
q-39 -12 -75 -33q-23 -13 -43 -29t-38 -35l-1 -336q0 -23 -8 -43.5t-22 -35.5t-34.5 -24t-44.5 -9q-6 0 -8.5 2.5t-2.5 6.5q0 2 1 6q12 27 12 75v597q0 14 -7 21q-5 5 -10 6zM187 471q17 16 35 30t38 25q40 24 83 34v157h-156v-246zM162 924q11 0 11 -11v-69
q0 -20 11.5 -31.5t31.5 -11.5h97q23 0 23 22v70q0 20 16.5 32t36.5 12q11 0 11 -11v-85q0 -27 -16.5 -44t-44.5 -17h-137q-35 0 -57 22t-22 58v53q0 11 11 11h28zM202 -42q0 20 20 20h69q20 0 20 -20v-18q0 -20 -20 -20h-69q-20 0 -20 20v18z" />
    <glyph glyph-name="uni1EB7" unicode="&#x1eb7;" 
d="M101 1q-21 0 -21 20v392q0 12 -7 21q-5 4 -11 5q-8 3 -8 12q0 13 14 14q9 1 23.5 1t31.5 -1t34 -2.5t30 -4.5h132q8 0 23.5 2.5t25.5 9.5q11 7 19 7q3 0 6 -1q13 -3 27.5 -7.5t24.5 -9.5q9 -3 9 -12q0 -8 -6 -14q-6 -5 -9 -14.5t-3 -21.5v-302q0 -24 4.5 -44.5
t10.5 -34.5q2 -4 2 -7q0 -7 -12 -7q-49 0 -79.5 32t-30.5 80v7q-20 -8 -39 -18t-38 -23q-39 -29 -71 -65q0 -1 -0.5 -1t-0.5 -1q-7 -5 -28 -8.5t-53 -3.5zM186 444v-402q26 27 59 51q40 28 86 45l-1 306h-144zM211 -42q0 20 20 20h69q20 0 20 -20v-18q0 -20 -20 -20h-69
q-20 0 -20 20v18zM162 661q11 0 11 -11v-69q0 -20 11.5 -31.5t31.5 -11.5h97q23 0 23 22v70q0 20 16.5 32t36.5 12q11 0 11 -11v-85q0 -27 -16.5 -44t-44.5 -17h-137q-35 0 -57 22t-22 58v53q0 11 11 11h28z" />
    <glyph glyph-name="uni1EB8" unicode="&#x1eb8;" horiz-adv-x="508" 
d="M62 713q-8 3 -8 12q0 13 14 14h23q15 0 32.5 -0.5t34.5 -2t29 -4.5h133q8 0 23 2.5t25 9.5q11 7 19 7q3 0 6 -1q13 -3 27.5 -8t24.5 -9q9 -3 9 -12h-1l1 -1q0 -4 -1.5 -7.5t-3.5 -5.5q-8 -10 -8 -33v-51q0 -17 -12.5 -30.5t-29.5 -23.5t-36.5 -15t-32.5 -5q-10 0 -10 8
q0 2 1 4q6 13 7.5 25.5t1.5 36.5v94h-144v-272h31q12 0 20 7.5t18 15.5q8 6 16 6q4 0 9 -2q11 -4 24 -9t22 -12q6 -4 6 -13q-2 -8 -9 -8h-137v-400l143 -1v224q0 13 -9 19q-10 6 -23 9q-5 1 -6.5 4t-1.5 5v0v0v1v0v1q2 5 8 7t11 3q9 1 19 1q5 0 16.5 -0.5t29.5 -2t35.5 -5
t29.5 -8.5q11 -4 11 -12q0 -11 -4 -15t-6 -11q0 -2 -0.5 -10.5t-1 -18.5t-0.5 -19v-134q0 -32 -8.5 -42t-40.5 -10h-21l-183 1q-5 -7 -27 -10.5t-56 -3.5q-21 0 -21 20v664q0 14 -8 22q-3 3 -10 5zM202 -42q0 20 20 20h69q20 0 20 -20v-18q0 -20 -20 -20h-69q-20 0 -20 20
v18z" />
    <glyph glyph-name="uni1EB9" unicode="&#x1eb9;" horiz-adv-x="472" 
d="M51 440q-8 3 -8 12q0 13 14 14q5 1 14 1q4 0 14 -0.5t26.5 -1.5t33.5 -2.5t30 -4.5h109q8 0 23 2.5t25 9.5q6 4 10 5.5t8 1.5q3 0 7 -1q13 -3 27 -8t25 -9q9 -3 9 -12q0 -8 -6 -14q-7 -11 -7 -33v-50q0 -16 -10.5 -29t-26 -23t-33.5 -16t-32 -7q-34 -8 -66.5 -22.5
t-58.5 -32.5l-3 -3v-188v0v0v0v0v-1v0l-1 -2v0v0v0v-1v0v0h120q12 0 20 8t18 16q6 4 9.5 5t5.5 1q5 0 10 -2q11 -4 24 -9.5t22 -11.5q6 -5 6 -13q-1 -3 -4 -6t-5 -3h-236q-21 -8 -74 -8q-21 0 -21 20v392q0 12 -7 21q-5 4 -11 5zM175 443v-206q51 34 110 51q6 12 7.5 24.5
t1.5 37.5v93h-119zM171 -42q0 20 20 20h69q20 0 20 -20v-18q0 -20 -20 -20h-69q-20 0 -20 20v18z" />
    <glyph glyph-name="uni1EBA" unicode="&#x1eba;" horiz-adv-x="508" 
d="M62 713q-8 3 -8 12q0 13 14 14h23q15 0 32.5 -0.5t34.5 -2t29 -4.5h133q8 0 23 2.5t25 9.5q11 7 19 7q3 0 6 -1q13 -3 27.5 -8t24.5 -9q9 -3 9 -12h-1l1 -1q0 -4 -1.5 -7.5t-3.5 -5.5q-8 -10 -8 -33v-51q0 -17 -12.5 -30.5t-29.5 -23.5t-36.5 -15t-32.5 -5q-10 0 -10 8
q0 2 1 4q6 13 7.5 25.5t1.5 36.5v94h-144v-272h31q12 0 20 7.5t18 15.5q8 6 16 6q4 0 9 -2q11 -4 24 -9t22 -12q6 -4 6 -13q-2 -8 -9 -8h-137v-400l143 -1v224q0 13 -9 19q-10 6 -23 9q-5 1 -6.5 4t-1.5 5v0v0v1v0v1q2 5 8 7t11 3q9 1 19 1q5 0 16.5 -0.5t29.5 -2t35.5 -5
t29.5 -8.5q11 -4 11 -12q0 -11 -4 -15t-6 -11q0 -2 -0.5 -10.5t-1 -18.5t-0.5 -19v-134q0 -32 -8.5 -42t-40.5 -10h-21l-183 1q-5 -7 -27 -10.5t-56 -3.5q-21 0 -21 20v664q0 14 -8 22q-3 3 -10 5zM234 914q-6 -4 -10 -11.5t-8 -8.5q-3 -1 -5 -1q-3 0 -5.5 1.5t-2.5 4.5
t-1.5 15.5t-2 18t-0.5 8.5t0.5 8t1.5 10q1 3 3 4.5t4 1.5q6 0 7 -4q1 -3 1.5 -5t1.5 -4q3 -5 9 -5v0h1v0v0h1v0q8 4 17.5 9.5t20 10.5t19.5 7.5t16 2.5q4 0 9 -1q8 -1 18.5 -6.5t19.5 -15.5t12.5 -20.5t3.5 -19.5q0 -8 -2 -17q-4 -18 -17 -32t-26.5 -25t-24.5 -20t-12 -16
q0 -4 6 -6t23 -2q5 0 5 -2t-6.5 -7.5t-23.5 -5.5q-13 0 -24 7q-10 6 -11 12t-1 8q0 8 4 16.5t12 17.5t15 15q16 12 22.5 23t7 16t0.5 6q0 9 -5 15.5t-13 9.5q-5 2 -12 2t-20 -2.5t-28 -12.5z" />
    <glyph glyph-name="uni1EBB" unicode="&#x1ebb;" horiz-adv-x="472" 
d="M51 440q-8 3 -8 12q0 13 14 14q5 1 14 1q4 0 14 -0.5t26.5 -1.5t33.5 -2.5t30 -4.5h109q8 0 23 2.5t25 9.5q6 4 10 5.5t8 1.5q3 0 7 -1q13 -3 27 -8t25 -9q9 -3 9 -12q0 -8 -6 -14q-7 -11 -7 -33v-50q0 -16 -10.5 -29t-26 -23t-33.5 -16t-32 -7q-34 -8 -66.5 -22.5
t-58.5 -32.5l-3 -3v-188v0v0v0v0v-1v0l-1 -2v0v0v0v-1v0v0h120q12 0 20 8t18 16q6 4 9.5 5t5.5 1q5 0 10 -2q11 -4 24 -9.5t22 -11.5q6 -5 6 -13q-1 -3 -4 -6t-5 -3h-236q-21 -8 -74 -8q-21 0 -21 20v392q0 12 -7 21q-5 4 -11 5zM175 443v-206q51 34 110 51q6 12 7.5 24.5
t1.5 37.5v93h-119zM204 651q-6 -4 -10 -11.5t-8 -8.5q-3 -1 -5 -1q-3 0 -5.5 1.5t-2.5 4.5t-1.5 15.5t-2 18t-0.5 8.5t0.5 8t1.5 10q1 3 3 4.5t4 1.5q6 0 7 -4q1 -3 1.5 -5t1.5 -4q3 -5 9 -5v0h1v0v0h1v0q8 4 17.5 9.5t20 10.5t19.5 7.5t16 2.5q4 0 9 -1q8 -1 18.5 -6.5
t19.5 -15.5t12.5 -20.5t3.5 -19.5q0 -8 -2 -17q-4 -18 -17 -32t-26.5 -25t-24.5 -20t-12 -16q0 -4 6 -6t23 -2q5 0 5 -2t-6.5 -7.5t-23.5 -5.5q-13 0 -24 7q-10 6 -11 12t-1 8q0 8 4 16.5t12 17.5t15 15q16 12 22.5 23t7 16t0.5 6q0 9 -5 15.5t-13 9.5q-5 2 -12 2t-20 -2.5
t-28 -12.5z" />
    <glyph glyph-name="uni1EBC" unicode="&#x1ebc;" horiz-adv-x="508" 
d="M62 713q-8 3 -8 12q0 13 14 14h23q15 0 32.5 -0.5t34.5 -2t29 -4.5h133q8 0 23 2.5t25 9.5q11 7 19 7q3 0 6 -1q13 -3 27.5 -8t24.5 -9q9 -3 9 -12h-1l1 -1q0 -4 -1.5 -7.5t-3.5 -5.5q-8 -10 -8 -33v-51q0 -17 -12.5 -30.5t-29.5 -23.5t-36.5 -15t-32.5 -5q-10 0 -10 8
q0 2 1 4q6 13 7.5 25.5t1.5 36.5v94h-144v-272h31q12 0 20 7.5t18 15.5q8 6 16 6q4 0 9 -2q11 -4 24 -9t22 -12q6 -4 6 -13q-2 -8 -9 -8h-137v-400l143 -1v224q0 13 -9 19q-10 6 -23 9q-5 1 -6.5 4t-1.5 5v0v0v1v0v1q2 5 8 7t11 3q9 1 19 1q5 0 16.5 -0.5t29.5 -2t35.5 -5
t29.5 -8.5q11 -4 11 -12q0 -11 -4 -15t-6 -11q0 -2 -0.5 -10.5t-1 -18.5t-0.5 -19v-134q0 -32 -8.5 -42t-40.5 -10h-21l-183 1q-5 -7 -27 -10.5t-56 -3.5q-21 0 -21 20v664q0 14 -8 22q-3 3 -10 5zM239 820q-10 7 -15 10t-7 5q-13 9 -26 9q-21 0 -42 -16.5t-32 -33.5
q-9 -16 -12 -16.5l-3 -0.5q-4 0 -6 3q-2 2 -2 5q0 1 0.5 3l2.5 10q5 17 14.5 33.5t23 29.5t30 21.5t35.5 8.5t34 -9q4 -2 8.5 -4.5t15.5 -8.5q10 -7 18 -12.5t13 -8.5q19 -13 32 -13q21 0 42 16.5t32 33.5q9 16 14 16t7 -2t2 -5q0 -1 -0.5 -3.5t-2.5 -9.5q-4 -16 -14 -32.5
t-23.5 -30t-30 -22t-34.5 -8.5q-21 0 -45 15q-4 2 -11 6.5t-18 10.5z" />
    <glyph glyph-name="uni1EBD" unicode="&#x1ebd;" horiz-adv-x="472" 
d="M51 440q-8 3 -8 12q0 13 14 14q5 1 14 1q4 0 14 -0.5t26.5 -1.5t33.5 -2.5t30 -4.5h109q8 0 23 2.5t25 9.5q6 4 10 5.5t8 1.5q3 0 7 -1q13 -3 27 -8t25 -9q9 -3 9 -12q0 -8 -6 -14q-7 -11 -7 -33v-50q0 -16 -10.5 -29t-26 -23t-33.5 -16t-32 -7q-34 -8 -66.5 -22.5
t-58.5 -32.5l-3 -3v-188v0v0v0v0v-1v0l-1 -2v0v0v0v-1v0v0h120q12 0 20 8t18 16q6 4 9.5 5t5.5 1q5 0 10 -2q11 -4 24 -9.5t22 -11.5q6 -5 6 -13q-1 -3 -4 -6t-5 -3h-236q-21 -8 -74 -8q-21 0 -21 20v392q0 12 -7 21q-5 4 -11 5zM175 443v-206q51 34 110 51q6 12 7.5 24.5
t1.5 37.5v93h-119zM209 557q-10 7 -15 10t-7 5q-13 9 -26 9q-21 0 -42 -16.5t-32 -33.5q-9 -16 -12 -16.5l-3 -0.5q-4 0 -6 3q-2 2 -2 5q0 1 0.5 3l2.5 10q5 17 14.5 33.5t23 29.5t30 21.5t35.5 8.5t34 -9q4 -2 8.5 -4.5t15.5 -8.5q10 -7 18 -12.5t13 -8.5q19 -13 32 -13
q21 0 42 16.5t32 33.5q9 16 14 16t7 -2t2 -5q0 -1 -0.5 -3.5t-2.5 -9.5q-4 -16 -14 -32.5t-23.5 -30t-30 -22t-34.5 -8.5q-21 0 -45 15q-4 2 -11 6.5t-18 10.5z" />
    <glyph glyph-name="uni1EBE" unicode="&#x1ebe;" horiz-adv-x="508" 
d="M62 713q-8 3 -8 12q0 13 14 14h23q15 0 32.5 -0.5t34.5 -2t29 -4.5h133q8 0 23 2.5t25 9.5q11 7 19 7q3 0 6 -1q13 -3 27.5 -8t24.5 -9q9 -3 9 -12h-1l1 -1q0 -4 -1.5 -7.5t-3.5 -5.5q-8 -10 -8 -33v-51q0 -17 -12.5 -30.5t-29.5 -23.5t-36.5 -15t-32.5 -5q-10 0 -10 8
q0 2 1 4q6 13 7.5 25.5t1.5 36.5v94h-144v-272h31q12 0 20 7.5t18 15.5q8 6 16 6q4 0 9 -2q11 -4 24 -9t22 -12q6 -4 6 -13q-2 -8 -9 -8h-137v-400l143 -1v224q0 13 -9 19q-10 6 -23 9q-5 1 -6.5 4t-1.5 5v0v0v1v0v1q2 5 8 7t11 3q9 1 19 1q5 0 16.5 -0.5t29.5 -2t35.5 -5
t29.5 -8.5q11 -4 11 -12q0 -11 -4 -15t-6 -11q0 -2 -0.5 -10.5t-1 -18.5t-0.5 -19v-134q0 -32 -8.5 -42t-40.5 -10h-21l-183 1q-5 -7 -27 -10.5t-56 -3.5q-21 0 -21 20v664q0 14 -8 22q-3 3 -10 5zM142 789q-9 -4 -15.5 -6.5t-11.5 -4.5q-6 -1 -10 -3q-5 1 -6 3t-1 3v0v1
t0.5 2.5t4.5 3.5q19 10 43 27.5t46.5 38t41.5 42t30 40.5q3 5 3 9q0 5 -4 10v0l-1 1v0l-3 3l-1 1v1q-3 2 -8 5q-4 3 -4 7v1v0v0v0v0v1v0q1 3 4.5 5t7.5 2h1v0v0h1v0h1h1q6 -1 17 -5t21.5 -9t20 -9.5t14.5 -7.5q3 -2 4 -5.5t1 -5.5q0 -4 -4 -8q-5 -4 -10.5 -10.5t-11.5 -12.5
q-5 -7 -11 -12q6 -7 13 -14q20 -21 44 -40t49 -35t45 -25q3 -2 4 -3.5t1 -3.5q0 -1 -1 -3t-6 -2q-4 1 -10 2q-5 2 -12 4t-15 5q-33 13 -53.5 22.5t-41.5 22t-43 28.5v0l-1 1v0l-1 1v0h-1v0l-1 1v0l-1 1v0l-1 1v0l-1 1v0h-1v1h-1v0l-1 1q-17 -13 -33 -24q-21 -14 -40.5 -24.5
t-51.5 -25.5zM421 884q-9 -3 -16 -4.5t-12 -2.5q-6 -1 -10 -1q-5 1 -5.5 3t-0.5 3v0v1v0v0v0v0v1q0 1 1 2t5 2q20 7 46.5 20.5t52 30.5t47.5 35.5t35 35.5q5 6 5 11q0 4 -2 8q-3 3 -5 6t-6 7q-4 2 -4 6q0 1 1 3q2 3 5 4.5t6 1.5q2 0 5 -1q7 -2 17 -7.5t19.5 -12.5t18 -12.5
t13.5 -9.5q3 -2 3.5 -5.5l0.5 -3.5q0 -6 -6 -10q-6 -3 -12 -9t-13 -11q-22 -18 -45 -32t-45.5 -24.5t-43.5 -18t-55 -16.5z" />
    <glyph glyph-name="uni1EBF" unicode="&#x1ebf;" horiz-adv-x="472" 
d="M51 440q-8 3 -8 12q0 13 14 14q5 1 14 1q4 0 14 -0.5t26.5 -1.5t33.5 -2.5t30 -4.5h109q8 0 23 2.5t25 9.5q6 4 10 5.5t8 1.5q3 0 7 -1q13 -3 27 -8t25 -9q9 -3 9 -12q0 -8 -6 -14q-7 -11 -7 -33v-50q0 -16 -10.5 -29t-26 -23t-33.5 -16t-32 -7q-34 -8 -66.5 -22.5
t-58.5 -32.5l-3 -3v-188v0v0v0v0v-1v0l-1 -2v0v0v0v-1v0v0h120q12 0 20 8t18 16q6 4 9.5 5t5.5 1q5 0 10 -2q11 -4 24 -9.5t22 -11.5q6 -5 6 -13q-1 -3 -4 -6t-5 -3h-236q-21 -8 -74 -8q-21 0 -21 20v392q0 12 -7 21q-5 4 -11 5zM175 443v-206q51 34 110 51q6 12 7.5 24.5
t1.5 37.5v93h-119zM112 526q-9 -4 -15.5 -6.5t-11.5 -4.5q-6 -1 -10 -3q-5 1 -6 3t-1 3v0v1t0.5 2.5t4.5 3.5q19 10 43 27.5t46.5 38t41.5 42t30 40.5q3 5 3 9q0 5 -4 10v0l-1 1v0l-3 3l-1 1v1q-3 2 -8 5q-4 3 -4 7v1v0v0v0v0v1v0q1 3 4.5 5t7.5 2h1v0v0h1v0h1h1q6 -1 17 -5
t21.5 -9t20 -9.5t14.5 -7.5q3 -2 4 -5.5t1 -5.5q0 -4 -4 -8q-5 -4 -10.5 -10.5t-11.5 -12.5q-5 -7 -11 -12q6 -7 13 -14q20 -21 44 -40t49 -35t45 -25q3 -2 4 -3.5t1 -3.5q0 -1 -1 -3t-6 -2q-4 1 -10 2q-5 2 -12 4t-15 5q-33 13 -53.5 22.5t-41.5 22t-43 28.5v0l-1 1v0l-1 1
v0h-1v0l-1 1v0l-1 1v0l-1 1v0l-1 1v0h-1v1h-1v0l-1 1q-17 -13 -33 -24q-21 -14 -40.5 -24.5t-51.5 -25.5zM391 621q-9 -3 -16 -4.5t-12 -2.5q-6 -1 -10 -1q-5 1 -5.5 3t-0.5 3v0v1v0v0v0v0v1q0 1 1 2t5 2q20 7 46.5 20.5t52 30.5t47.5 35.5t35 35.5q5 6 5 11q0 4 -2 8
q-3 3 -5 6t-6 7q-4 2 -4 6q0 1 1 3q2 3 5 4.5t6 1.5q2 0 5 -1q7 -2 17 -7.5t19.5 -12.5t18 -12.5t13.5 -9.5q3 -2 3.5 -5.5l0.5 -3.5q0 -6 -6 -10q-6 -3 -12 -9t-13 -11q-22 -18 -45 -32t-45.5 -24.5t-43.5 -18t-55 -16.5z" />
    <glyph glyph-name="uni1EC0" unicode="&#x1ec0;" horiz-adv-x="508" 
d="M62 713q-8 3 -8 12q0 13 14 14h23q15 0 32.5 -0.5t34.5 -2t29 -4.5h133q8 0 23 2.5t25 9.5q11 7 19 7q3 0 6 -1q13 -3 27.5 -8t24.5 -9q9 -3 9 -12h-1l1 -1q0 -4 -1.5 -7.5t-3.5 -5.5q-8 -10 -8 -33v-51q0 -17 -12.5 -30.5t-29.5 -23.5t-36.5 -15t-32.5 -5q-10 0 -10 8
q0 2 1 4q6 13 7.5 25.5t1.5 36.5v94h-144v-272h31q12 0 20 7.5t18 15.5q8 6 16 6q4 0 9 -2q11 -4 24 -9t22 -12q6 -4 6 -13q-2 -8 -9 -8h-137v-400l143 -1v224q0 13 -9 19q-10 6 -23 9q-5 1 -6.5 4t-1.5 5v0v0v1v0v1q2 5 8 7t11 3q9 1 19 1q5 0 16.5 -0.5t29.5 -2t35.5 -5
t29.5 -8.5q11 -4 11 -12q0 -11 -4 -15t-6 -11q0 -2 -0.5 -10.5t-1 -18.5t-0.5 -19v-134q0 -32 -8.5 -42t-40.5 -10h-21l-183 1q-5 -7 -27 -10.5t-56 -3.5q-21 0 -21 20v664q0 14 -8 22q-3 3 -10 5zM142 789q-9 -4 -15.5 -6.5t-11.5 -4.5q-6 -1 -10 -3q-5 1 -6 3t-1 3v0v1
t0.5 2.5t4.5 3.5q19 10 43 27.5t46.5 38t41.5 42t30 40.5q3 5 3 9q0 5 -4 10v0l-1 1v0l-3 3l-1 1v1q-3 2 -8 5q-4 3 -4 7v1v0v0v0v0v1v0q1 3 4.5 5t7.5 2h1v0v0h1v0h1h1q6 -1 17 -5t21.5 -9t20 -9.5t14.5 -7.5q3 -2 4 -5.5t1 -5.5q0 -4 -4 -8q-5 -4 -10.5 -10.5t-11.5 -12.5
q-5 -7 -11 -12q6 -7 13 -14q20 -21 44 -40t49 -35t45 -25q3 -2 4 -3.5t1 -3.5q0 -1 -1 -3t-6 -2q-4 1 -10 2q-5 2 -12 4t-15 5q-33 13 -53.5 22.5t-41.5 22t-43 28.5v0l-1 1v0l-1 1v0h-1v0l-1 1v0l-1 1v0l-1 1v0l-1 1v0h-1v1h-1v0l-1 1q-17 -13 -33 -24q-21 -14 -40.5 -24.5
t-51.5 -25.5zM136 884q-34 9 -55 16.5t-43.5 18t-45.5 24.5t-45 32q-7 5 -13 11t-12 9q-5 4 -5 10.5t3 8.5q5 4 13.5 9.5t18 12.5t19.5 12.5t17 7.5q3 1 6 1q2 0 5.5 -1.5t4.5 -4.5q1 -2 1 -4q0 -3 -3 -5q-5 -4 -7 -7t-5 -6q-2 -4 -2 -8q0 -5 5 -11q13 -17 35 -35.5
t47.5 -35.5t52 -30.5t46.5 -20.5q4 -1 5 -2t1 -2v-1v0v0v0v-1q0 -1 -0.5 -3t-5.5 -3q-4 0 -10 1q-5 1 -12 2.5t-16 4.5z" />
    <glyph glyph-name="uni1EC1" unicode="&#x1ec1;" horiz-adv-x="472" 
d="M51 440q-8 3 -8 12q0 13 14 14q5 1 14 1q4 0 14 -0.5t26.5 -1.5t33.5 -2.5t30 -4.5h109q8 0 23 2.5t25 9.5q6 4 10 5.5t8 1.5q3 0 7 -1q13 -3 27 -8t25 -9q9 -3 9 -12q0 -8 -6 -14q-7 -11 -7 -33v-50q0 -16 -10.5 -29t-26 -23t-33.5 -16t-32 -7q-34 -8 -66.5 -22.5
t-58.5 -32.5l-3 -3v-188v0v0v0v0v-1v0l-1 -2v0v0v0v-1v0v0h120q12 0 20 8t18 16q6 4 9.5 5t5.5 1q5 0 10 -2q11 -4 24 -9.5t22 -11.5q6 -5 6 -13q-1 -3 -4 -6t-5 -3h-236q-21 -8 -74 -8q-21 0 -21 20v392q0 12 -7 21q-5 4 -11 5zM175 443v-206q51 34 110 51q6 12 7.5 24.5
t1.5 37.5v93h-119zM112 526q-9 -4 -15.5 -6.5t-11.5 -4.5q-6 -1 -10 -3q-5 1 -6 3t-1 3v0v1t0.5 2.5t4.5 3.5q19 10 43 27.5t46.5 38t41.5 42t30 40.5q3 5 3 9q0 5 -4 10v0l-1 1v0l-3 3l-1 1v1q-3 2 -8 5q-4 3 -4 7v1v0v0v0v0v1v0q1 3 4.5 5t7.5 2h1v0v0h1v0h1h1q6 -1 17 -5
t21.5 -9t20 -9.5t14.5 -7.5q3 -2 4 -5.5t1 -5.5q0 -4 -4 -8q-5 -4 -10.5 -10.5t-11.5 -12.5q-5 -7 -11 -12q6 -7 13 -14q20 -21 44 -40t49 -35t45 -25q3 -2 4 -3.5t1 -3.5q0 -1 -1 -3t-6 -2q-4 1 -10 2q-5 2 -12 4t-15 5q-33 13 -53.5 22.5t-41.5 22t-43 28.5v0l-1 1v0l-1 1
v0h-1v0l-1 1v0l-1 1v0l-1 1v0l-1 1v0h-1v1h-1v0l-1 1q-17 -13 -33 -24q-21 -14 -40.5 -24.5t-51.5 -25.5zM105 621q-34 9 -55 16.5t-43.5 18t-45.5 24.5t-45 32q-7 5 -13 11t-12 9q-5 4 -5 10.5t3 8.5q5 4 13.5 9.5t18 12.5t19.5 12.5t17 7.5q3 1 6 1q2 0 5.5 -1.5t4.5 -4.5
q1 -2 1 -4q0 -3 -3 -5q-5 -4 -7 -7t-5 -6q-2 -4 -2 -8q0 -5 5 -11q13 -17 35 -35.5t47.5 -35.5t52 -30.5t46.5 -20.5q4 -1 5 -2t1 -2v-1v0v0v0v-1q0 -1 -0.5 -3t-5.5 -3q-4 0 -10 1q-5 1 -12 2.5t-16 4.5z" />
    <glyph glyph-name="uni1EC2" unicode="&#x1ec2;" horiz-adv-x="508" 
d="M62 713q-8 3 -8 12q0 13 14 14h23q15 0 32.5 -0.5t34.5 -2t29 -4.5h133q8 0 23 2.5t25 9.5q11 7 19 7q3 0 6 -1q13 -3 27.5 -8t24.5 -9q9 -3 9 -12h-1l1 -1q0 -4 -1.5 -7.5t-3.5 -5.5q-8 -10 -8 -33v-51q0 -17 -12.5 -30.5t-29.5 -23.5t-36.5 -15t-32.5 -5q-10 0 -10 8
q0 2 1 4q6 13 7.5 25.5t1.5 36.5v94h-144v-272h31q12 0 20 7.5t18 15.5q8 6 16 6q4 0 9 -2q11 -4 24 -9t22 -12q6 -4 6 -13q-2 -8 -9 -8h-137v-400l143 -1v224q0 13 -9 19q-10 6 -23 9q-5 1 -6.5 4t-1.5 5v0v0v1v0v1q2 5 8 7t11 3q9 1 19 1q5 0 16.5 -0.5t29.5 -2t35.5 -5
t29.5 -8.5q11 -4 11 -12q0 -11 -4 -15t-6 -11q0 -2 -0.5 -10.5t-1 -18.5t-0.5 -19v-134q0 -32 -8.5 -42t-40.5 -10h-21l-183 1q-5 -7 -27 -10.5t-56 -3.5q-21 0 -21 20v664q0 14 -8 22q-3 3 -10 5zM142 789q-9 -4 -15.5 -6.5t-11.5 -4.5q-6 -1 -10 -3q-5 1 -6 3t-1 3v0v1
t0.5 2.5t4.5 3.5q19 10 43 27.5t46.5 38t41.5 42t30 40.5q3 5 3 9q0 5 -4 10v0l-1 1v0l-3 3l-1 1v1q-3 2 -8 5q-4 3 -4 7v1v0v0v0v0v1v0q1 3 4.5 5t7.5 2h1v0v0h1v0h1h1q6 -1 17 -5t21.5 -9t20 -9.5t14.5 -7.5q3 -2 4 -5.5t1 -5.5q0 -4 -4 -8q-5 -4 -10.5 -10.5t-11.5 -12.5
q-5 -7 -11 -12q6 -7 13 -14q20 -21 44 -40t49 -35t45 -25q3 -2 4 -3.5t1 -3.5q0 -1 -1 -3t-6 -2q-4 1 -10 2q-5 2 -12 4t-15 5q-33 13 -53.5 22.5t-41.5 22t-43 28.5v0l-1 1v0l-1 1v0h-1v0l-1 1v0l-1 1v0l-1 1v0l-1 1v0h-1v1h-1v0l-1 1q-17 -13 -33 -24q-21 -14 -40.5 -24.5
t-51.5 -25.5zM375 1026q-6 -4 -10 -11.5t-8 -8.5q-3 -1 -5 -1q-3 0 -5.5 1.5t-2.5 4.5t-1.5 15.5t-2 18t-0.5 8.5t0.5 8t1.5 10q1 3 3 4.5t4 1.5q6 0 7 -4q1 -3 1.5 -5t1.5 -4q3 -5 9 -5v0h1v0v0h1v0q8 4 17.5 9.5t20 10.5t19.5 7.5t16 2.5q4 0 9 -1q8 -1 18.5 -6.5
t19.5 -15.5t12.5 -20.5t3.5 -19.5q0 -8 -2 -17q-4 -18 -17 -32t-26.5 -25t-24.5 -20t-12 -16q0 -4 6 -6t23 -2q5 0 5 -2t-6.5 -7.5t-23.5 -5.5q-13 0 -24 7q-10 6 -11 12t-1 8q0 8 4 16.5t12 17.5t15 15q16 12 22.5 23t7 16t0.5 6q0 9 -5 15.5t-13 9.5q-5 2 -12 2t-20 -2.5
t-28 -12.5z" />
    <glyph glyph-name="uni1EC3" unicode="&#x1ec3;" horiz-adv-x="472" 
d="M51 440q-8 3 -8 12q0 13 14 14q5 1 14 1q4 0 14 -0.5t26.5 -1.5t33.5 -2.5t30 -4.5h109q8 0 23 2.5t25 9.5q6 4 10 5.5t8 1.5q3 0 7 -1q13 -3 27 -8t25 -9q9 -3 9 -12q0 -8 -6 -14q-7 -11 -7 -33v-50q0 -16 -10.5 -29t-26 -23t-33.5 -16t-32 -7q-34 -8 -66.5 -22.5
t-58.5 -32.5l-3 -3v-188v0v0v0v0v-1v0l-1 -2v0v0v0v-1v0v0h120q12 0 20 8t18 16q6 4 9.5 5t5.5 1q5 0 10 -2q11 -4 24 -9.5t22 -11.5q6 -5 6 -13q-1 -3 -4 -6t-5 -3h-236q-21 -8 -74 -8q-21 0 -21 20v392q0 12 -7 21q-5 4 -11 5zM175 443v-206q51 34 110 51q6 12 7.5 24.5
t1.5 37.5v93h-119zM112 526q-9 -4 -15.5 -6.5t-11.5 -4.5q-6 -1 -10 -3q-5 1 -6 3t-1 3v0v1t0.5 2.5t4.5 3.5q19 10 43 27.5t46.5 38t41.5 42t30 40.5q3 5 3 9q0 5 -4 10v0l-1 1v0l-3 3l-1 1v1q-3 2 -8 5q-4 3 -4 7v1v0v0v0v0v1v0q1 3 4.5 5t7.5 2h1v0v0h1v0h1h1q6 -1 17 -5
t21.5 -9t20 -9.5t14.5 -7.5q3 -2 4 -5.5t1 -5.5q0 -4 -4 -8q-5 -4 -10.5 -10.5t-11.5 -12.5q-5 -7 -11 -12q6 -7 13 -14q20 -21 44 -40t49 -35t45 -25q3 -2 4 -3.5t1 -3.5q0 -1 -1 -3t-6 -2q-4 1 -10 2q-5 2 -12 4t-15 5q-33 13 -53.5 22.5t-41.5 22t-43 28.5v0l-1 1v0l-1 1
v0h-1v0l-1 1v0l-1 1v0l-1 1v0l-1 1v0h-1v1h-1v0l-1 1q-17 -13 -33 -24q-21 -14 -40.5 -24.5t-51.5 -25.5zM345 763q-6 -4 -10 -11.5t-8 -8.5q-3 -1 -5 -1q-3 0 -5.5 1.5t-2.5 4.5t-1.5 15.5t-2 18t-0.5 8.5t0.5 8t1.5 10q1 3 3 4.5t4 1.5q6 0 7 -4q1 -3 1.5 -5t1.5 -4
q3 -5 9 -5v0h1v0v0h1v0q8 4 17.5 9.5t20 10.5t19.5 7.5t16 2.5q4 0 9 -1q8 -1 18.5 -6.5t19.5 -15.5t12.5 -20.5t3.5 -19.5q0 -8 -2 -17q-4 -18 -17 -32t-26.5 -25t-24.5 -20t-12 -16q0 -4 6 -6t23 -2q5 0 5 -2t-6.5 -7.5t-23.5 -5.5q-13 0 -24 7q-10 6 -11 12t-1 8
q0 8 4 16.5t12 17.5t15 15q16 12 22.5 23t7 16t0.5 6q0 9 -5 15.5t-13 9.5q-5 2 -12 2t-20 -2.5t-28 -12.5z" />
    <glyph glyph-name="uni1EC4" unicode="&#x1ec4;" horiz-adv-x="508" 
d="M62 713q-8 3 -8 12q0 13 14 14h23q15 0 32.5 -0.5t34.5 -2t29 -4.5h133q8 0 23 2.5t25 9.5q11 7 19 7q3 0 6 -1q13 -3 27.5 -8t24.5 -9q9 -3 9 -12h-1l1 -1q0 -4 -1.5 -7.5t-3.5 -5.5q-8 -10 -8 -33v-51q0 -17 -12.5 -30.5t-29.5 -23.5t-36.5 -15t-32.5 -5q-10 0 -10 8
q0 2 1 4q6 13 7.5 25.5t1.5 36.5v94h-144v-272h31q12 0 20 7.5t18 15.5q8 6 16 6q4 0 9 -2q11 -4 24 -9t22 -12q6 -4 6 -13q-2 -8 -9 -8h-137v-400l143 -1v224q0 13 -9 19q-10 6 -23 9q-5 1 -6.5 4t-1.5 5v0v0v1v0v1q2 5 8 7t11 3q9 1 19 1q5 0 16.5 -0.5t29.5 -2t35.5 -5
t29.5 -8.5q11 -4 11 -12q0 -11 -4 -15t-6 -11q0 -2 -0.5 -10.5t-1 -18.5t-0.5 -19v-134q0 -32 -8.5 -42t-40.5 -10h-21l-183 1q-5 -7 -27 -10.5t-56 -3.5q-21 0 -21 20v664q0 14 -8 22q-3 3 -10 5zM142 789q-9 -4 -15.5 -6.5t-11.5 -4.5q-6 -1 -10 -3q-5 1 -6 3t-1 3v0v1
t0.5 2.5t4.5 3.5q19 10 43 27.5t46.5 38t41.5 42t30 40.5q3 5 3 9q0 5 -4 10v0l-1 1v0l-3 3l-1 1v1q-3 2 -8 5q-4 3 -4 7v1v0v0v0v0v1v0q1 3 4.5 5t7.5 2h1v0v0h1v0h1h1q6 -1 17 -5t21.5 -9t20 -9.5t14.5 -7.5q3 -2 4 -5.5t1 -5.5q0 -4 -4 -8q-5 -4 -10.5 -10.5t-11.5 -12.5
q-5 -7 -11 -12q6 -7 13 -14q20 -21 44 -40t49 -35t45 -25q3 -2 4 -3.5t1 -3.5q0 -1 -1 -3t-6 -2q-4 1 -10 2q-5 2 -12 4t-15 5q-33 13 -53.5 22.5t-41.5 22t-43 28.5v0l-1 1v0l-1 1v0h-1v0l-1 1v0l-1 1v0l-1 1v0l-1 1v0h-1v1h-1v0l-1 1q-17 -13 -33 -24q-21 -14 -40.5 -24.5
t-51.5 -25.5zM282 1039q-10 7 -15 10t-7 5q-13 9 -26 9q-21 0 -42 -16.5t-32 -33.5q-9 -16 -12 -16.5l-3 -0.5q-4 0 -6 3q-2 2 -2 5q0 1 0.5 3l2.5 10q5 17 14.5 33.5t23 29.5t30 21.5t35.5 8.5t34 -9q4 -2 8.5 -4.5t15.5 -8.5q10 -7 18 -12.5t13 -8.5q19 -13 32 -13
q21 0 42 16.5t32 33.5q9 16 14 16t7 -2t2 -5q0 -1 -0.5 -3.5t-2.5 -9.5q-4 -16 -14 -32.5t-23.5 -30t-30 -22t-34.5 -8.5q-21 0 -45 15q-4 2 -11 6.5t-18 10.5z" />
    <glyph glyph-name="uni1EC5" unicode="&#x1ec5;" horiz-adv-x="472" 
d="M51 440q-8 3 -8 12q0 13 14 14q5 1 14 1q4 0 14 -0.5t26.5 -1.5t33.5 -2.5t30 -4.5h109q8 0 23 2.5t25 9.5q6 4 10 5.5t8 1.5q3 0 7 -1q13 -3 27 -8t25 -9q9 -3 9 -12q0 -8 -6 -14q-7 -11 -7 -33v-50q0 -16 -10.5 -29t-26 -23t-33.5 -16t-32 -7q-34 -8 -66.5 -22.5
t-58.5 -32.5l-3 -3v-188v0v0v0v0v-1v0l-1 -2v0v0v0v-1v0v0h120q12 0 20 8t18 16q6 4 9.5 5t5.5 1q5 0 10 -2q11 -4 24 -9.5t22 -11.5q6 -5 6 -13q-1 -3 -4 -6t-5 -3h-236q-21 -8 -74 -8q-21 0 -21 20v392q0 12 -7 21q-5 4 -11 5zM175 443v-206q51 34 110 51q6 12 7.5 24.5
t1.5 37.5v93h-119zM112 526q-9 -4 -15.5 -6.5t-11.5 -4.5q-6 -1 -10 -3q-5 1 -6 3t-1 3v0v1t0.5 2.5t4.5 3.5q19 10 43 27.5t46.5 38t41.5 42t30 40.5q3 5 3 9q0 5 -4 10v0l-1 1v0l-3 3l-1 1v1q-3 2 -8 5q-4 3 -4 7v1v0v0v0v0v1v0q1 3 4.5 5t7.5 2h1v0v0h1v0h1h1q6 -1 17 -5
t21.5 -9t20 -9.5t14.5 -7.5q3 -2 4 -5.5t1 -5.5q0 -4 -4 -8q-5 -4 -10.5 -10.5t-11.5 -12.5q-5 -7 -11 -12q6 -7 13 -14q20 -21 44 -40t49 -35t45 -25q3 -2 4 -3.5t1 -3.5q0 -1 -1 -3t-6 -2q-4 1 -10 2q-5 2 -12 4t-15 5q-33 13 -53.5 22.5t-41.5 22t-43 28.5v0l-1 1v0l-1 1
v0h-1v0l-1 1v0l-1 1v0l-1 1v0l-1 1v0h-1v1h-1v0l-1 1q-17 -13 -33 -24q-21 -14 -40.5 -24.5t-51.5 -25.5zM252 776q-10 7 -15 10t-7 5q-13 9 -26 9q-21 0 -42 -16.5t-32 -33.5q-9 -16 -12 -16.5l-3 -0.5q-4 0 -6 3q-2 2 -2 5q0 1 0.5 3l2.5 10q5 17 14.5 33.5t23 29.5
t30 21.5t35.5 8.5t34 -9q4 -2 8.5 -4.5t15.5 -8.5q10 -7 18 -12.5t13 -8.5q19 -13 32 -13q21 0 42 16.5t32 33.5q9 16 14 16t7 -2t2 -5q0 -1 -0.5 -3.5t-2.5 -9.5q-4 -16 -14 -32.5t-23.5 -30t-30 -22t-34.5 -8.5q-21 0 -45 15q-4 2 -11 6.5t-18 10.5z" />
    <glyph glyph-name="uni1EC6" unicode="&#x1ec6;" horiz-adv-x="508" 
d="M62 713q-8 3 -8 12q0 13 14 14h23q15 0 32.5 -0.5t34.5 -2t29 -4.5h133q8 0 23 2.5t25 9.5q11 7 19 7q3 0 6 -1q13 -3 27.5 -8t24.5 -9q9 -3 9 -12h-1l1 -1q0 -4 -1.5 -7.5t-3.5 -5.5q-8 -10 -8 -33v-51q0 -17 -12.5 -30.5t-29.5 -23.5t-36.5 -15t-32.5 -5q-10 0 -10 8
q0 2 1 4q6 13 7.5 25.5t1.5 36.5v94h-144v-272h31q12 0 20 7.5t18 15.5q8 6 16 6q4 0 9 -2q11 -4 24 -9t22 -12q6 -4 6 -13q-2 -8 -9 -8h-137v-400l143 -1v224q0 13 -9 19q-10 6 -23 9q-5 1 -6.5 4t-1.5 5v0v0v1v0v1q2 5 8 7t11 3q9 1 19 1q5 0 16.5 -0.5t29.5 -2t35.5 -5
t29.5 -8.5q11 -4 11 -12q0 -11 -4 -15t-6 -11q0 -2 -0.5 -10.5t-1 -18.5t-0.5 -19v-134q0 -32 -8.5 -42t-40.5 -10h-21l-183 1q-5 -7 -27 -10.5t-56 -3.5q-21 0 -21 20v664q0 14 -8 22q-3 3 -10 5zM142 789q-9 -4 -15.5 -6.5t-11.5 -4.5q-6 -1 -10 -3q-5 1 -6 3t-1 3v0v1
t0.5 2.5t4.5 3.5q19 10 43 27.5t46.5 38t41.5 42t30 40.5q3 5 3 9q0 5 -4 10v0l-1 1v0l-3 3l-1 1v1q-3 2 -8 5q-4 3 -4 7v1v0v0v0v0v1v0q1 3 4.5 5t7.5 2h1v0v0h1v0h1h1q6 -1 17 -5t21.5 -9t20 -9.5t14.5 -7.5q3 -2 4 -5.5t1 -5.5q0 -4 -4 -8q-5 -4 -10.5 -10.5t-11.5 -12.5
q-5 -7 -11 -12q6 -7 13 -14q20 -21 44 -40t49 -35t45 -25q3 -2 4 -3.5t1 -3.5q0 -1 -1 -3t-6 -2q-4 1 -10 2q-5 2 -12 4t-15 5q-33 13 -53.5 22.5t-41.5 22t-43 28.5v0l-1 1v0l-1 1v0h-1v0l-1 1v0l-1 1v0l-1 1v0l-1 1v0h-1v1h-1v0l-1 1q-17 -13 -33 -24q-21 -14 -40.5 -24.5
t-51.5 -25.5zM202 -42q0 20 20 20h69q20 0 20 -20v-18q0 -20 -20 -20h-69q-20 0 -20 20v18z" />
    <glyph glyph-name="uni1EC7" unicode="&#x1ec7;" horiz-adv-x="472" 
d="M51 440q-8 3 -8 12q0 13 14 14q5 1 14 1q4 0 14 -0.5t26.5 -1.5t33.5 -2.5t30 -4.5h109q8 0 23 2.5t25 9.5q6 4 10 5.5t8 1.5q3 0 7 -1q13 -3 27 -8t25 -9q9 -3 9 -12q0 -8 -6 -14q-7 -11 -7 -33v-50q0 -16 -10.5 -29t-26 -23t-33.5 -16t-32 -7q-34 -8 -66.5 -22.5
t-58.5 -32.5l-3 -3v-188v0v0v0v0v-1v0l-1 -2v0v0v0v-1v0v0h120q12 0 20 8t18 16q6 4 9.5 5t5.5 1q5 0 10 -2q11 -4 24 -9.5t22 -11.5q6 -5 6 -13q-1 -3 -4 -6t-5 -3h-236q-21 -8 -74 -8q-21 0 -21 20v392q0 12 -7 21q-5 4 -11 5zM175 443v-206q51 34 110 51q6 12 7.5 24.5
t1.5 37.5v93h-119zM171 -42q0 20 20 20h69q20 0 20 -20v-18q0 -20 -20 -20h-69q-20 0 -20 20v18zM112 526q-9 -4 -15.5 -6.5t-11.5 -4.5q-6 -1 -10 -3q-5 1 -6 3t-1 3v0v1t0.5 2.5t4.5 3.5q19 10 43 27.5t46.5 38t41.5 42t30 40.5q3 5 3 9q0 5 -4 10v0l-1 1v0l-3 3l-1 1v1
q-3 2 -8 5q-4 3 -4 7v1v0v0v0v0v1v0q1 3 4.5 5t7.5 2h1v0v0h1v0h1h1q6 -1 17 -5t21.5 -9t20 -9.5t14.5 -7.5q3 -2 4 -5.5t1 -5.5q0 -4 -4 -8q-5 -4 -10.5 -10.5t-11.5 -12.5q-5 -7 -11 -12q6 -7 13 -14q20 -21 44 -40t49 -35t45 -25q3 -2 4 -3.5t1 -3.5q0 -1 -1 -3t-6 -2
q-4 1 -10 2q-5 2 -12 4t-15 5q-33 13 -53.5 22.5t-41.5 22t-43 28.5v0l-1 1v0l-1 1v0h-1v0l-1 1v0l-1 1v0l-1 1v0l-1 1v0h-1v1h-1v0l-1 1q-17 -13 -33 -24q-21 -14 -40.5 -24.5t-51.5 -25.5z" />
    <glyph glyph-name="uni1EC8" unicode="&#x1ec8;" horiz-adv-x="312" 
d="M74 725q-8 2 -10.5 6t-2.5 7q0 2 1 4q2 8 10.5 11t14.5 3v0h1v0h1v0v0v0h2q15 -1 33.5 -3t38 -5t37.5 -7t32 -7q8 -2 12 -7t5 -11v0v-1v0v-1v0v-1v0v0q0 -13 -7 -20q-6 -6 -9 -16q-1 -5 -1.5 -10.5t-0.5 -13.5v-540q0 -23 -8 -43.5t-22.5 -35.5t-35 -24t-44.5 -9
q-12 0 -12 8q0 3 2 7q12 27 12 75v592q0 20 -14 28q-18 10 -35 14zM135 914q-6 -4 -10 -11.5t-8 -8.5q-3 -1 -5 -1q-3 0 -5.5 1.5t-2.5 4.5t-1.5 15.5t-2 18t-0.5 8.5t0.5 8t1.5 10q1 3 3 4.5t4 1.5q6 0 7 -4q1 -3 1.5 -5t1.5 -4q3 -5 9 -5v0h1v0v0h1v0q8 4 17.5 9.5
t20 10.5t19.5 7.5t16 2.5q4 0 9 -1q8 -1 18.5 -6.5t19.5 -15.5t12.5 -20.5t3.5 -19.5q0 -8 -2 -17q-4 -18 -17 -32t-26.5 -25t-24.5 -20t-12 -16q0 -4 6 -6t23 -2q5 0 5 -2t-6.5 -7.5t-23.5 -5.5q-13 0 -24 7q-10 6 -11 12t-1 8q0 8 4 16.5t12 17.5t15 15q16 12 22.5 23
t7 16t0.5 6q0 9 -5 15.5t-13 9.5q-5 2 -12 2t-20 -2.5t-28 -12.5z" />
    <glyph glyph-name="uni1EC9" unicode="&#x1ec9;" horiz-adv-x="248" 
d="M45 452q0 13 14 14q7 1 18 1t32.5 -1t47.5 -5q9 -2 15 -8.5t6 -15.5l-1 -408q-3 -18 -21 -23q-25 -5 -64 -5q-21 0 -21 20v393q0 12 -7 21q-5 4 -11 5q-8 3 -8 12zM78 649q-6 -4 -10 -11.5t-8 -8.5q-3 -1 -5 -1q-3 0 -5.5 1.5t-2.5 4.5t-1.5 15.5t-2 18t-0.5 8.5t0.5 8
t1.5 10q1 3 3 4.5t4 1.5q6 0 7 -4q1 -3 1.5 -5t1.5 -4q3 -5 9 -5v0h1v0v0h1v0q8 4 17.5 9.5t20 10.5t19.5 7.5t16 2.5q4 0 9 -1q8 -1 18.5 -6.5t19.5 -15.5t12.5 -20.5t3.5 -19.5q0 -8 -2 -17q-4 -18 -17 -32t-26.5 -25t-24.5 -20t-12 -16q0 -4 6 -6t23 -2q5 0 5 -2
t-6.5 -7.5t-23.5 -5.5q-13 0 -24 7q-10 6 -11 12t-1 8q0 8 4 16.5t12 17.5t15 15q16 12 22.5 23t7 16t0.5 6q0 9 -5 15.5t-13 9.5q-5 2 -12 2t-20 -2.5t-28 -12.5z" />
    <glyph glyph-name="uni1ECA" unicode="&#x1eca;" horiz-adv-x="312" 
d="M74 725q-8 2 -10.5 6t-2.5 7q0 2 1 4q2 8 10.5 11t14.5 3v0h1v0h1v0v0v0h2q15 -1 33.5 -3t38 -5t37.5 -7t32 -7q8 -2 12 -7t5 -11v0v-1v0v-1v0v-1v0v0q0 -13 -7 -20q-6 -6 -9 -16q-1 -5 -1.5 -10.5t-0.5 -13.5v-540q0 -23 -8 -43.5t-22.5 -35.5t-35 -24t-44.5 -9
q-12 0 -12 8q0 3 2 7q12 27 12 75v592q0 20 -14 28q-18 10 -35 14zM122 -42q0 20 20 20h69q20 0 20 -20v-18q0 -20 -20 -20h-69q-20 0 -20 20v18z" />
    <glyph glyph-name="uni1ECB" unicode="&#x1ecb;" horiz-adv-x="248" 
d="M106 516q-18 0 -31 12.5t-13 31.5v22q0 18 13 31t31 13h22q18 0 31 -13t13 -31v-22q0 -19 -13 -31.5t-31 -12.5h-22zM45 434q0 13 14 14q7 1 18 1t32.5 -1t47.5 -5q9 -2 15 -8.5t6 -15.5l-1 -390q-3 -18 -21 -23q-25 -5 -64 -5q-21 0 -21 20v375q0 12 -7 21q-5 4 -11 5
q-8 3 -8 12zM68 -42q0 20 20 20h69q20 0 20 -20v-18q0 -20 -20 -20h-69q-20 0 -20 20v18z" />
    <glyph glyph-name="uni1ECC" unicode="&#x1ecc;" horiz-adv-x="526" 
d="M110 2q-22 0 -22 20v664q0 14 -7 21q-5 5 -10 6q-8 2 -8 11q0 13 13 14q9 1 24 1t32 -1t34 -2.5t30 -4.5h132q8 0 23 2.5t26 9.5q9 7 19 7q3 0 6 -1q13 -3 27 -7.5t25 -9.5q9 -4 9 -12q0 -7 -6 -13q-12 -11 -12 -36v-619q0 -20 -11 -28.5t-30 -8.5h-212q-5 -6 -26.5 -9.5
t-55.5 -3.5zM195 29h144v688h-144v-688zM202 -42q0 20 20 20h69q20 0 20 -20v-18q0 -20 -20 -20h-69q-20 0 -20 20v18z" />
    <glyph glyph-name="uni1ECD" unicode="&#x1ecd;" horiz-adv-x="500" 
d="M367 471q6 4 10.5 5.5t8.5 1.5q3 0 7 -1q12 -3 26.5 -7.5t24.5 -9.5q9 -3 9 -12q0 -8 -6 -14q-6 -5 -9 -14.5t-3 -21.5v-346q0 -20 -11 -28t-29 -8h-213q-4 -7 -26 -10.5t-56 -3.5q-21 0 -21 20v392q0 5 -1.5 11t-5.5 10q-3 3 -11 5q-8 3 -8 12q0 12 14 14q9 1 23.5 1
t31.5 -1t34 -2.5t30 -4.5h133q8 0 23 2.5t25 9.5zM330 445h-145v-415h145v415zM199 -42q0 20 20 20h69q20 0 20 -20v-18q0 -20 -20 -20h-69q-20 0 -20 20v18z" />
    <glyph glyph-name="uni1ECE" unicode="&#x1ece;" horiz-adv-x="526" 
d="M110 2q-22 0 -22 20v664q0 14 -7 21q-5 5 -10 6q-8 2 -8 11q0 13 13 14q9 1 24 1t32 -1t34 -2.5t30 -4.5h132q8 0 23 2.5t26 9.5q9 7 19 7q3 0 6 -1q13 -3 27 -7.5t25 -9.5q9 -4 9 -12q0 -7 -6 -13q-12 -11 -12 -36v-619q0 -20 -11 -28.5t-30 -8.5h-212q-5 -6 -26.5 -9.5
t-55.5 -3.5zM195 29h144v688h-144v-688zM234 914q-6 -4 -10 -11.5t-8 -8.5q-3 -1 -5 -1q-3 0 -5.5 1.5t-2.5 4.5t-1.5 15.5t-2 18t-0.5 8.5t0.5 8t1.5 10q1 3 3 4.5t4 1.5q6 0 7 -4q1 -3 1.5 -5t1.5 -4q3 -5 9 -5v0h1v0v0h1v0q8 4 17.5 9.5t20 10.5t19.5 7.5t16 2.5
q4 0 9 -1q8 -1 18.5 -6.5t19.5 -15.5t12.5 -20.5t3.5 -19.5q0 -8 -2 -17q-4 -18 -17 -32t-26.5 -25t-24.5 -20t-12 -16q0 -4 6 -6t23 -2q5 0 5 -2t-6.5 -7.5t-23.5 -5.5q-13 0 -24 7q-10 6 -11 12t-1 8q0 8 4 16.5t12 17.5t15 15q16 12 22.5 23t7 16t0.5 6q0 9 -5 15.5
t-13 9.5q-5 2 -12 2t-20 -2.5t-28 -12.5z" />
    <glyph glyph-name="uni1ECF" unicode="&#x1ecf;" horiz-adv-x="500" 
d="M367 471q6 4 10.5 5.5t8.5 1.5q3 0 7 -1q12 -3 26.5 -7.5t24.5 -9.5q9 -3 9 -12q0 -8 -6 -14q-6 -5 -9 -14.5t-3 -21.5v-346q0 -20 -11 -28t-29 -8h-213q-4 -7 -26 -10.5t-56 -3.5q-21 0 -21 20v392q0 5 -1.5 11t-5.5 10q-3 3 -11 5q-8 3 -8 12q0 12 14 14q9 1 23.5 1
t31.5 -1t34 -2.5t30 -4.5h133q8 0 23 2.5t25 9.5zM330 445h-145v-415h145v415zM217 651q-6 -4 -10 -11.5t-8 -8.5q-3 -1 -5 -1q-3 0 -5.5 1.5t-2.5 4.5t-1.5 15.5t-2 18t-0.5 8.5t0.5 8t1.5 10q1 3 3 4.5t4 1.5q6 0 7 -4q1 -3 1.5 -5t1.5 -4q3 -5 9 -5v0h1v0v0h1v0
q8 4 17.5 9.5t20 10.5t19.5 7.5t16 2.5q4 0 9 -1q8 -1 18.5 -6.5t19.5 -15.5t12.5 -20.5t3.5 -19.5q0 -8 -2 -17q-4 -18 -17 -32t-26.5 -25t-24.5 -20t-12 -16q0 -4 6 -6t23 -2q5 0 5 -2t-6.5 -7.5t-23.5 -5.5q-13 0 -24 7q-10 6 -11 12t-1 8q0 8 4 16.5t12 17.5t15 15
q16 12 22.5 23t7 16t0.5 6q0 9 -5 15.5t-13 9.5q-5 2 -12 2t-20 -2.5t-28 -12.5z" />
    <glyph glyph-name="uni1ED0" unicode="&#x1ed0;" horiz-adv-x="526" 
d="M110 2q-22 0 -22 20v664q0 14 -7 21q-5 5 -10 6q-8 2 -8 11q0 13 13 14q9 1 24 1t32 -1t34 -2.5t30 -4.5h132q8 0 23 2.5t26 9.5q9 7 19 7q3 0 6 -1q13 -3 27 -7.5t25 -9.5q9 -4 9 -12q0 -7 -6 -13q-12 -11 -12 -36v-619q0 -20 -11 -28.5t-30 -8.5h-212q-5 -6 -26.5 -9.5
t-55.5 -3.5zM195 29h144v688h-144v-688zM142 789q-9 -4 -15.5 -6.5t-11.5 -4.5q-6 -1 -10 -3q-5 1 -6 3t-1 3v0v1t0.5 2.5t4.5 3.5q19 10 43 27.5t46.5 38t41.5 42t30 40.5q3 5 3 9q0 5 -4 10v0l-1 1v0l-3 3l-1 1v1q-3 2 -8 5q-4 3 -4 7v1v0v0v0v0v1v0q1 3 4.5 5t7.5 2h1v0
v0h1v0h1h1q6 -1 17 -5t21.5 -9t20 -9.5t14.5 -7.5q3 -2 4 -5.5t1 -5.5q0 -4 -4 -8q-5 -4 -10.5 -10.5t-11.5 -12.5q-5 -7 -11 -12q6 -7 13 -14q20 -21 44 -40t49 -35t45 -25q3 -2 4 -3.5t1 -3.5q0 -1 -1 -3t-6 -2q-4 1 -10 2q-5 2 -12 4t-15 5q-33 13 -53.5 22.5t-41.5 22
t-43 28.5v0l-1 1v0l-1 1v0h-1v0l-1 1v0l-1 1v0l-1 1v0l-1 1v0h-1v1h-1v0l-1 1q-17 -13 -33 -24q-21 -14 -40.5 -24.5t-51.5 -25.5zM421 884q-9 -3 -16 -4.5t-12 -2.5q-6 -1 -10 -1q-5 1 -5.5 3t-0.5 3v0v1v0v0v0v0v1q0 1 1 2t5 2q20 7 46.5 20.5t52 30.5t47.5 35.5t35 35.5
q5 6 5 11q0 4 -2 8q-3 3 -5 6t-6 7q-4 2 -4 6q0 1 1 3q2 3 5 4.5t6 1.5q2 0 5 -1q7 -2 17 -7.5t19.5 -12.5t18 -12.5t13.5 -9.5q3 -2 3.5 -5.5l0.5 -3.5q0 -6 -6 -10q-6 -3 -12 -9t-13 -11q-22 -18 -45 -32t-45.5 -24.5t-43.5 -18t-55 -16.5z" />
    <glyph glyph-name="uni1ED1" unicode="&#x1ed1;" horiz-adv-x="500" 
d="M367 471q6 4 10.5 5.5t8.5 1.5q3 0 7 -1q12 -3 26.5 -7.5t24.5 -9.5q9 -3 9 -12q0 -8 -6 -14q-6 -5 -9 -14.5t-3 -21.5v-346q0 -20 -11 -28t-29 -8h-213q-4 -7 -26 -10.5t-56 -3.5q-21 0 -21 20v392q0 5 -1.5 11t-5.5 10q-3 3 -11 5q-8 3 -8 12q0 12 14 14q9 1 23.5 1
t31.5 -1t34 -2.5t30 -4.5h133q8 0 23 2.5t25 9.5zM330 445h-145v-415h145v415zM125 526q-9 -4 -15.5 -6.5t-11.5 -4.5q-6 -1 -10 -3q-5 1 -6 3t-1 3v0v1t0.5 2.5t4.5 3.5q19 10 43 27.5t46.5 38t41.5 42t30 40.5q3 5 3 9q0 5 -4 10v0l-1 1v0l-3 3l-1 1v1q-3 2 -8 5
q-4 3 -4 7v1v0v0v0v0v1v0q1 3 4.5 5t7.5 2h1v0v0h1v0h1h1q6 -1 17 -5t21.5 -9t20 -9.5t14.5 -7.5q3 -2 4 -5.5t1 -5.5q0 -4 -4 -8q-5 -4 -10.5 -10.5t-11.5 -12.5q-5 -7 -11 -12q6 -7 13 -14q20 -21 44 -40t49 -35t45 -25q3 -2 4 -3.5t1 -3.5q0 -1 -1 -3t-6 -2q-4 1 -10 2
q-5 2 -12 4t-15 5q-33 13 -53.5 22.5t-41.5 22t-43 28.5v0l-1 1v0l-1 1v0h-1v0l-1 1v0l-1 1v0l-1 1v0l-1 1v0h-1v1h-1v0l-1 1q-17 -13 -33 -24q-21 -14 -40.5 -24.5t-51.5 -25.5zM404 621q-9 -3 -16 -4.5t-12 -2.5q-6 -1 -10 -1q-5 1 -5.5 3t-0.5 3v0v1v0v0v0v0v1q0 1 1 2
t5 2q20 7 46.5 20.5t52 30.5t47.5 35.5t35 35.5q5 6 5 11q0 4 -2 8q-3 3 -5 6t-6 7q-4 2 -4 6q0 1 1 3q2 3 5 4.5t6 1.5q2 0 5 -1q7 -2 17 -7.5t19.5 -12.5t18 -12.5t13.5 -9.5q3 -2 3.5 -5.5l0.5 -3.5q0 -6 -6 -10q-6 -3 -12 -9t-13 -11q-22 -18 -45 -32t-45.5 -24.5
t-43.5 -18t-55 -16.5z" />
    <glyph glyph-name="uni1ED2" unicode="&#x1ed2;" horiz-adv-x="526" 
d="M110 2q-22 0 -22 20v664q0 14 -7 21q-5 5 -10 6q-8 2 -8 11q0 13 13 14q9 1 24 1t32 -1t34 -2.5t30 -4.5h132q8 0 23 2.5t26 9.5q9 7 19 7q3 0 6 -1q13 -3 27 -7.5t25 -9.5q9 -4 9 -12q0 -7 -6 -13q-12 -11 -12 -36v-619q0 -20 -11 -28.5t-30 -8.5h-212q-5 -6 -26.5 -9.5
t-55.5 -3.5zM195 29h144v688h-144v-688zM142 789q-9 -4 -15.5 -6.5t-11.5 -4.5q-6 -1 -10 -3q-5 1 -6 3t-1 3v0v1t0.5 2.5t4.5 3.5q19 10 43 27.5t46.5 38t41.5 42t30 40.5q3 5 3 9q0 5 -4 10v0l-1 1v0l-3 3l-1 1v1q-3 2 -8 5q-4 3 -4 7v1v0v0v0v0v1v0q1 3 4.5 5t7.5 2h1v0
v0h1v0h1h1q6 -1 17 -5t21.5 -9t20 -9.5t14.5 -7.5q3 -2 4 -5.5t1 -5.5q0 -4 -4 -8q-5 -4 -10.5 -10.5t-11.5 -12.5q-5 -7 -11 -12q6 -7 13 -14q20 -21 44 -40t49 -35t45 -25q3 -2 4 -3.5t1 -3.5q0 -1 -1 -3t-6 -2q-4 1 -10 2q-5 2 -12 4t-15 5q-33 13 -53.5 22.5t-41.5 22
t-43 28.5v0l-1 1v0l-1 1v0h-1v0l-1 1v0l-1 1v0l-1 1v0l-1 1v0h-1v1h-1v0l-1 1q-17 -13 -33 -24q-21 -14 -40.5 -24.5t-51.5 -25.5zM136 884q-34 9 -55 16.5t-43.5 18t-45.5 24.5t-45 32q-7 5 -13 11t-12 9q-5 4 -5 10.5t3 8.5q5 4 13.5 9.5t18 12.5t19.5 12.5t17 7.5
q3 1 6 1q2 0 5.5 -1.5t4.5 -4.5q1 -2 1 -4q0 -3 -3 -5q-5 -4 -7 -7t-5 -6q-2 -4 -2 -8q0 -5 5 -11q13 -17 35 -35.5t47.5 -35.5t52 -30.5t46.5 -20.5q4 -1 5 -2t1 -2v-1v0v0v0v-1q0 -1 -0.5 -3t-5.5 -3q-4 0 -10 1q-5 1 -12 2.5t-16 4.5z" />
    <glyph glyph-name="uni1ED3" unicode="&#x1ed3;" horiz-adv-x="500" 
d="M367 471q6 4 10.5 5.5t8.5 1.5q3 0 7 -1q12 -3 26.5 -7.5t24.5 -9.5q9 -3 9 -12q0 -8 -6 -14q-6 -5 -9 -14.5t-3 -21.5v-346q0 -20 -11 -28t-29 -8h-213q-4 -7 -26 -10.5t-56 -3.5q-21 0 -21 20v392q0 5 -1.5 11t-5.5 10q-3 3 -11 5q-8 3 -8 12q0 12 14 14q9 1 23.5 1
t31.5 -1t34 -2.5t30 -4.5h133q8 0 23 2.5t25 9.5zM330 445h-145v-415h145v415zM125 526q-9 -4 -15.5 -6.5t-11.5 -4.5q-6 -1 -10 -3q-5 1 -6 3t-1 3v0v1t0.5 2.5t4.5 3.5q19 10 43 27.5t46.5 38t41.5 42t30 40.5q3 5 3 9q0 5 -4 10v0l-1 1v0l-3 3l-1 1v1q-3 2 -8 5
q-4 3 -4 7v1v0v0v0v0v1v0q1 3 4.5 5t7.5 2h1v0v0h1v0h1h1q6 -1 17 -5t21.5 -9t20 -9.5t14.5 -7.5q3 -2 4 -5.5t1 -5.5q0 -4 -4 -8q-5 -4 -10.5 -10.5t-11.5 -12.5q-5 -7 -11 -12q6 -7 13 -14q20 -21 44 -40t49 -35t45 -25q3 -2 4 -3.5t1 -3.5q0 -1 -1 -3t-6 -2q-4 1 -10 2
q-5 2 -12 4t-15 5q-33 13 -53.5 22.5t-41.5 22t-43 28.5v0l-1 1v0l-1 1v0h-1v0l-1 1v0l-1 1v0l-1 1v0l-1 1v0h-1v1h-1v0l-1 1q-17 -13 -33 -24q-21 -14 -40.5 -24.5t-51.5 -25.5zM118 621q-34 9 -55 16.5t-43.5 18t-45.5 24.5t-45 32q-7 5 -13 11t-12 9q-5 4 -5 10.5t3 8.5
q5 4 13.5 9.5t18 12.5t19.5 12.5t17 7.5q3 1 6 1q2 0 5.5 -1.5t4.5 -4.5q1 -2 1 -4q0 -3 -3 -5q-5 -4 -7 -7t-5 -6q-2 -4 -2 -8q0 -5 5 -11q13 -17 35 -35.5t47.5 -35.5t52 -30.5t46.5 -20.5q4 -1 5 -2t1 -2v-1v0v0v0v-1q0 -1 -0.5 -3t-5.5 -3q-4 0 -10 1q-5 1 -12 2.5
t-16 4.5z" />
    <glyph glyph-name="uni1ED4" unicode="&#x1ed4;" horiz-adv-x="526" 
d="M110 2q-22 0 -22 20v664q0 14 -7 21q-5 5 -10 6q-8 2 -8 11q0 13 13 14q9 1 24 1t32 -1t34 -2.5t30 -4.5h132q8 0 23 2.5t26 9.5q9 7 19 7q3 0 6 -1q13 -3 27 -7.5t25 -9.5q9 -4 9 -12q0 -7 -6 -13q-12 -11 -12 -36v-619q0 -20 -11 -28.5t-30 -8.5h-212q-5 -6 -26.5 -9.5
t-55.5 -3.5zM195 29h144v688h-144v-688zM142 789q-9 -4 -15.5 -6.5t-11.5 -4.5q-6 -1 -10 -3q-5 1 -6 3t-1 3v0v1t0.5 2.5t4.5 3.5q19 10 43 27.5t46.5 38t41.5 42t30 40.5q3 5 3 9q0 5 -4 10v0l-1 1v0l-3 3l-1 1v1q-3 2 -8 5q-4 3 -4 7v1v0v0v0v0v1v0q1 3 4.5 5t7.5 2h1v0
v0h1v0h1h1q6 -1 17 -5t21.5 -9t20 -9.5t14.5 -7.5q3 -2 4 -5.5t1 -5.5q0 -4 -4 -8q-5 -4 -10.5 -10.5t-11.5 -12.5q-5 -7 -11 -12q6 -7 13 -14q20 -21 44 -40t49 -35t45 -25q3 -2 4 -3.5t1 -3.5q0 -1 -1 -3t-6 -2q-4 1 -10 2q-5 2 -12 4t-15 5q-33 13 -53.5 22.5t-41.5 22
t-43 28.5v0l-1 1v0l-1 1v0h-1v0l-1 1v0l-1 1v0l-1 1v0l-1 1v0h-1v1h-1v0l-1 1q-17 -13 -33 -24q-21 -14 -40.5 -24.5t-51.5 -25.5zM375 1026q-6 -4 -10 -11.5t-8 -8.5q-3 -1 -5 -1q-3 0 -5.5 1.5t-2.5 4.5t-1.5 15.5t-2 18t-0.5 8.5t0.5 8t1.5 10q1 3 3 4.5t4 1.5q6 0 7 -4
q1 -3 1.5 -5t1.5 -4q3 -5 9 -5v0h1v0v0h1v0q8 4 17.5 9.5t20 10.5t19.5 7.5t16 2.5q4 0 9 -1q8 -1 18.5 -6.5t19.5 -15.5t12.5 -20.5t3.5 -19.5q0 -8 -2 -17q-4 -18 -17 -32t-26.5 -25t-24.5 -20t-12 -16q0 -4 6 -6t23 -2q5 0 5 -2t-6.5 -7.5t-23.5 -5.5q-13 0 -24 7
q-10 6 -11 12t-1 8q0 8 4 16.5t12 17.5t15 15q16 12 22.5 23t7 16t0.5 6q0 9 -5 15.5t-13 9.5q-5 2 -12 2t-20 -2.5t-28 -12.5z" />
    <glyph glyph-name="uni1ED5" unicode="&#x1ed5;" horiz-adv-x="500" 
d="M367 471q6 4 10.5 5.5t8.5 1.5q3 0 7 -1q12 -3 26.5 -7.5t24.5 -9.5q9 -3 9 -12q0 -8 -6 -14q-6 -5 -9 -14.5t-3 -21.5v-346q0 -20 -11 -28t-29 -8h-213q-4 -7 -26 -10.5t-56 -3.5q-21 0 -21 20v392q0 5 -1.5 11t-5.5 10q-3 3 -11 5q-8 3 -8 12q0 12 14 14q9 1 23.5 1
t31.5 -1t34 -2.5t30 -4.5h133q8 0 23 2.5t25 9.5zM330 445h-145v-415h145v415zM125 526q-9 -4 -15.5 -6.5t-11.5 -4.5q-6 -1 -10 -3q-5 1 -6 3t-1 3v0v1t0.5 2.5t4.5 3.5q19 10 43 27.5t46.5 38t41.5 42t30 40.5q3 5 3 9q0 5 -4 10v0l-1 1v0l-3 3l-1 1v1q-3 2 -8 5
q-4 3 -4 7v1v0v0v0v0v1v0q1 3 4.5 5t7.5 2h1v0v0h1v0h1h1q6 -1 17 -5t21.5 -9t20 -9.5t14.5 -7.5q3 -2 4 -5.5t1 -5.5q0 -4 -4 -8q-5 -4 -10.5 -10.5t-11.5 -12.5q-5 -7 -11 -12q6 -7 13 -14q20 -21 44 -40t49 -35t45 -25q3 -2 4 -3.5t1 -3.5q0 -1 -1 -3t-6 -2q-4 1 -10 2
q-5 2 -12 4t-15 5q-33 13 -53.5 22.5t-41.5 22t-43 28.5v0l-1 1v0l-1 1v0h-1v0l-1 1v0l-1 1v0l-1 1v0l-1 1v0h-1v1h-1v0l-1 1q-17 -13 -33 -24q-21 -14 -40.5 -24.5t-51.5 -25.5zM357 763q-6 -4 -10 -11.5t-8 -8.5q-3 -1 -5 -1q-3 0 -5.5 1.5t-2.5 4.5t-1.5 15.5t-2 18
t-0.5 8.5t0.5 8t1.5 10q1 3 3 4.5t4 1.5q6 0 7 -4q1 -3 1.5 -5t1.5 -4q3 -5 9 -5v0h1v0v0h1v0q8 4 17.5 9.5t20 10.5t19.5 7.5t16 2.5q4 0 9 -1q8 -1 18.5 -6.5t19.5 -15.5t12.5 -20.5t3.5 -19.5q0 -8 -2 -17q-4 -18 -17 -32t-26.5 -25t-24.5 -20t-12 -16q0 -4 6 -6t23 -2
q5 0 5 -2t-6.5 -7.5t-23.5 -5.5q-13 0 -24 7q-10 6 -11 12t-1 8q0 8 4 16.5t12 17.5t15 15q16 12 22.5 23t7 16t0.5 6q0 9 -5 15.5t-13 9.5q-5 2 -12 2t-20 -2.5t-28 -12.5z" />
    <glyph glyph-name="uni1ED6" unicode="&#x1ed6;" horiz-adv-x="526" 
d="M110 2q-22 0 -22 20v664q0 14 -7 21q-5 5 -10 6q-8 2 -8 11q0 13 13 14q9 1 24 1t32 -1t34 -2.5t30 -4.5h132q8 0 23 2.5t26 9.5q9 7 19 7q3 0 6 -1q13 -3 27 -7.5t25 -9.5q9 -4 9 -12q0 -7 -6 -13q-12 -11 -12 -36v-619q0 -20 -11 -28.5t-30 -8.5h-212q-5 -6 -26.5 -9.5
t-55.5 -3.5zM195 29h144v688h-144v-688zM142 789q-9 -4 -15.5 -6.5t-11.5 -4.5q-6 -1 -10 -3q-5 1 -6 3t-1 3v0v1t0.5 2.5t4.5 3.5q19 10 43 27.5t46.5 38t41.5 42t30 40.5q3 5 3 9q0 5 -4 10v0l-1 1v0l-3 3l-1 1v1q-3 2 -8 5q-4 3 -4 7v1v0v0v0v0v1v0q1 3 4.5 5t7.5 2h1v0
v0h1v0h1h1q6 -1 17 -5t21.5 -9t20 -9.5t14.5 -7.5q3 -2 4 -5.5t1 -5.5q0 -4 -4 -8q-5 -4 -10.5 -10.5t-11.5 -12.5q-5 -7 -11 -12q6 -7 13 -14q20 -21 44 -40t49 -35t45 -25q3 -2 4 -3.5t1 -3.5q0 -1 -1 -3t-6 -2q-4 1 -10 2q-5 2 -12 4t-15 5q-33 13 -53.5 22.5t-41.5 22
t-43 28.5v0l-1 1v0l-1 1v0h-1v0l-1 1v0l-1 1v0l-1 1v0l-1 1v0h-1v1h-1v0l-1 1q-17 -13 -33 -24q-21 -14 -40.5 -24.5t-51.5 -25.5zM282 1039q-10 7 -15 10t-7 5q-13 9 -26 9q-21 0 -42 -16.5t-32 -33.5q-9 -16 -12 -16.5l-3 -0.5q-4 0 -6 3q-2 2 -2 5q0 1 0.5 3l2.5 10
q5 17 14.5 33.5t23 29.5t30 21.5t35.5 8.5t34 -9q4 -2 8.5 -4.5t15.5 -8.5q10 -7 18 -12.5t13 -8.5q19 -13 32 -13q21 0 42 16.5t32 33.5q9 16 14 16t7 -2t2 -5q0 -1 -0.5 -3.5t-2.5 -9.5q-4 -16 -14 -32.5t-23.5 -30t-30 -22t-34.5 -8.5q-21 0 -45 15q-4 2 -11 6.5
t-18 10.5z" />
    <glyph glyph-name="uni1ED7" unicode="&#x1ed7;" horiz-adv-x="500" 
d="M367 471q6 4 10.5 5.5t8.5 1.5q3 0 7 -1q12 -3 26.5 -7.5t24.5 -9.5q9 -3 9 -12q0 -8 -6 -14q-6 -5 -9 -14.5t-3 -21.5v-346q0 -20 -11 -28t-29 -8h-213q-4 -7 -26 -10.5t-56 -3.5q-21 0 -21 20v392q0 5 -1.5 11t-5.5 10q-3 3 -11 5q-8 3 -8 12q0 12 14 14q9 1 23.5 1
t31.5 -1t34 -2.5t30 -4.5h133q8 0 23 2.5t25 9.5zM330 445h-145v-415h145v415zM125 526q-9 -4 -15.5 -6.5t-11.5 -4.5q-6 -1 -10 -3q-5 1 -6 3t-1 3v0v1t0.5 2.5t4.5 3.5q19 10 43 27.5t46.5 38t41.5 42t30 40.5q3 5 3 9q0 5 -4 10v0l-1 1v0l-3 3l-1 1v1q-3 2 -8 5
q-4 3 -4 7v1v0v0v0v0v1v0q1 3 4.5 5t7.5 2h1v0v0h1v0h1h1q6 -1 17 -5t21.5 -9t20 -9.5t14.5 -7.5q3 -2 4 -5.5t1 -5.5q0 -4 -4 -8q-5 -4 -10.5 -10.5t-11.5 -12.5q-5 -7 -11 -12q6 -7 13 -14q20 -21 44 -40t49 -35t45 -25q3 -2 4 -3.5t1 -3.5q0 -1 -1 -3t-6 -2q-4 1 -10 2
q-5 2 -12 4t-15 5q-33 13 -53.5 22.5t-41.5 22t-43 28.5v0l-1 1v0l-1 1v0h-1v0l-1 1v0l-1 1v0l-1 1v0l-1 1v0h-1v1h-1v0l-1 1q-17 -13 -33 -24q-21 -14 -40.5 -24.5t-51.5 -25.5zM265 776q-10 7 -15 10t-7 5q-13 9 -26 9q-21 0 -42 -16.5t-32 -33.5q-9 -16 -12 -16.5
l-3 -0.5q-4 0 -6 3q-2 2 -2 5q0 1 0.5 3l2.5 10q5 17 14.5 33.5t23 29.5t30 21.5t35.5 8.5t34 -9q4 -2 8.5 -4.5t15.5 -8.5q10 -7 18 -12.5t13 -8.5q19 -13 32 -13q21 0 42 16.5t32 33.5q9 16 14 16t7 -2t2 -5q0 -1 -0.5 -3.5t-2.5 -9.5q-4 -16 -14 -32.5t-23.5 -30t-30 -22
t-34.5 -8.5q-21 0 -45 15q-4 2 -11 6.5t-18 10.5z" />
    <glyph glyph-name="uni1ED8" unicode="&#x1ed8;" horiz-adv-x="526" 
d="M110 2q-22 0 -22 20v664q0 14 -7 21q-5 5 -10 6q-8 2 -8 11q0 13 13 14q9 1 24 1t32 -1t34 -2.5t30 -4.5h132q8 0 23 2.5t26 9.5q9 7 19 7q3 0 6 -1q13 -3 27 -7.5t25 -9.5q9 -4 9 -12q0 -7 -6 -13q-12 -11 -12 -36v-619q0 -20 -11 -28.5t-30 -8.5h-212q-5 -6 -26.5 -9.5
t-55.5 -3.5zM195 29h144v688h-144v-688zM142 789q-9 -4 -15.5 -6.5t-11.5 -4.5q-6 -1 -10 -3q-5 1 -6 3t-1 3v0v1t0.5 2.5t4.5 3.5q19 10 43 27.5t46.5 38t41.5 42t30 40.5q3 5 3 9q0 5 -4 10v0l-1 1v0l-3 3l-1 1v1q-3 2 -8 5q-4 3 -4 7v1v0v0v0v0v1v0q1 3 4.5 5t7.5 2h1v0
v0h1v0h1h1q6 -1 17 -5t21.5 -9t20 -9.5t14.5 -7.5q3 -2 4 -5.5t1 -5.5q0 -4 -4 -8q-5 -4 -10.5 -10.5t-11.5 -12.5q-5 -7 -11 -12q6 -7 13 -14q20 -21 44 -40t49 -35t45 -25q3 -2 4 -3.5t1 -3.5q0 -1 -1 -3t-6 -2q-4 1 -10 2q-5 2 -12 4t-15 5q-33 13 -53.5 22.5t-41.5 22
t-43 28.5v0l-1 1v0l-1 1v0h-1v0l-1 1v0l-1 1v0l-1 1v0l-1 1v0h-1v1h-1v0l-1 1q-17 -13 -33 -24q-21 -14 -40.5 -24.5t-51.5 -25.5zM202 -42q0 20 20 20h69q20 0 20 -20v-18q0 -20 -20 -20h-69q-20 0 -20 20v18z" />
    <glyph glyph-name="uni1ED9" unicode="&#x1ed9;" horiz-adv-x="500" 
d="M367 471q6 4 10.5 5.5t8.5 1.5q3 0 7 -1q12 -3 26.5 -7.5t24.5 -9.5q9 -3 9 -12q0 -8 -6 -14q-6 -5 -9 -14.5t-3 -21.5v-346q0 -20 -11 -28t-29 -8h-213q-4 -7 -26 -10.5t-56 -3.5q-21 0 -21 20v392q0 5 -1.5 11t-5.5 10q-3 3 -11 5q-8 3 -8 12q0 12 14 14q9 1 23.5 1
t31.5 -1t34 -2.5t30 -4.5h133q8 0 23 2.5t25 9.5zM330 445h-145v-415h145v415zM199 -42q0 20 20 20h69q20 0 20 -20v-18q0 -20 -20 -20h-69q-20 0 -20 20v18zM125 526q-9 -4 -15.5 -6.5t-11.5 -4.5q-6 -1 -10 -3q-5 1 -6 3t-1 3v0v1t0.5 2.5t4.5 3.5q19 10 43 27.5t46.5 38
t41.5 42t30 40.5q3 5 3 9q0 5 -4 10v0l-1 1v0l-3 3l-1 1v1q-3 2 -8 5q-4 3 -4 7v1v0v0v0v0v1v0q1 3 4.5 5t7.5 2h1v0v0h1v0h1h1q6 -1 17 -5t21.5 -9t20 -9.5t14.5 -7.5q3 -2 4 -5.5t1 -5.5q0 -4 -4 -8q-5 -4 -10.5 -10.5t-11.5 -12.5q-5 -7 -11 -12q6 -7 13 -14
q20 -21 44 -40t49 -35t45 -25q3 -2 4 -3.5t1 -3.5q0 -1 -1 -3t-6 -2q-4 1 -10 2q-5 2 -12 4t-15 5q-33 13 -53.5 22.5t-41.5 22t-43 28.5v0l-1 1v0l-1 1v0h-1v0l-1 1v0l-1 1v0l-1 1v0l-1 1v0h-1v1h-1v0l-1 1q-17 -13 -33 -24q-21 -14 -40.5 -24.5t-51.5 -25.5z" />
    <glyph glyph-name="uni1EDA" unicode="&#x1eda;" horiz-adv-x="574" 
d="M110 2q-22 0 -22 20v664q0 14 -7 21q-5 5 -10 6q-8 2 -8 11q0 13 13 14q9 1 24 1t32 -1t34 -2.5t30 -4.5h132q8 0 23 2.5t26 9.5q9 7 19 7q3 0 6 -1q13 -3 27 -7.5t25 -9.5q9 -4 9 -12q0 -7 -6 -13q-12 -11 -12 -36v-17h2q17 0 29.5 9.5t13.5 23.5v1v1v1v0v1v0v1v1v3v1
v43q0 21 2 30q10 31 43 31v0h1v0v0v0h1v0v0q25 -1 47 -9q8 -3 8 -8q0 -4 -6 -9q-5 -4 -9.5 -9t-4.5 -12q-1 -6 -1.5 -14.5t-0.5 -14.5v-11q0 -35 -22 -53q-11 -9 -26 -13q-14 -5 -32.5 -8t-32.5 -10q-4 -2 -7 -4.5t-5 -4.5v-569q0 -20 -11 -28.5t-30 -8.5h-212
q-5 -6 -26.5 -9.5t-55.5 -3.5zM195 29h144v688h-144v-688zM217 786q-9 -3 -16 -4.5t-12 -2.5q-6 -1 -10 -1q-5 1 -5.5 3t-0.5 3v0v1v0v0v0v0v1q0 1 1 2t5 2q20 7 46.5 20.5t52 30.5t47.5 35.5t35 35.5q5 6 5 11q0 4 -2 8q-3 3 -5 6t-6 7q-4 2 -4 6q0 1 1 3q2 3 5 4.5t6 1.5
q2 0 5 -1q7 -2 17 -7.5t19.5 -12.5t18 -12.5t13.5 -9.5q3 -2 3.5 -5.5l0.5 -3.5q0 -6 -6 -10q-6 -3 -12 -9t-13 -11q-22 -18 -45 -32t-45.5 -24.5t-43.5 -18t-55 -16.5z" />
    <glyph glyph-name="uni1EDB" unicode="&#x1edb;" horiz-adv-x="593" 
d="M367 471q6 4 10.5 5.5t8.5 1.5q3 0 7 -1q12 -3 26.5 -7.5t24.5 -9.5q9 -3 9 -12q0 -8 -6 -14q-6 -5 -9 -14q-2 -5 -2 -11q14 2 23.5 11.5t10.5 21.5v0v1v1v1v1v0v4v1v0v44q0 20 2 29q9 31 41 31v0h1h1v0v0h2q25 -1 48 -9q7 -2 7.5 -4.5l0.5 -2.5q0 -4 -7 -9
q-5 -5 -9 -9.5t-5 -11.5q-1 -6 -1.5 -14.5t-0.5 -14.5v-12q0 -34 -22 -52q-11 -9 -25 -14q-15 -5 -33.5 -7.5t-32.5 -10.5q-1 0 -2 -1v-331q0 -20 -11 -28t-29 -8h-213q-4 -7 -26 -10.5t-56 -3.5q-21 0 -21 20v392q0 5 -1.5 11t-5.5 10q-3 3 -11 5q-8 3 -8 12q0 12 14 14
q9 1 23.5 1t31.5 -1t34 -2.5t30 -4.5h133q8 0 23 2.5t25 9.5zM330 445h-145v-415h145v415zM184 523q-9 -3 -16 -4.5t-12 -2.5q-6 -1 -10 -1q-5 1 -5.5 3t-0.5 3v0v1v0v0v0v0v1q0 1 1 2t5 2q20 7 46.5 20.5t52 30.5t47.5 35.5t35 35.5q5 6 5 11q0 4 -2 8q-3 3 -5 6t-6 7
q-4 2 -4 6q0 1 1 3q2 3 5 4.5t6 1.5q2 0 5 -1q7 -2 17 -7.5t19.5 -12.5t18 -12.5t13.5 -9.5q3 -2 3.5 -5.5l0.5 -3.5q0 -6 -6 -10q-6 -3 -12 -9t-13 -11q-22 -18 -45 -32t-45.5 -24.5t-43.5 -18t-55 -16.5z" />
    <glyph glyph-name="uni1EDC" unicode="&#x1edc;" horiz-adv-x="574" 
d="M110 2q-22 0 -22 20v664q0 14 -7 21q-5 5 -10 6q-8 2 -8 11q0 13 13 14q9 1 24 1t32 -1t34 -2.5t30 -4.5h132q8 0 23 2.5t26 9.5q9 7 19 7q3 0 6 -1q13 -3 27 -7.5t25 -9.5q9 -4 9 -12q0 -7 -6 -13q-12 -11 -12 -36v-17h2q17 0 29.5 9.5t13.5 23.5v1v1v1v0v1v0v1v1v3v1
v43q0 21 2 30q10 31 43 31v0h1v0v0v0h1v0v0q25 -1 47 -9q8 -3 8 -8q0 -4 -6 -9q-5 -4 -9.5 -9t-4.5 -12q-1 -6 -1.5 -14.5t-0.5 -14.5v-11q0 -35 -22 -53q-11 -9 -26 -13q-14 -5 -32.5 -8t-32.5 -10q-4 -2 -7 -4.5t-5 -4.5v-569q0 -20 -11 -28.5t-30 -8.5h-212
q-5 -6 -26.5 -9.5t-55.5 -3.5zM195 29h144v688h-144v-688zM315 788q-34 9 -55 16.5t-43.5 18t-45.5 24.5t-45 32q-7 5 -13 11t-12 9q-5 4 -5 10.5t3 8.5q5 4 13.5 9.5t18 12.5t19.5 12.5t17 7.5q3 1 6 1q2 0 5.5 -1.5t4.5 -4.5q1 -2 1 -4q0 -3 -3 -5q-5 -4 -7 -7t-5 -6
q-2 -4 -2 -8q0 -5 5 -11q13 -17 35 -35.5t47.5 -35.5t52 -30.5t46.5 -20.5q4 -1 5 -2t1 -2v-1v0v0v0v-1q0 -1 -0.5 -3t-5.5 -3q-4 0 -10 1q-5 1 -12 2.5t-16 4.5z" />
    <glyph glyph-name="uni1EDD" unicode="&#x1edd;" horiz-adv-x="593" 
d="M367 471q6 4 10.5 5.5t8.5 1.5q3 0 7 -1q12 -3 26.5 -7.5t24.5 -9.5q9 -3 9 -12q0 -8 -6 -14q-6 -5 -9 -14q-2 -5 -2 -11q14 2 23.5 11.5t10.5 21.5v0v1v1v1v1v0v4v1v0v44q0 20 2 29q9 31 41 31v0h1h1v0v0h2q25 -1 48 -9q7 -2 7.5 -4.5l0.5 -2.5q0 -4 -7 -9
q-5 -5 -9 -9.5t-5 -11.5q-1 -6 -1.5 -14.5t-0.5 -14.5v-12q0 -34 -22 -52q-11 -9 -25 -14q-15 -5 -33.5 -7.5t-32.5 -10.5q-1 0 -2 -1v-331q0 -20 -11 -28t-29 -8h-213q-4 -7 -26 -10.5t-56 -3.5q-21 0 -21 20v392q0 5 -1.5 11t-5.5 10q-3 3 -11 5q-8 3 -8 12q0 12 14 14
q9 1 23.5 1t31.5 -1t34 -2.5t30 -4.5h133q8 0 23 2.5t25 9.5zM330 445h-145v-415h145v415zM297 525q-34 9 -55 16.5t-43.5 18t-45.5 24.5t-45 32q-7 5 -13 11t-12 9q-5 4 -5 10.5t3 8.5q5 4 13.5 9.5t18 12.5t19.5 12.5t17 7.5q3 1 6 1q2 0 5.5 -1.5t4.5 -4.5q1 -2 1 -4
q0 -3 -3 -5q-5 -4 -7 -7t-5 -6q-2 -4 -2 -8q0 -5 5 -11q13 -17 35 -35.5t47.5 -35.5t52 -30.5t46.5 -20.5q4 -1 5 -2t1 -2v-1v0v0v0v-1q0 -1 -0.5 -3t-5.5 -3q-4 0 -10 1q-5 1 -12 2.5t-16 4.5z" />
    <glyph glyph-name="uni1EDE" unicode="&#x1ede;" horiz-adv-x="574" 
d="M110 2q-22 0 -22 20v664q0 14 -7 21q-5 5 -10 6q-8 2 -8 11q0 13 13 14q9 1 24 1t32 -1t34 -2.5t30 -4.5h132q8 0 23 2.5t26 9.5q9 7 19 7q3 0 6 -1q13 -3 27 -7.5t25 -9.5q9 -4 9 -12q0 -7 -6 -13q-12 -11 -12 -36v-17h2q17 0 29.5 9.5t13.5 23.5v1v1v1v0v1v0v1v1v3v1
v43q0 21 2 30q10 31 43 31v0h1v0v0v0h1v0v0q25 -1 47 -9q8 -3 8 -8q0 -4 -6 -9q-5 -4 -9.5 -9t-4.5 -12q-1 -6 -1.5 -14.5t-0.5 -14.5v-11q0 -35 -22 -53q-11 -9 -26 -13q-14 -5 -32.5 -8t-32.5 -10q-4 -2 -7 -4.5t-5 -4.5v-569q0 -20 -11 -28.5t-30 -8.5h-212
q-5 -6 -26.5 -9.5t-55.5 -3.5zM195 29h144v688h-144v-688zM234 914q-6 -4 -10 -11.5t-8 -8.5q-3 -1 -5 -1q-3 0 -5.5 1.5t-2.5 4.5t-1.5 15.5t-2 18t-0.5 8.5t0.5 8t1.5 10q1 3 3 4.5t4 1.5q6 0 7 -4q1 -3 1.5 -5t1.5 -4q3 -5 9 -5v0h1v0v0h1v0q8 4 17.5 9.5t20 10.5
t19.5 7.5t16 2.5q4 0 9 -1q8 -1 18.5 -6.5t19.5 -15.5t12.5 -20.5t3.5 -19.5q0 -8 -2 -17q-4 -18 -17 -32t-26.5 -25t-24.5 -20t-12 -16q0 -4 6 -6t23 -2q5 0 5 -2t-6.5 -7.5t-23.5 -5.5q-13 0 -24 7q-10 6 -11 12t-1 8q0 8 4 16.5t12 17.5t15 15q16 12 22.5 23t7 16t0.5 6
q0 9 -5 15.5t-13 9.5q-5 2 -12 2t-20 -2.5t-28 -12.5z" />
    <glyph glyph-name="uni1EDF" unicode="&#x1edf;" horiz-adv-x="593" 
d="M367 471q6 4 10.5 5.5t8.5 1.5q3 0 7 -1q12 -3 26.5 -7.5t24.5 -9.5q9 -3 9 -12q0 -8 -6 -14q-6 -5 -9 -14q-2 -5 -2 -11q14 2 23.5 11.5t10.5 21.5v0v1v1v1v1v0v4v1v0v44q0 20 2 29q9 31 41 31v0h1h1v0v0h2q25 -1 48 -9q7 -2 7.5 -4.5l0.5 -2.5q0 -4 -7 -9
q-5 -5 -9 -9.5t-5 -11.5q-1 -6 -1.5 -14.5t-0.5 -14.5v-12q0 -34 -22 -52q-11 -9 -25 -14q-15 -5 -33.5 -7.5t-32.5 -10.5q-1 0 -2 -1v-331q0 -20 -11 -28t-29 -8h-213q-4 -7 -26 -10.5t-56 -3.5q-21 0 -21 20v392q0 5 -1.5 11t-5.5 10q-3 3 -11 5q-8 3 -8 12q0 12 14 14
q9 1 23.5 1t31.5 -1t34 -2.5t30 -4.5h133q8 0 23 2.5t25 9.5zM330 445h-145v-415h145v415zM217 651q-6 -4 -10 -11.5t-8 -8.5q-3 -1 -5 -1q-3 0 -5.5 1.5t-2.5 4.5t-1.5 15.5t-2 18t-0.5 8.5t0.5 8t1.5 10q1 3 3 4.5t4 1.5q6 0 7 -4q1 -3 1.5 -5t1.5 -4q3 -5 9 -5v0h1v0v0h1
v0q8 4 17.5 9.5t20 10.5t19.5 7.5t16 2.5q4 0 9 -1q8 -1 18.5 -6.5t19.5 -15.5t12.5 -20.5t3.5 -19.5q0 -8 -2 -17q-4 -18 -17 -32t-26.5 -25t-24.5 -20t-12 -16q0 -4 6 -6t23 -2q5 0 5 -2t-6.5 -7.5t-23.5 -5.5q-13 0 -24 7q-10 6 -11 12t-1 8q0 8 4 16.5t12 17.5t15 15
q16 12 22.5 23t7 16t0.5 6q0 9 -5 15.5t-13 9.5q-5 2 -12 2t-20 -2.5t-28 -12.5z" />
    <glyph glyph-name="uni1EE0" unicode="&#x1ee0;" horiz-adv-x="574" 
d="M110 2q-22 0 -22 20v664q0 14 -7 21q-5 5 -10 6q-8 2 -8 11q0 13 13 14q9 1 24 1t32 -1t34 -2.5t30 -4.5h132q8 0 23 2.5t26 9.5q9 7 19 7q3 0 6 -1q13 -3 27 -7.5t25 -9.5q9 -4 9 -12q0 -7 -6 -13q-12 -11 -12 -36v-17h2q17 0 29.5 9.5t13.5 23.5v1v1v1v0v1v0v1v1v3v1
v43q0 21 2 30q10 31 43 31v0h1v0v0v0h1v0v0q25 -1 47 -9q8 -3 8 -8q0 -4 -6 -9q-5 -4 -9.5 -9t-4.5 -12q-1 -6 -1.5 -14.5t-0.5 -14.5v-11q0 -35 -22 -53q-11 -9 -26 -13q-14 -5 -32.5 -8t-32.5 -10q-4 -2 -7 -4.5t-5 -4.5v-569q0 -20 -11 -28.5t-30 -8.5h-212
q-5 -6 -26.5 -9.5t-55.5 -3.5zM195 29h144v688h-144v-688zM239 820q-10 7 -15 10t-7 5q-13 9 -26 9q-21 0 -42 -16.5t-32 -33.5q-9 -16 -12 -16.5l-3 -0.5q-4 0 -6 3q-2 2 -2 5q0 1 0.5 3l2.5 10q5 17 14.5 33.5t23 29.5t30 21.5t35.5 8.5t34 -9q4 -2 8.5 -4.5t15.5 -8.5
q10 -7 18 -12.5t13 -8.5q19 -13 32 -13q21 0 42 16.5t32 33.5q9 16 14 16t7 -2t2 -5q0 -1 -0.5 -3.5t-2.5 -9.5q-4 -16 -14 -32.5t-23.5 -30t-30 -22t-34.5 -8.5q-21 0 -45 15q-4 2 -11 6.5t-18 10.5z" />
    <glyph glyph-name="uni1EE1" unicode="&#x1ee1;" horiz-adv-x="593" 
d="M367 471q6 4 10.5 5.5t8.5 1.5q3 0 7 -1q12 -3 26.5 -7.5t24.5 -9.5q9 -3 9 -12q0 -8 -6 -14q-6 -5 -9 -14q-2 -5 -2 -11q14 2 23.5 11.5t10.5 21.5v0v1v1v1v1v0v4v1v0v44q0 20 2 29q9 31 41 31v0h1h1v0v0h2q25 -1 48 -9q7 -2 7.5 -4.5l0.5 -2.5q0 -4 -7 -9
q-5 -5 -9 -9.5t-5 -11.5q-1 -6 -1.5 -14.5t-0.5 -14.5v-12q0 -34 -22 -52q-11 -9 -25 -14q-15 -5 -33.5 -7.5t-32.5 -10.5q-1 0 -2 -1v-331q0 -20 -11 -28t-29 -8h-213q-4 -7 -26 -10.5t-56 -3.5q-21 0 -21 20v392q0 5 -1.5 11t-5.5 10q-3 3 -11 5q-8 3 -8 12q0 12 14 14
q9 1 23.5 1t31.5 -1t34 -2.5t30 -4.5h133q8 0 23 2.5t25 9.5zM330 445h-145v-415h145v415zM221 557q-10 7 -15 10t-7 5q-13 9 -26 9q-21 0 -42 -16.5t-32 -33.5q-9 -16 -12 -16.5l-3 -0.5q-4 0 -6 3q-2 2 -2 5q0 1 0.5 3l2.5 10q5 17 14.5 33.5t23 29.5t30 21.5t35.5 8.5
t34 -9q4 -2 8.5 -4.5t15.5 -8.5q10 -7 18 -12.5t13 -8.5q19 -13 32 -13q21 0 42 16.5t32 33.5q9 16 14 16t7 -2t2 -5q0 -1 -0.5 -3.5t-2.5 -9.5q-4 -16 -14 -32.5t-23.5 -30t-30 -22t-34.5 -8.5q-21 0 -45 15q-4 2 -11 6.5t-18 10.5z" />
    <glyph glyph-name="uni1EE2" unicode="&#x1ee2;" horiz-adv-x="574" 
d="M110 2q-22 0 -22 20v664q0 14 -7 21q-5 5 -10 6q-8 2 -8 11q0 13 13 14q9 1 24 1t32 -1t34 -2.5t30 -4.5h132q8 0 23 2.5t26 9.5q9 7 19 7q3 0 6 -1q13 -3 27 -7.5t25 -9.5q9 -4 9 -12q0 -7 -6 -13q-12 -11 -12 -36v-17h2q17 0 29.5 9.5t13.5 23.5v1v1v1v0v1v0v1v1v3v1
v43q0 21 2 30q10 31 43 31v0h1v0v0v0h1v0v0q25 -1 47 -9q8 -3 8 -8q0 -4 -6 -9q-5 -4 -9.5 -9t-4.5 -12q-1 -6 -1.5 -14.5t-0.5 -14.5v-11q0 -35 -22 -53q-11 -9 -26 -13q-14 -5 -32.5 -8t-32.5 -10q-4 -2 -7 -4.5t-5 -4.5v-569q0 -20 -11 -28.5t-30 -8.5h-212
q-5 -6 -26.5 -9.5t-55.5 -3.5zM195 29h144v688h-144v-688zM202 -42q0 20 20 20h69q20 0 20 -20v-18q0 -20 -20 -20h-69q-20 0 -20 20v18z" />
    <glyph glyph-name="uni1EE3" unicode="&#x1ee3;" horiz-adv-x="593" 
d="M367 471q6 4 10.5 5.5t8.5 1.5q3 0 7 -1q12 -3 26.5 -7.5t24.5 -9.5q9 -3 9 -12q0 -8 -6 -14q-6 -5 -9 -14q-2 -5 -2 -11q14 2 23.5 11.5t10.5 21.5v0v1v1v1v1v0v4v1v0v44q0 20 2 29q9 31 41 31v0h1h1v0v0h2q25 -1 48 -9q7 -2 7.5 -4.5l0.5 -2.5q0 -4 -7 -9
q-5 -5 -9 -9.5t-5 -11.5q-1 -6 -1.5 -14.5t-0.5 -14.5v-12q0 -34 -22 -52q-11 -9 -25 -14q-15 -5 -33.5 -7.5t-32.5 -10.5q-1 0 -2 -1v-331q0 -20 -11 -28t-29 -8h-213q-4 -7 -26 -10.5t-56 -3.5q-21 0 -21 20v392q0 5 -1.5 11t-5.5 10q-3 3 -11 5q-8 3 -8 12q0 12 14 14
q9 1 23.5 1t31.5 -1t34 -2.5t30 -4.5h133q8 0 23 2.5t25 9.5zM330 445h-145v-415h145v415zM199 -42q0 20 20 20h69q20 0 20 -20v-18q0 -20 -20 -20h-69q-20 0 -20 20v18z" />
    <glyph glyph-name="uni1EE4" unicode="&#x1ee4;" horiz-adv-x="621" 
d="M542 109q0 -47 -30.5 -71.5t-80.5 -24.5h-215q-4 -6 -26 -10t-56 -4q-23 0 -23 20v657q0 20 -14 28q-19 11 -35 14q-8 2 -10.5 6.5t-2.5 7.5q0 2 1 4q2 8 10 11t14 3h1v0v0h1v0h1h1q15 -1 34 -3.5t38.5 -5.5t37.5 -6.5t32 -6.5q16 -5 16 -18v-1v0v-1v0v0v-1v0v-1
q0 -12 -6 -20q-3 -3 -5.5 -7t-3.5 -8q-1 -5 -1.5 -11t-0.5 -14v-618h202q6 14 9 25t3 34v575q0 28 3 40q2 7 4 11q3 6 6.5 10t6.5 7q4 4 8 6q6 3 11.5 5.5t10.5 2.5q3 0 6 -1q11 -2 29.5 -6.5t32.5 -10.5q5 -2 6.5 -5.5t1.5 -7.5q0 -10 -4 -14q-6 -7 -7.5 -8.5t-3.5 -9.5
t-2 -19v-553zM269 -42q0 20 20 20h69q20 0 20 -20v-18q0 -20 -20 -20h-69q-20 0 -20 20v18z" />
    <glyph glyph-name="uni1EE5" unicode="&#x1ee5;" horiz-adv-x="503" 
d="M427 51q0 -20 -11 -28t-29 -8h-213q-4 -7 -26 -10.5t-56 -3.5q-21 0 -21 20v392q0 12 -7 21q-5 4 -11 5q-8 3 -8 12q0 13 14 14q9 1 23 1q7 0 24.5 -0.5t42.5 -3.5q12 -2 20 -10.5t8 -20.5v-402h144v406q0 10 6 17.5t15 9.5q8 3 17 8q11 7 19 7q3 0 6 -1q13 -3 27.5 -7.5
t24.5 -9.5q9 -3 9 -12q0 -8 -6 -14q-6 -5 -9 -14.5t-3 -21.5v-346zM199 -42q0 20 20 20h69q20 0 20 -20v-18q0 -20 -20 -20h-69q-20 0 -20 20v18z" />
    <glyph glyph-name="uni1EE6" unicode="&#x1ee6;" horiz-adv-x="621" 
d="M542 109q0 -47 -30.5 -71.5t-80.5 -24.5h-215q-4 -6 -26 -10t-56 -4q-23 0 -23 20v657q0 20 -14 28q-19 11 -35 14q-8 2 -10.5 6.5t-2.5 7.5q0 2 1 4q2 8 10 11t14 3h1v0v0h1v0h1h1q15 -1 34 -3.5t38.5 -5.5t37.5 -6.5t32 -6.5q16 -5 16 -18v-1v0v-1v0v0v-1v0v-1
q0 -12 -6 -20q-3 -3 -5.5 -7t-3.5 -8q-1 -5 -1.5 -11t-0.5 -14v-618h202q6 14 9 25t3 34v575q0 28 3 40q2 7 4 11q3 6 6.5 10t6.5 7q4 4 8 6q6 3 11.5 5.5t10.5 2.5q3 0 6 -1q11 -2 29.5 -6.5t32.5 -10.5q5 -2 6.5 -5.5t1.5 -7.5q0 -10 -4 -14q-6 -7 -7.5 -8.5t-3.5 -9.5
t-2 -19v-553zM302 914q-6 -4 -10 -11.5t-8 -8.5q-3 -1 -5 -1q-3 0 -5.5 1.5t-2.5 4.5t-1.5 15.5t-2 18t-0.5 8.5t0.5 8t1.5 10q1 3 3 4.5t4 1.5q6 0 7 -4q1 -3 1.5 -5t1.5 -4q3 -5 9 -5v0h1v0v0h1v0q8 4 17.5 9.5t20 10.5t19.5 7.5t16 2.5q4 0 9 -1q8 -1 18.5 -6.5
t19.5 -15.5t12.5 -20.5t3.5 -19.5q0 -8 -2 -17q-4 -18 -17 -32t-26.5 -25t-24.5 -20t-12 -16q0 -4 6 -6t23 -2q5 0 5 -2t-6.5 -7.5t-23.5 -5.5q-13 0 -24 7q-10 6 -11 12t-1 8q0 8 4 16.5t12 17.5t15 15q16 12 22.5 23t7 16t0.5 6q0 9 -5 15.5t-13 9.5q-5 2 -12 2t-20 -2.5
t-28 -12.5z" />
    <glyph glyph-name="uni1EE7" unicode="&#x1ee7;" horiz-adv-x="503" 
d="M427 51q0 -20 -11 -28t-29 -8h-213q-4 -7 -26 -10.5t-56 -3.5q-21 0 -21 20v392q0 12 -7 21q-5 4 -11 5q-8 3 -8 12q0 13 14 14q9 1 23 1q7 0 24.5 -0.5t42.5 -3.5q12 -2 20 -10.5t8 -20.5v-402h144v406q0 10 6 17.5t15 9.5q8 3 17 8q11 7 19 7q3 0 6 -1q13 -3 27.5 -7.5
t24.5 -9.5q9 -3 9 -12q0 -8 -6 -14q-6 -5 -9 -14.5t-3 -21.5v-346zM217 651q-6 -4 -10 -11.5t-8 -8.5q-3 -1 -5 -1q-3 0 -5.5 1.5t-2.5 4.5t-1.5 15.5t-2 18t-0.5 8.5t0.5 8t1.5 10q1 3 3 4.5t4 1.5q6 0 7 -4q1 -3 1.5 -5t1.5 -4q3 -5 9 -5v0h1v0v0h1v0q8 4 17.5 9.5
t20 10.5t19.5 7.5t16 2.5q4 0 9 -1q8 -1 18.5 -6.5t19.5 -15.5t12.5 -20.5t3.5 -19.5q0 -8 -2 -17q-4 -18 -17 -32t-26.5 -25t-24.5 -20t-12 -16q0 -4 6 -6t23 -2q5 0 5 -2t-6.5 -7.5t-23.5 -5.5q-13 0 -24 7q-10 6 -11 12t-1 8q0 8 4 16.5t12 17.5t15 15q16 12 22.5 23
t7 16t0.5 6q0 9 -5 15.5t-13 9.5q-5 2 -12 2t-20 -2.5t-28 -12.5z" />
    <glyph glyph-name="uni1EE8" unicode="&#x1ee8;" horiz-adv-x="667" 
d="M542 109q0 -47 -30.5 -71.5t-80.5 -24.5h-215q-4 -6 -26 -10t-56 -4q-23 0 -23 20v657q0 20 -14 28q-19 11 -35 14q-8 2 -10.5 6.5t-2.5 7.5q0 2 1 4q2 8 10 11t14 3h1v0v0h1v0h1h1q15 -1 34 -3.5t38.5 -5.5t37.5 -6.5t32 -6.5q16 -5 16 -18v-1v0v-1v0v0v-1v0v-1
q0 -12 -6 -20q-3 -3 -5.5 -7t-3.5 -8q-1 -5 -1.5 -11t-0.5 -14v-618h202q6 14 9 25t3 34v575q0 28 3 40q2 7 4 11q3 6 6.5 10t6.5 7q4 4 8 6q6 3 11.5 5.5t10.5 2.5q3 0 6 -1q11 -2 29.5 -6.5t32.5 -10.5q5 -2 6.5 -5.5t1.5 -7.5q0 -10 -4 -14q-6 -7 -7.5 -8.5t-3.5 -9.5
t-2 -19v-8q15 2 25.5 11t11.5 22q1 5 1 11v43v0v1v0v1v0v0v1v0v6q0 13 2 20q10 31 42 31v0h1v0v0v0h1v0v0q26 -1 48 -9q8 -3 8 -8q0 -4 -6 -9q-14 -9 -15 -21q0 -6 -0.5 -14.5t-0.5 -14.5v-11q0 -35 -23 -53q-11 -9 -25 -13q-14 -5 -32.5 -8t-32.5 -10q-4 -2 -5 -3v-518z
M284 786q-9 -3 -16 -4.5t-12 -2.5q-6 -1 -10 -1q-5 1 -5.5 3t-0.5 3v0v1v0v0v0v0v1q0 1 1 2t5 2q20 7 46.5 20.5t52 30.5t47.5 35.5t35 35.5q5 6 5 11q0 4 -2 8q-3 3 -5 6t-6 7q-4 2 -4 6q0 1 1 3q2 3 5 4.5t6 1.5q2 0 5 -1q7 -2 17 -7.5t19.5 -12.5t18 -12.5t13.5 -9.5
q3 -2 3.5 -5.5l0.5 -3.5q0 -6 -6 -10q-6 -3 -12 -9t-13 -11q-22 -18 -45 -32t-45.5 -24.5t-43.5 -18t-55 -16.5z" />
    <glyph glyph-name="uni1EE9" unicode="&#x1ee9;" horiz-adv-x="588" 
d="M427 51q0 -20 -11 -28t-29 -8h-213q-4 -7 -26 -10.5t-56 -3.5q-21 0 -21 20v392q0 12 -7 21q-5 4 -11 5q-8 3 -8 12q0 13 14 14q9 1 23 1q7 0 24.5 -0.5t42.5 -3.5q12 -2 20 -10.5t8 -20.5v-402h144v406q0 10 6 17.5t15 9.5q8 3 17 8q11 7 19 7q3 0 6 -1q13 -3 27.5 -7.5
t24.5 -9.5q9 -3 9 -12q0 -8 -6 -14q-6 -5 -9 -14v0v-1v0v-1v0l-1 -1v0v-1v0v-1v0v-1v0v-1v0l-1 -1v0v-1v0v-1q17 0 29 9.5t13 23.5v0v1v1v1v1v0v4v1v0v44q0 20 2 29q9 31 41 31v0h1h1v0v0h2q25 -1 48 -9q7 -2 7.5 -4.5l0.5 -2.5q0 -4 -7 -9q-5 -5 -9 -9.5t-5 -11.5
q-1 -6 -1.5 -14.5t-0.5 -14.5v-12q0 -34 -22 -52q-11 -9 -25 -14q-15 -5 -33.5 -7.5t-32.5 -10.5q-4 -2 -10 -6v-327zM184 523q-9 -3 -16 -4.5t-12 -2.5q-6 -1 -10 -1q-5 1 -5.5 3t-0.5 3v0v1v0v0v0v0v1q0 1 1 2t5 2q20 7 46.5 20.5t52 30.5t47.5 35.5t35 35.5q5 6 5 11
q0 4 -2 8q-3 3 -5 6t-6 7q-4 2 -4 6q0 1 1 3q2 3 5 4.5t6 1.5q2 0 5 -1q7 -2 17 -7.5t19.5 -12.5t18 -12.5t13.5 -9.5q3 -2 3.5 -5.5l0.5 -3.5q0 -6 -6 -10q-6 -3 -12 -9t-13 -11q-22 -18 -45 -32t-45.5 -24.5t-43.5 -18t-55 -16.5z" />
    <glyph glyph-name="uni1EEA" unicode="&#x1eea;" horiz-adv-x="667" 
d="M542 109q0 -47 -30.5 -71.5t-80.5 -24.5h-215q-4 -6 -26 -10t-56 -4q-23 0 -23 20v657q0 20 -14 28q-19 11 -35 14q-8 2 -10.5 6.5t-2.5 7.5q0 2 1 4q2 8 10 11t14 3h1v0v0h1v0h1h1q15 -1 34 -3.5t38.5 -5.5t37.5 -6.5t32 -6.5q16 -5 16 -18v-1v0v-1v0v0v-1v0v-1
q0 -12 -6 -20q-3 -3 -5.5 -7t-3.5 -8q-1 -5 -1.5 -11t-0.5 -14v-618h202q6 14 9 25t3 34v575q0 28 3 40q2 7 4 11q3 6 6.5 10t6.5 7q4 4 8 6q6 3 11.5 5.5t10.5 2.5q3 0 6 -1q11 -2 29.5 -6.5t32.5 -10.5q5 -2 6.5 -5.5t1.5 -7.5q0 -10 -4 -14q-6 -7 -7.5 -8.5t-3.5 -9.5
t-2 -19v-8q15 2 25.5 11t11.5 22q1 5 1 11v43v0v1v0v1v0v0v1v0v6q0 13 2 20q10 31 42 31v0h1v0v0v0h1v0v0q26 -1 48 -9q8 -3 8 -8q0 -4 -6 -9q-14 -9 -15 -21q0 -6 -0.5 -14.5t-0.5 -14.5v-11q0 -35 -23 -53q-11 -9 -25 -13q-14 -5 -32.5 -8t-32.5 -10q-4 -2 -5 -3v-518z
M382 788q-34 9 -55 16.5t-43.5 18t-45.5 24.5t-45 32q-7 5 -13 11t-12 9q-5 4 -5 10.5t3 8.5q5 4 13.5 9.5t18 12.5t19.5 12.5t17 7.5q3 1 6 1q2 0 5.5 -1.5t4.5 -4.5q1 -2 1 -4q0 -3 -3 -5q-5 -4 -7 -7t-5 -6q-2 -4 -2 -8q0 -5 5 -11q13 -17 35 -35.5t47.5 -35.5t52 -30.5
t46.5 -20.5q4 -1 5 -2t1 -2v-1v0v0v0v-1q0 -1 -0.5 -3t-5.5 -3q-4 0 -10 1q-5 1 -12 2.5t-16 4.5z" />
    <glyph glyph-name="uni1EEB" unicode="&#x1eeb;" horiz-adv-x="588" 
d="M427 51q0 -20 -11 -28t-29 -8h-213q-4 -7 -26 -10.5t-56 -3.5q-21 0 -21 20v392q0 12 -7 21q-5 4 -11 5q-8 3 -8 12q0 13 14 14q9 1 23 1q7 0 24.5 -0.5t42.5 -3.5q12 -2 20 -10.5t8 -20.5v-402h144v406q0 10 6 17.5t15 9.5q8 3 17 8q11 7 19 7q3 0 6 -1q13 -3 27.5 -7.5
t24.5 -9.5q9 -3 9 -12q0 -8 -6 -14q-6 -5 -9 -14v0v-1v0v-1v0l-1 -1v0v-1v0v-1v0v-1v0v-1v0l-1 -1v0v-1v0v-1q17 0 29 9.5t13 23.5v0v1v1v1v1v0v4v1v0v44q0 20 2 29q9 31 41 31v0h1h1v0v0h2q25 -1 48 -9q7 -2 7.5 -4.5l0.5 -2.5q0 -4 -7 -9q-5 -5 -9 -9.5t-5 -11.5
q-1 -6 -1.5 -14.5t-0.5 -14.5v-12q0 -34 -22 -52q-11 -9 -25 -14q-15 -5 -33.5 -7.5t-32.5 -10.5q-4 -2 -10 -6v-327zM297 525q-34 9 -55 16.5t-43.5 18t-45.5 24.5t-45 32q-7 5 -13 11t-12 9q-5 4 -5 10.5t3 8.5q5 4 13.5 9.5t18 12.5t19.5 12.5t17 7.5q3 1 6 1
q2 0 5.5 -1.5t4.5 -4.5q1 -2 1 -4q0 -3 -3 -5q-5 -4 -7 -7t-5 -6q-2 -4 -2 -8q0 -5 5 -11q13 -17 35 -35.5t47.5 -35.5t52 -30.5t46.5 -20.5q4 -1 5 -2t1 -2v-1v0v0v0v-1q0 -1 -0.5 -3t-5.5 -3q-4 0 -10 1q-5 1 -12 2.5t-16 4.5z" />
    <glyph glyph-name="uni1EEC" unicode="&#x1eec;" horiz-adv-x="667" 
d="M542 109q0 -47 -30.5 -71.5t-80.5 -24.5h-215q-4 -6 -26 -10t-56 -4q-23 0 -23 20v657q0 20 -14 28q-19 11 -35 14q-8 2 -10.5 6.5t-2.5 7.5q0 2 1 4q2 8 10 11t14 3h1v0v0h1v0h1h1q15 -1 34 -3.5t38.5 -5.5t37.5 -6.5t32 -6.5q16 -5 16 -18v-1v0v-1v0v0v-1v0v-1
q0 -12 -6 -20q-3 -3 -5.5 -7t-3.5 -8q-1 -5 -1.5 -11t-0.5 -14v-618h202q6 14 9 25t3 34v575q0 28 3 40q2 7 4 11q3 6 6.5 10t6.5 7q4 4 8 6q6 3 11.5 5.5t10.5 2.5q3 0 6 -1q11 -2 29.5 -6.5t32.5 -10.5q5 -2 6.5 -5.5t1.5 -7.5q0 -10 -4 -14q-6 -7 -7.5 -8.5t-3.5 -9.5
t-2 -19v-8q15 2 25.5 11t11.5 22q1 5 1 11v43v0v1v0v1v0v0v1v0v6q0 13 2 20q10 31 42 31v0h1v0v0v0h1v0v0q26 -1 48 -9q8 -3 8 -8q0 -4 -6 -9q-14 -9 -15 -21q0 -6 -0.5 -14.5t-0.5 -14.5v-11q0 -35 -23 -53q-11 -9 -25 -13q-14 -5 -32.5 -8t-32.5 -10q-4 -2 -5 -3v-518z
M302 914q-6 -4 -10 -11.5t-8 -8.5q-3 -1 -5 -1q-3 0 -5.5 1.5t-2.5 4.5t-1.5 15.5t-2 18t-0.5 8.5t0.5 8t1.5 10q1 3 3 4.5t4 1.5q6 0 7 -4q1 -3 1.5 -5t1.5 -4q3 -5 9 -5v0h1v0v0h1v0q8 4 17.5 9.5t20 10.5t19.5 7.5t16 2.5q4 0 9 -1q8 -1 18.5 -6.5t19.5 -15.5t12.5 -20.5
t3.5 -19.5q0 -8 -2 -17q-4 -18 -17 -32t-26.5 -25t-24.5 -20t-12 -16q0 -4 6 -6t23 -2q5 0 5 -2t-6.5 -7.5t-23.5 -5.5q-13 0 -24 7q-10 6 -11 12t-1 8q0 8 4 16.5t12 17.5t15 15q16 12 22.5 23t7 16t0.5 6q0 9 -5 15.5t-13 9.5q-5 2 -12 2t-20 -2.5t-28 -12.5z" />
    <glyph glyph-name="uni1EED" unicode="&#x1eed;" horiz-adv-x="588" 
d="M427 51q0 -20 -11 -28t-29 -8h-213q-4 -7 -26 -10.5t-56 -3.5q-21 0 -21 20v392q0 12 -7 21q-5 4 -11 5q-8 3 -8 12q0 13 14 14q9 1 23 1q7 0 24.5 -0.5t42.5 -3.5q12 -2 20 -10.5t8 -20.5v-402h144v406q0 10 6 17.5t15 9.5q8 3 17 8q11 7 19 7q3 0 6 -1q13 -3 27.5 -7.5
t24.5 -9.5q9 -3 9 -12q0 -8 -6 -14q-6 -5 -9 -14v0v-1v0v-1v0l-1 -1v0v-1v0v-1v0v-1v0v-1v0l-1 -1v0v-1v0v-1q17 0 29 9.5t13 23.5v0v1v1v1v1v0v4v1v0v44q0 20 2 29q9 31 41 31v0h1h1v0v0h2q25 -1 48 -9q7 -2 7.5 -4.5l0.5 -2.5q0 -4 -7 -9q-5 -5 -9 -9.5t-5 -11.5
q-1 -6 -1.5 -14.5t-0.5 -14.5v-12q0 -34 -22 -52q-11 -9 -25 -14q-15 -5 -33.5 -7.5t-32.5 -10.5q-4 -2 -10 -6v-327zM217 651q-6 -4 -10 -11.5t-8 -8.5q-3 -1 -5 -1q-3 0 -5.5 1.5t-2.5 4.5t-1.5 15.5t-2 18t-0.5 8.5t0.5 8t1.5 10q1 3 3 4.5t4 1.5q6 0 7 -4q1 -3 1.5 -5
t1.5 -4q3 -5 9 -5v0h1v0v0h1v0q8 4 17.5 9.5t20 10.5t19.5 7.5t16 2.5q4 0 9 -1q8 -1 18.5 -6.5t19.5 -15.5t12.5 -20.5t3.5 -19.5q0 -8 -2 -17q-4 -18 -17 -32t-26.5 -25t-24.5 -20t-12 -16q0 -4 6 -6t23 -2q5 0 5 -2t-6.5 -7.5t-23.5 -5.5q-13 0 -24 7q-10 6 -11 12t-1 8
q0 8 4 16.5t12 17.5t15 15q16 12 22.5 23t7 16t0.5 6q0 9 -5 15.5t-13 9.5q-5 2 -12 2t-20 -2.5t-28 -12.5z" />
    <glyph glyph-name="uni1EEE" unicode="&#x1eee;" horiz-adv-x="667" 
d="M542 109q0 -47 -30.5 -71.5t-80.5 -24.5h-215q-4 -6 -26 -10t-56 -4q-23 0 -23 20v657q0 20 -14 28q-19 11 -35 14q-8 2 -10.5 6.5t-2.5 7.5q0 2 1 4q2 8 10 11t14 3h1v0v0h1v0h1h1q15 -1 34 -3.5t38.5 -5.5t37.5 -6.5t32 -6.5q16 -5 16 -18v-1v0v-1v0v0v-1v0v-1
q0 -12 -6 -20q-3 -3 -5.5 -7t-3.5 -8q-1 -5 -1.5 -11t-0.5 -14v-618h202q6 14 9 25t3 34v575q0 28 3 40q2 7 4 11q3 6 6.5 10t6.5 7q4 4 8 6q6 3 11.5 5.5t10.5 2.5q3 0 6 -1q11 -2 29.5 -6.5t32.5 -10.5q5 -2 6.5 -5.5t1.5 -7.5q0 -10 -4 -14q-6 -7 -7.5 -8.5t-3.5 -9.5
t-2 -19v-8q15 2 25.5 11t11.5 22q1 5 1 11v43v0v1v0v1v0v0v1v0v6q0 13 2 20q10 31 42 31v0h1v0v0v0h1v0v0q26 -1 48 -9q8 -3 8 -8q0 -4 -6 -9q-14 -9 -15 -21q0 -6 -0.5 -14.5t-0.5 -14.5v-11q0 -35 -23 -53q-11 -9 -25 -13q-14 -5 -32.5 -8t-32.5 -10q-4 -2 -5 -3v-518z
M306 820q-10 7 -15 10t-7 5q-13 9 -26 9q-21 0 -42 -16.5t-32 -33.5q-9 -16 -12 -16.5l-3 -0.5q-4 0 -6 3q-2 2 -2 5q0 1 0.5 3l2.5 10q5 17 14.5 33.5t23 29.5t30 21.5t35.5 8.5t34 -9q4 -2 8.5 -4.5t15.5 -8.5q10 -7 18 -12.5t13 -8.5q19 -13 32 -13q21 0 42 16.5t32 33.5
q9 16 14 16t7 -2t2 -5q0 -1 -0.5 -3.5t-2.5 -9.5q-4 -16 -14 -32.5t-23.5 -30t-30 -22t-34.5 -8.5q-21 0 -45 15q-4 2 -11 6.5t-18 10.5z" />
    <glyph glyph-name="uni1EEF" unicode="&#x1eef;" horiz-adv-x="588" 
d="M427 51q0 -20 -11 -28t-29 -8h-213q-4 -7 -26 -10.5t-56 -3.5q-21 0 -21 20v392q0 12 -7 21q-5 4 -11 5q-8 3 -8 12q0 13 14 14q9 1 23 1q7 0 24.5 -0.5t42.5 -3.5q12 -2 20 -10.5t8 -20.5v-402h144v406q0 10 6 17.5t15 9.5q8 3 17 8q11 7 19 7q3 0 6 -1q13 -3 27.5 -7.5
t24.5 -9.5q9 -3 9 -12q0 -8 -6 -14q-6 -5 -9 -14v0v-1v0v-1v0l-1 -1v0v-1v0v-1v0v-1v0v-1v0l-1 -1v0v-1v0v-1q17 0 29 9.5t13 23.5v0v1v1v1v1v0v4v1v0v44q0 20 2 29q9 31 41 31v0h1h1v0v0h2q25 -1 48 -9q7 -2 7.5 -4.5l0.5 -2.5q0 -4 -7 -9q-5 -5 -9 -9.5t-5 -11.5
q-1 -6 -1.5 -14.5t-0.5 -14.5v-12q0 -34 -22 -52q-11 -9 -25 -14q-15 -5 -33.5 -7.5t-32.5 -10.5q-4 -2 -10 -6v-327zM221 557q-10 7 -15 10t-7 5q-13 9 -26 9q-21 0 -42 -16.5t-32 -33.5q-9 -16 -12 -16.5l-3 -0.5q-4 0 -6 3q-2 2 -2 5q0 1 0.5 3l2.5 10q5 17 14.5 33.5
t23 29.5t30 21.5t35.5 8.5t34 -9q4 -2 8.5 -4.5t15.5 -8.5q10 -7 18 -12.5t13 -8.5q19 -13 32 -13q21 0 42 16.5t32 33.5q9 16 14 16t7 -2t2 -5q0 -1 -0.5 -3.5t-2.5 -9.5q-4 -16 -14 -32.5t-23.5 -30t-30 -22t-34.5 -8.5q-21 0 -45 15q-4 2 -11 6.5t-18 10.5z" />
    <glyph glyph-name="uni1EF0" unicode="&#x1ef0;" horiz-adv-x="667" 
d="M542 109q0 -47 -30.5 -71.5t-80.5 -24.5h-215q-4 -6 -26 -10t-56 -4q-23 0 -23 20v657q0 20 -14 28q-19 11 -35 14q-8 2 -10.5 6.5t-2.5 7.5q0 2 1 4q2 8 10 11t14 3h1v0v0h1v0h1h1q15 -1 34 -3.5t38.5 -5.5t37.5 -6.5t32 -6.5q16 -5 16 -18v-1v0v-1v0v0v-1v0v-1
q0 -12 -6 -20q-3 -3 -5.5 -7t-3.5 -8q-1 -5 -1.5 -11t-0.5 -14v-618h202q6 14 9 25t3 34v575q0 28 3 40q2 7 4 11q3 6 6.5 10t6.5 7q4 4 8 6q6 3 11.5 5.5t10.5 2.5q3 0 6 -1q11 -2 29.5 -6.5t32.5 -10.5q5 -2 6.5 -5.5t1.5 -7.5q0 -10 -4 -14q-6 -7 -7.5 -8.5t-3.5 -9.5
t-2 -19v-8q15 2 25.5 11t11.5 22q1 5 1 11v43v0v1v0v1v0v0v1v0v6q0 13 2 20q10 31 42 31v0h1v0v0v0h1v0v0q26 -1 48 -9q8 -3 8 -8q0 -4 -6 -9q-14 -9 -15 -21q0 -6 -0.5 -14.5t-0.5 -14.5v-11q0 -35 -23 -53q-11 -9 -25 -13q-14 -5 -32.5 -8t-32.5 -10q-4 -2 -5 -3v-518z
M269 -42q0 20 20 20h69q20 0 20 -20v-18q0 -20 -20 -20h-69q-20 0 -20 20v18z" />
    <glyph glyph-name="uni1EF1" unicode="&#x1ef1;" horiz-adv-x="588" 
d="M427 51q0 -20 -11 -28t-29 -8h-213q-4 -7 -26 -10.5t-56 -3.5q-21 0 -21 20v392q0 12 -7 21q-5 4 -11 5q-8 3 -8 12q0 13 14 14q9 1 23 1q7 0 24.5 -0.5t42.5 -3.5q12 -2 20 -10.5t8 -20.5v-402h144v406q0 10 6 17.5t15 9.5q8 3 17 8q11 7 19 7q3 0 6 -1q13 -3 27.5 -7.5
t24.5 -9.5q9 -3 9 -12q0 -8 -6 -14q-6 -5 -9 -14v0v-1v0v-1v0l-1 -1v0v-1v0v-1v0v-1v0v-1v0l-1 -1v0v-1v0v-1q17 0 29 9.5t13 23.5v0v1v1v1v1v0v4v1v0v44q0 20 2 29q9 31 41 31v0h1h1v0v0h2q25 -1 48 -9q7 -2 7.5 -4.5l0.5 -2.5q0 -4 -7 -9q-5 -5 -9 -9.5t-5 -11.5
q-1 -6 -1.5 -14.5t-0.5 -14.5v-12q0 -34 -22 -52q-11 -9 -25 -14q-15 -5 -33.5 -7.5t-32.5 -10.5q-4 -2 -10 -6v-327zM199 -42q0 20 20 20h69q20 0 20 -20v-18q0 -20 -20 -20h-69q-20 0 -20 20v18z" />
    <glyph glyph-name="Ygrave" unicode="&#x1ef2;" horiz-adv-x="588" 
d="M543 725q0 -10 -5 -13q-6 -8 -13.5 -21t-9.5 -24l-174 -609q-13 -45 -44 -63.5t-58 -18.5q-17 0 -35 5q-6 2 -7.5 5t-1.5 4q0 4 4 8q18 23 32 69l103 360q-25 11 -49 18q-32 9 -63 12t-63 3l-53 220q-10 34 -42 42q-8 2 -10.5 6.5t-2.5 7.5q0 2 1 4q2 8 11 11t17 3
q15 -1 33 -3.5t36.5 -5.5t36 -6.5t31.5 -6.5q16 -5 16 -19v-1v0v-1v0v-1v0v0q0 -12 -6 -20q-8 -7 -8 -17q0 -4 1 -7l49 -200v0h1v0h1v-1h1v0h1v0h1v0h1v0v-1h1v0h1l5 -1q4 0 8 -2q12 -4 24.5 -8.5t24.5 -9.5l78 274l4 9q6 13 17.5 20.5t25.5 9.5h9q11 -2 29.5 -7t32.5 -11
q8 -3 8 -13zM382 788q-34 9 -55 16.5t-43.5 18t-45.5 24.5t-45 32q-7 5 -13 11t-12 9q-5 4 -5 10.5t3 8.5q5 4 13.5 9.5t18 12.5t19.5 12.5t17 7.5q3 1 6 1q2 0 5.5 -1.5t4.5 -4.5q1 -2 1 -4q0 -3 -3 -5q-5 -4 -7 -7t-5 -6q-2 -4 -2 -8q0 -5 5 -11q13 -17 35 -35.5
t47.5 -35.5t52 -30.5t46.5 -20.5q4 -1 5 -2t1 -2v-1v0v0v0v-1q0 -1 -0.5 -3t-5.5 -3q-4 0 -10 1q-5 1 -12 2.5t-16 4.5z" />
    <glyph glyph-name="ygrave" unicode="&#x1ef3;" horiz-adv-x="505" 
d="M161 36q-15 -17 -36 -27t-47 -10q-12 0 -12 8q0 3 2 7q12 27 12 75v321q0 20 -14 28q-19 11 -35 14q-8 2 -10.5 6.5t-2.5 7.5q0 2 1 4q2 8 10 11t14 3h1h1v0v0h1h1q15 -1 34 -3.5t38.5 -5.5t37.5 -6.5t32 -6.5q16 -5 16 -18v-1v0v0v-1v0v-1q0 -11 -6 -21q-3 -3 -5.5 -7
t-3.5 -8q-1 -5 -1.5 -11t-0.5 -14v-269q0 -19 -6 -37q3 3 9 7q53 37 117 55q5 11 6.5 23.5t1.5 35.5v222q0 17 12 31l13 13q7 7 13 15q6 7 17 7q4 0 8 -1q13 -3 27 -8t25 -9q8 -3 8 -12t-5 -14q-7 -8 -7 -33l-1 -216v-223q0 -15 -8 -34t-18.5 -37.5t-21 -34t-16.5 -22.5
q-23 -28 -50 -55t-55.5 -49.5t-58 -38.5t-57.5 -21h-1v0h-3q-4 0 -6 2.5t-3 4.5q0 2 0.5 5t5.5 7q25 18 49.5 44.5t46.5 57t41 63t33 62.5q5 13 7 27.5t2 31.5l3 133v8q-35 -9 -62.5 -22t-53.5 -31l-20 -16q-10 -8 -19 -16zM297 525q-34 9 -55 16.5t-43.5 18t-45.5 24.5
t-45 32q-7 5 -13 11t-12 9q-5 4 -5 10.5t3 8.5q5 4 13.5 9.5t18 12.5t19.5 12.5t17 7.5q3 1 6 1q2 0 5.5 -1.5t4.5 -4.5q1 -2 1 -4q0 -3 -3 -5q-5 -4 -7 -7t-5 -6q-2 -4 -2 -8q0 -5 5 -11q13 -17 35 -35.5t47.5 -35.5t52 -30.5t46.5 -20.5q4 -1 5 -2t1 -2v-1v0v0v0v-1
q0 -1 -0.5 -3t-5.5 -3q-4 0 -10 1q-5 1 -12 2.5t-16 4.5z" />
    <glyph glyph-name="uni1EF4" unicode="&#x1ef4;" horiz-adv-x="588" 
d="M543 725q0 -10 -5 -13q-6 -8 -13.5 -21t-9.5 -24l-174 -609q-13 -45 -44 -63.5t-58 -18.5q-17 0 -35 5q-6 2 -7.5 5t-1.5 4q0 4 4 8q18 23 32 69l103 360q-25 11 -49 18q-32 9 -63 12t-63 3l-53 220q-10 34 -42 42q-8 2 -10.5 6.5t-2.5 7.5q0 2 1 4q2 8 11 11t17 3
q15 -1 33 -3.5t36.5 -5.5t36 -6.5t31.5 -6.5q16 -5 16 -19v-1v0v-1v0v-1v0v0q0 -12 -6 -20q-8 -7 -8 -17q0 -4 1 -7l49 -200v0h1v0h1v-1h1v0h1v0h1v0h1v0v-1h1v0h1l5 -1q4 0 8 -2q12 -4 24.5 -8.5t24.5 -9.5l78 274l4 9q6 13 17.5 20.5t25.5 9.5h9q11 -2 29.5 -7t32.5 -11
q8 -3 8 -13zM180 364q0 20 20 20h69q20 0 20 -20v-18q0 -20 -20 -20h-69q-20 0 -20 20v18z" />
    <glyph glyph-name="uni1EF5" unicode="&#x1ef5;" horiz-adv-x="505" 
d="M161 36q-15 -17 -36 -27t-47 -10q-12 0 -12 8q0 3 2 7q12 27 12 75v321q0 20 -14 28q-19 11 -35 14q-8 2 -10.5 6.5t-2.5 7.5q0 2 1 4q2 8 10 11t14 3h1h1v0v0h1h1q15 -1 34 -3.5t38.5 -5.5t37.5 -6.5t32 -6.5q16 -5 16 -18v-1v0v0v-1v0v-1q0 -11 -6 -21q-3 -3 -5.5 -7
t-3.5 -8q-1 -5 -1.5 -11t-0.5 -14v-269q0 -19 -6 -37q3 3 9 7q53 37 117 55q5 11 6.5 23.5t1.5 35.5v222q0 17 12 31l13 13q7 7 13 15q6 7 17 7q4 0 8 -1q13 -3 27 -8t25 -9q8 -3 8 -12t-5 -14q-7 -8 -7 -33l-1 -216v-223q0 -15 -8 -34t-18.5 -37.5t-21 -34t-16.5 -22.5
q-23 -28 -50 -55t-55.5 -49.5t-58 -38.5t-57.5 -21h-1v0h-3q-4 0 -6 2.5t-3 4.5q0 2 0.5 5t5.5 7q25 18 49.5 44.5t46.5 57t41 63t33 62.5q5 13 7 27.5t2 31.5l3 133v8q-35 -9 -62.5 -22t-53.5 -31l-20 -16q-10 -8 -19 -16zM166 -42q0 20 20 20h69q20 0 20 -20v-18
q0 -20 -20 -20h-69q-20 0 -20 20v18z" />
    <glyph glyph-name="uni1EF6" unicode="&#x1ef6;" horiz-adv-x="588" 
d="M543 725q0 -10 -5 -13q-6 -8 -13.5 -21t-9.5 -24l-174 -609q-13 -45 -44 -63.5t-58 -18.5q-17 0 -35 5q-6 2 -7.5 5t-1.5 4q0 4 4 8q18 23 32 69l103 360q-25 11 -49 18q-32 9 -63 12t-63 3l-53 220q-10 34 -42 42q-8 2 -10.5 6.5t-2.5 7.5q0 2 1 4q2 8 11 11t17 3
q15 -1 33 -3.5t36.5 -5.5t36 -6.5t31.5 -6.5q16 -5 16 -19v-1v0v-1v0v-1v0v0q0 -12 -6 -20q-8 -7 -8 -17q0 -4 1 -7l49 -200v0h1v0h1v-1h1v0h1v0h1v0h1v0v-1h1v0h1l5 -1q4 0 8 -2q12 -4 24.5 -8.5t24.5 -9.5l78 274l4 9q6 13 17.5 20.5t25.5 9.5h9q11 -2 29.5 -7t32.5 -11
q8 -3 8 -13zM302 914q-6 -4 -10 -11.5t-8 -8.5q-3 -1 -5 -1q-3 0 -5.5 1.5t-2.5 4.5t-1.5 15.5t-2 18t-0.5 8.5t0.5 8t1.5 10q1 3 3 4.5t4 1.5q6 0 7 -4q1 -3 1.5 -5t1.5 -4q3 -5 9 -5v0h1v0v0h1v0q8 4 17.5 9.5t20 10.5t19.5 7.5t16 2.5q4 0 9 -1q8 -1 18.5 -6.5
t19.5 -15.5t12.5 -20.5t3.5 -19.5q0 -8 -2 -17q-4 -18 -17 -32t-26.5 -25t-24.5 -20t-12 -16q0 -4 6 -6t23 -2q5 0 5 -2t-6.5 -7.5t-23.5 -5.5q-13 0 -24 7q-10 6 -11 12t-1 8q0 8 4 16.5t12 17.5t15 15q16 12 22.5 23t7 16t0.5 6q0 9 -5 15.5t-13 9.5q-5 2 -12 2t-20 -2.5
t-28 -12.5z" />
    <glyph glyph-name="uni1EF7" unicode="&#x1ef7;" horiz-adv-x="505" 
d="M161 36q-15 -17 -36 -27t-47 -10q-12 0 -12 8q0 3 2 7q12 27 12 75v321q0 20 -14 28q-19 11 -35 14q-8 2 -10.5 6.5t-2.5 7.5q0 2 1 4q2 8 10 11t14 3h1h1v0v0h1h1q15 -1 34 -3.5t38.5 -5.5t37.5 -6.5t32 -6.5q16 -5 16 -18v-1v0v0v-1v0v-1q0 -11 -6 -21q-3 -3 -5.5 -7
t-3.5 -8q-1 -5 -1.5 -11t-0.5 -14v-269q0 -19 -6 -37q3 3 9 7q53 37 117 55q5 11 6.5 23.5t1.5 35.5v222q0 17 12 31l13 13q7 7 13 15q6 7 17 7q4 0 8 -1q13 -3 27 -8t25 -9q8 -3 8 -12t-5 -14q-7 -8 -7 -33l-1 -216v-223q0 -15 -8 -34t-18.5 -37.5t-21 -34t-16.5 -22.5
q-23 -28 -50 -55t-55.5 -49.5t-58 -38.5t-57.5 -21h-1v0h-3q-4 0 -6 2.5t-3 4.5q0 2 0.5 5t5.5 7q25 18 49.5 44.5t46.5 57t41 63t33 62.5q5 13 7 27.5t2 31.5l3 133v8q-35 -9 -62.5 -22t-53.5 -31l-20 -16q-10 -8 -19 -16zM217 651q-6 -4 -10 -11.5t-8 -8.5q-3 -1 -5 -1
q-3 0 -5.5 1.5t-2.5 4.5t-1.5 15.5t-2 18t-0.5 8.5t0.5 8t1.5 10q1 3 3 4.5t4 1.5q6 0 7 -4q1 -3 1.5 -5t1.5 -4q3 -5 9 -5v0h1v0v0h1v0q8 4 17.5 9.5t20 10.5t19.5 7.5t16 2.5q4 0 9 -1q8 -1 18.5 -6.5t19.5 -15.5t12.5 -20.5t3.5 -19.5q0 -8 -2 -17q-4 -18 -17 -32
t-26.5 -25t-24.5 -20t-12 -16q0 -4 6 -6t23 -2q5 0 5 -2t-6.5 -7.5t-23.5 -5.5q-13 0 -24 7q-10 6 -11 12t-1 8q0 8 4 16.5t12 17.5t15 15q16 12 22.5 23t7 16t0.5 6q0 9 -5 15.5t-13 9.5q-5 2 -12 2t-20 -2.5t-28 -12.5z" />
    <glyph glyph-name="uni1EF8" unicode="&#x1ef8;" horiz-adv-x="588" 
d="M543 725q0 -10 -5 -13q-6 -8 -13.5 -21t-9.5 -24l-174 -609q-13 -45 -44 -63.5t-58 -18.5q-17 0 -35 5q-6 2 -7.5 5t-1.5 4q0 4 4 8q18 23 32 69l103 360q-25 11 -49 18q-32 9 -63 12t-63 3l-53 220q-10 34 -42 42q-8 2 -10.5 6.5t-2.5 7.5q0 2 1 4q2 8 11 11t17 3
q15 -1 33 -3.5t36.5 -5.5t36 -6.5t31.5 -6.5q16 -5 16 -19v-1v0v-1v0v-1v0v0q0 -12 -6 -20q-8 -7 -8 -17q0 -4 1 -7l49 -200v0h1v0h1v-1h1v0h1v0h1v0h1v0v-1h1v0h1l5 -1q4 0 8 -2q12 -4 24.5 -8.5t24.5 -9.5l78 274l4 9q6 13 17.5 20.5t25.5 9.5h9q11 -2 29.5 -7t32.5 -11
q8 -3 8 -13zM306 820q-10 7 -15 10t-7 5q-13 9 -26 9q-21 0 -42 -16.5t-32 -33.5q-9 -16 -12 -16.5l-3 -0.5q-4 0 -6 3q-2 2 -2 5q0 1 0.5 3l2.5 10q5 17 14.5 33.5t23 29.5t30 21.5t35.5 8.5t34 -9q4 -2 8.5 -4.5t15.5 -8.5q10 -7 18 -12.5t13 -8.5q19 -13 32 -13
q21 0 42 16.5t32 33.5q9 16 14 16t7 -2t2 -5q0 -1 -0.5 -3.5t-2.5 -9.5q-4 -16 -14 -32.5t-23.5 -30t-30 -22t-34.5 -8.5q-21 0 -45 15q-4 2 -11 6.5t-18 10.5z" />
    <glyph glyph-name="uni1EF9" unicode="&#x1ef9;" horiz-adv-x="505" 
d="M161 36q-15 -17 -36 -27t-47 -10q-12 0 -12 8q0 3 2 7q12 27 12 75v321q0 20 -14 28q-19 11 -35 14q-8 2 -10.5 6.5t-2.5 7.5q0 2 1 4q2 8 10 11t14 3h1h1v0v0h1h1q15 -1 34 -3.5t38.5 -5.5t37.5 -6.5t32 -6.5q16 -5 16 -18v-1v0v0v-1v0v-1q0 -11 -6 -21q-3 -3 -5.5 -7
t-3.5 -8q-1 -5 -1.5 -11t-0.5 -14v-269q0 -19 -6 -37q3 3 9 7q53 37 117 55q5 11 6.5 23.5t1.5 35.5v222q0 17 12 31l13 13q7 7 13 15q6 7 17 7q4 0 8 -1q13 -3 27 -8t25 -9q8 -3 8 -12t-5 -14q-7 -8 -7 -33l-1 -216v-223q0 -15 -8 -34t-18.5 -37.5t-21 -34t-16.5 -22.5
q-23 -28 -50 -55t-55.5 -49.5t-58 -38.5t-57.5 -21h-1v0h-3q-4 0 -6 2.5t-3 4.5q0 2 0.5 5t5.5 7q25 18 49.5 44.5t46.5 57t41 63t33 62.5q5 13 7 27.5t2 31.5l3 133v8q-35 -9 -62.5 -22t-53.5 -31l-20 -16q-10 -8 -19 -16zM221 557q-10 7 -15 10t-7 5q-13 9 -26 9
q-21 0 -42 -16.5t-32 -33.5q-9 -16 -12 -16.5l-3 -0.5q-4 0 -6 3q-2 2 -2 5q0 1 0.5 3l2.5 10q5 17 14.5 33.5t23 29.5t30 21.5t35.5 8.5t34 -9q4 -2 8.5 -4.5t15.5 -8.5q10 -7 18 -12.5t13 -8.5q19 -13 32 -13q21 0 42 16.5t32 33.5q9 16 14 16t7 -2t2 -5q0 -1 -0.5 -3.5
t-2.5 -9.5q-4 -16 -14 -32.5t-23.5 -30t-30 -22t-34.5 -8.5q-21 0 -45 15q-4 2 -11 6.5t-18 10.5z" />
    <glyph glyph-name="endash" unicode="&#x2013;" horiz-adv-x="403" 
d="M285 356q22 0 36 -8t21.5 -22t10 -33.5t2.5 -42.5q0 -7 -2 -10.5t-4 -3.5q-3 0 -7 4q-11 10 -22 11t-32 1h-39q-17 0 -36.5 -0.5t-36.5 -0.5h-40q-45 0 -65.5 29.5t-20.5 76.5q0 7 4.5 10.5t6.5 3.5t2 -5q0 -11 18 -11h40z" />
    <glyph glyph-name="emdash" unicode="&#x2014;" horiz-adv-x="638" 
d="M516 354q22 0 36 -8t21.5 -22t10 -33.5t2.5 -42.5q0 -7 -2.5 -10.5t-4.5 -3.5t-6 4q-11 10 -22 11t-32 1h-101q-43 0 -93 -0.5t-93 -0.5h-101q-45 0 -65.5 29.5t-20.5 76.5q0 7 4.5 10.5t6.5 3.5t2 -5q0 -11 18 -11h40z" />
    <glyph glyph-name="quotedblleft" unicode="&#x201c;" horiz-adv-x="376" 
d="M229 484q-9 1 -14.5 7.5t-5.5 15.5l-2 50q0 47 30.5 71.5t80.5 24.5q6 0 9.5 -3.5t3.5 -5.5t-3 -5q-11 -11 -11.5 -23.5t-0.5 -36.5v-48q0 -14 7 -21q3 -4 10 -6q8 -2 8 -11q0 -12 -13 -15h-18q-12 0 -25.5 0.5t-28 2t-27.5 3.5zM69 484q-8 1 -14 7.5t-6 15.5l-1 50
q0 47 30.5 71.5t79.5 24.5q7 0 10 -3t3 -5q0 -3 -3 -6q-11 -11 -11.5 -23.5t-0.5 -36.5v-48q0 -14 7 -21q3 -4 11 -6t8 -11q0 -12 -14 -15h-2v0h-1h-1h-1h-1v0h-6h-1v0h-1q-12 0 -35.5 1t-49.5 5z" />
    <glyph glyph-name="quotedblright" unicode="&#x201d;" horiz-adv-x="378" 
d="M155 647q9 -1 15 -7.5t6 -15.5l1 -50q0 -47 -30.5 -71.5t-79.5 -24.5q-7 0 -10 3t-3 5q0 3 3 6q11 11 11.5 24t0.5 36v48q0 14 -7 21q-4 4 -11 6q-8 3 -8 11q0 12 14 15h1h2h2h1v0h6v0h2q12 0 35 -1t49 -5zM315 647q9 -1 14.5 -7.5t5.5 -15.5l1 -50q0 -47 -30.5 -71.5
t-79.5 -24.5q-7 0 -10 3.5t-3 5.5t3 5q11 11 11.5 24t0.5 36v48q0 6 -1.5 12t-5.5 9q-2 2 -5 4h-1h-1v1h-1v0h-1v1h-1v0q-9 4 -9 11q0 12 14 15h1h2h2h1v0h6v0h2q12 0 35.5 -1t49.5 -5z" />
    <glyph glyph-name="minus" unicode="&#x2212;" horiz-adv-x="833" 
d="M437 361q24 0 38 -8t22 -22.5t10.5 -35t2.5 -44.5q0 -7 -2.5 -11t-4.5 -4q-3 0 -7 5q-11 10 -22.5 11t-33.5 1h-187q-48 0 -69 30.5t-21 79.5q0 6 5 10t6 4q3 0 3 -5q0 -11 18 -11h242z" />
    <glyph glyph-name="dotbelowcomb.1" horiz-adv-x="333" 
d="M72 280q0 20 20 20h69q20 0 20 -20v-18q0 -20 -20 -20h-69q-20 0 -20 20v18z" />
    <glyph glyph-name="hookabove" horiz-adv-x="333" 
d="M152 644q-6 -4 -10 -11.5t-8 -8.5q-3 -1 -5 -1q-3 0 -5.5 1.5t-2.5 4.5t-1.5 15.5t-2 18t-0.5 8.5t0.5 8t1.5 10q1 3 3 4.5t4 1.5q6 0 7 -4q1 -3 1.5 -5t1.5 -4q3 -5 9 -5v0h1v0v0h1v0q8 4 17.5 9.5t20 10.5t19.5 7.5t16 2.5q4 0 9 -1q8 -1 18.5 -6.5t19.5 -15.5
t12.5 -20.5t3.5 -19.5q0 -8 -2 -17q-4 -18 -17 -32t-26.5 -25t-24.5 -20t-12 -16q0 -4 6 -6t23 -2q5 0 5 -2t-6.5 -7.5t-23.5 -5.5q-13 0 -24 7q-10 6 -11 12t-1 8q0 8 4 16.5t12 17.5t15 15q16 12 22.5 23t7 16t0.5 6q0 9 -5 15.5t-13 9.5q-5 2 -12 2t-20 -2.5t-28 -12.5z
" />
    </font>
</defs>
</svg>
